SplineFontDB: 3.0
FontName: monofurx
FullName: monofurx
FamilyName: monofurx
Weight: Regular
Copyright: a mod to monofur (c) 2000 tobias b ko:hler (unci@tigerden.com)
Version: 5.0 2019-07-25
ItalicAngle: 0
UnderlinePosition: -332
UnderlineWidth: 46
Ascent: 618
Descent: 382
InvalidEm: 0
sfntRevision: 0x00010000
LayerCount: 2
Layer: 0 1 "Back" 1
Layer: 1 1 "Fore" 0
XUID: [1021 173 -1185058930 25849]
StyleMap: 0x0040
FSType: 0
OS2Version: 0
OS2_WeightWidthSlopeOnly: 0
OS2_UseTypoMetrics: 0
CreationTime: 957547416
ModificationTime: 1564044479
PfmFamily: 49
TTFWeight: 400
TTFWidth: 5
LineGap: 0
VLineGap: 0
Panose: 2 15 4 9 2 2 3 2 2 4
OS2TypoAscent: 618
OS2TypoAOffset: 0
OS2TypoDescent: -382
OS2TypoDOffset: 0
OS2TypoLinegap: 0
OS2WinAscent: 618
OS2WinAOffset: 0
OS2WinDescent: 382
OS2WinDOffset: 0
HheadAscent: 618
HheadAOffset: 0
HheadDescent: -382
HheadDOffset: 0
OS2SubXSize: 700
OS2SubYSize: 650
OS2SubXOff: 0
OS2SubYOff: 143
OS2SupXSize: 700
OS2SupYSize: 650
OS2SupXOff: 0
OS2SupYOff: 453
OS2StrikeYSize: 50
OS2StrikeYPos: 259
OS2Vendor: 'unci'
OS2UnicodeRanges: 00000000.00000000.00000000.00000000
MarkAttachClasses: 1
DEI: 91125
TtTable: prep
NPUSHB
 51
 28
 28
 27
 27
 26
 26
 25
 25
 24
 24
 23
 23
 22
 22
 21
 21
 20
 20
 19
 19
 18
 18
 17
 17
 16
 16
 15
 15
 14
 14
 13
 13
 12
 12
 11
 11
 10
 10
 9
 9
 8
 8
 3
 3
 2
 2
 1
 1
 0
 0
 1
SCANTYPE
PUSHW_1
 511
SCANCTRL
RCVT
ROUND[Grey]
WCVTP
RCVT
ROUND[Grey]
WCVTP
RCVT
ROUND[Grey]
WCVTP
RCVT
ROUND[Grey]
WCVTP
RCVT
ROUND[Grey]
WCVTP
RCVT
ROUND[Grey]
WCVTP
RCVT
ROUND[Grey]
WCVTP
RCVT
ROUND[Grey]
WCVTP
RCVT
ROUND[Grey]
WCVTP
RCVT
ROUND[Grey]
WCVTP
RCVT
ROUND[Grey]
WCVTP
RCVT
ROUND[Grey]
WCVTP
RCVT
ROUND[Grey]
WCVTP
RCVT
ROUND[Grey]
WCVTP
RCVT
ROUND[Grey]
WCVTP
RCVT
ROUND[Grey]
WCVTP
RCVT
ROUND[Grey]
WCVTP
RCVT
ROUND[Grey]
WCVTP
RCVT
ROUND[Grey]
WCVTP
RCVT
ROUND[Grey]
WCVTP
RCVT
ROUND[Grey]
WCVTP
RCVT
ROUND[Grey]
WCVTP
RCVT
ROUND[Grey]
WCVTP
RCVT
ROUND[Grey]
WCVTP
RCVT
ROUND[Grey]
WCVTP
PUSHB_4
 5
 4
 70
 0
CALL
PUSHB_4
 7

StartChar: space
Encoding: 256 32 0
Width: 500
VWidth: 2400
InSpiro: 1
Flags: MW
LayerCount: 2
Back
SplineSet
0 236 m 1,0,-1
 500 236 l 1025,1,2
  Spiro
    0 236 {
    500 236 v
    0 0 z
  EndSpiro
  Named: "G1GoldSplit"
0 309 m 1,0,-1
 500 309 l 1025,1,2
  Spiro
    0 309 {
    500 309 v
    0 0 z
  EndSpiro
  Named: "G1Center"
368 618 m 1,5,-1
 368 -382 l 1025
  Spiro
    368 618 {
    368 -382 v
    0 0 z
  EndSpiro
  Named: "GCEnd"
132 618 m 1,5,-1
 132 -382 l 1025
  Spiro
    132 618 {
    132 -382 v
    0 0 z
  EndSpiro
  Named: "GCStart"
0 73 m 1,0,-1
 500 73 l 1025,1,2
  Spiro
    0 73 {
    500 73 v
    0 0 z
  EndSpiro
  Named: "G2Center"
0 -236 m 1,0,-1
 500 -236 l 1025,1,2
  Spiro
    0 -236 {
    500 -236 v
    0 0 z
  EndSpiro
  Named: "G2Bottom"
0 382 m 1,0,-1
 500 382 l 1025,1,2
  Spiro
    0 382 {
    500 382 v
    0 0 z
  EndSpiro
  Named: "G2Top"
59 618 m 1,3,-1
 59 -382 l 1025
  Spiro
    59 618 {
    59 -382 v
    0 0 z
  EndSpiro
  Named: "GLeft"
441 618 m 1,5,-1
 441 -382 l 1025
  Spiro
    441 618 {
    441 -382 v
    0 0 z
  EndSpiro
  Named: "GRight"
250 618 m 1,0,-1
 250 -382 l 1025
  Spiro
    250 618 {
    250 -382 v
    0 0 z
  EndSpiro
0 309 m 1,0,-1
 500 309 l 1025,1,2
  Spiro
    0 309 {
    500 309 v
    0 0 z
  EndSpiro
  Named: "G1Center"
295 618 m 1,3,-1
 295 -382 l 1025
  Spiro
    295 618 {
    295 -382 v
    0 0 z
  EndSpiro
  Named: "GLR"
205 618 m 1,5,-1
 205 -382 l 1025
  Spiro
    205 618 {
    205 -382 v
    0 0 z
  EndSpiro
  Named: "GRR"
0 118 m 1,0,-1
 500 118 l 1025,1,2
  Spiro
    0 118 {
    500 118 v
    0 0 z
  EndSpiro
  Named: "EMSquareCenter"
EndSplineSet
Fore
Validated: 1
EndChar

StartChar: exclam
Encoding: 257 33 1
Width: 500
VWidth: 852
Flags: MW
LayerCount: 2
Back
SplineSet
368 618 m 5,5,-1
 368 -382 l 1029
  Named: "GCEnd"
132 618 m 5,5,-1
 132 -382 l 1029
  Named: "GCStart"
0 73 m 5,0,-1
 500 73 l 1029,1,2
  Named: "G2Center"
0 -236 m 5,0,-1
 500 -236 l 1029,1,2
  Named: "G2Bottom"
0 382 m 5,0,-1
 500 382 l 1029,1,2
  Named: "G2Top"
59 618 m 5,3,-1
 59 -382 l 1029
  Named: "GLeft"
441 618 m 5,5,-1
 441 -382 l 1029
  Named: "GRight"
250 618 m 5,0,-1
 250 -382 l 1029
0 309 m 5,0,-1
 500 309 l 1029,1,2
  Named: "G1Center"
295 618 m 5,3,-1
 295 -382 l 1029
  Named: "GLR"
205 618 m 5,5,-1
 205 -382 l 1029
  Named: "GRR"
0 118 m 5,0,-1
 500 118 l 1029,1,2
  Named: "EMSquareCenter"
EndSplineSet
Fore
SplineSet
323 -73 m 256,0,1
 323 -102 323 -102 302 -124 c 128,-1,2
 281 -146 281 -146 250 -146 c 256,3,4
 221 -146 221 -146 199 -125 c 128,-1,5
 177 -104 177 -104 177 -73 c 256,6,7
 177 -44 177 -44 198 -22 c 128,-1,8
 219 0 219 0 250 0 c 256,9,10
 279 0 279 0 301 -22 c 128,-1,11
 323 -44 323 -44 323 -73 c 256,0,1
273 97 m 1,12,13
 273 70 273 70 250 70 c 256,14,15
 227 70 227 70 227 97 c 0,16,17
 227 340 227 340 227 590 c 0,18,19
 227 618 227 618 250 618 c 256,20,21
 273 618 273 618 273 590 c 2,22,-1
 273 97 l 1,12,13
EndSplineSet
Validated: 1
EndChar

StartChar: quotedbl
Encoding: 258 34 2
Width: 500
VWidth: 852
Flags: W
LayerCount: 2
Back
SplineSet
368 618 m 1,5,-1
 368 -382 l 1025
  Named: "GCEnd"
132 618 m 1,5,-1
 132 -382 l 1025
  Named: "GCStart"
0 73 m 1,0,-1
 500 73 l 1025,1,2
  Named: "G2Center"
0 -236 m 1,0,-1
 500 -236 l 1025,1,2
  Named: "G2Bottom"
0 382 m 1,0,-1
 500 382 l 1025,1,2
  Named: "G2Top"
59 618 m 1,3,-1
 59 -382 l 1025
  Named: "GLeft"
441 618 m 1,5,-1
 441 -382 l 1025
  Named: "GRight"
250 618 m 1,0,-1
 250 -382 l 1025
0 309 m 1,0,-1
 500 309 l 1025,1,2
  Named: "G1Center"
295 618 m 1,3,-1
 295 -382 l 1025
  Named: "GLR"
205 618 m 1,5,-1
 205 -382 l 1025
  Named: "GRR"
0 118 m 1,0,-1
 500 118 l 1025,1,2
  Named: "EMSquareCenter"
EndSplineSet
Fore
SplineSet
297 402 m 2,0,1
 287 382 287 382 273 382 c 0,2,3
 268 382 268 382 263 384 c 0,4,5
 250 389 250 389 250 402 c 0,6,7
 250 410 250 410 255 420 c 2,8,-1
 345 604 l 2,9,10
 352 618 352 618 361 618 c 0,11,12
 366 618 366 618 375 614 c 256,13,14
 391 607 391 607 391 597 c 0,15,16
 391 594 391 594 387 586 c 2,17,-1
 297 402 l 2,0,1
156 402 m 2,18,19
 146 382 146 382 132 382 c 0,20,21
 127 382 127 382 122 384 c 0,22,23
 109 389 109 389 109 402 c 0,24,25
 109 410 109 410 114 420 c 2,26,-1
 204 604 l 2,27,28
 211 618 211 618 220 618 c 0,29,30
 225 618 225 618 234 614 c 256,31,32
 250 607 250 607 250 597 c 0,33,34
 250 594 250 594 246 586 c 2,35,-1
 156 402 l 2,18,19
EndSplineSet
Validated: 1
EndChar

StartChar: numbersign
Encoding: 259 35 3
Width: 500
VWidth: 852
Flags: MW
LayerCount: 2
Back
SplineSet
0 236 m 5,0,-1
 500 236 l 1029,1,2
  Named: "G1GoldSplit"
0 309 m 5,0,-1
 500 309 l 1029,1,2
  Named: "G1Center"
368 618 m 5,5,-1
 368 -382 l 1029
  Named: "GCEnd"
132 618 m 5,5,-1
 132 -382 l 1029
  Named: "GCStart"
0 73 m 5,0,-1
 500 73 l 1029,1,2
  Named: "G2Center"
0 -236 m 5,0,-1
 500 -236 l 1029,1,2
  Named: "G2Bottom"
0 382 m 5,0,-1
 500 382 l 1029,1,2
  Named: "G2Top"
59 618 m 5,3,-1
 59 -382 l 1029
  Named: "GLeft"
441 618 m 5,5,-1
 441 -382 l 1029
  Named: "GRight"
250 618 m 5,0,-1
 250 -382 l 1029
0 309 m 5,0,-1
 500 309 l 1029,1,2
  Named: "G1Center"
295 618 m 5,3,-1
 295 -382 l 1029
  Named: "GLR"
205 618 m 5,5,-1
 205 -382 l 1029
  Named: "GRR"
0 118 m 5,0,-1
 500 118 l 1029,1,2
  Named: "EMSquareCenter"
EndSplineSet
Fore
SplineSet
418 428 m 2,0,1
 441 428 441 428 441 404 c 0,2,3
 441 382 441 382 420 382 c 2,4,-1
 341 382 l 1,5,-1
 341 236 l 1,6,-1
 418 236 l 2,7,8
 440 236 440 236 440 213 c 256,9,10
 440 189 440 189 418 189 c 2,11,-1
 341 189 l 1,12,-1
 341 24 l 2,13,14
 341 1 341 1 317 1 c 256,15,16
 295 1 295 1 295 24 c 2,17,-1
 295 189 l 1,18,-1
 205 189 l 1,19,-1
 205 24 l 2,20,21
 205 1 205 1 184 1 c 256,22,23
 161 1 161 1 159 24 c 1,24,-1
 159 189 l 1,25,-1
 82 189 l 2,26,27
 59 189 59 189 59 212.5 c 128,-1,28
 59 236 59 236 82 236 c 2,29,-1
 159 236 l 1,30,-1
 159 382 l 1,31,-1
 82 382 l 2,32,33
 59 382 59 382 59 404 c 0,34,35
 59 428 59 428 82 428 c 2,36,-1
 159 428 l 1,37,-1
 159 595 l 2,38,39
 159 618 159 618 184 618 c 256,40,41
 205 618 205 618 205 595 c 2,42,-1
 205 428 l 1,43,-1
 295 428 l 1,44,-1
 295 595 l 2,45,46
 295 618 295 618 317.5 618 c 128,-1,47
 340 618 340 618 341 596 c 1,48,-1
 341 428 l 1,49,-1
 418 428 l 2,0,1
295 236 m 1,50,-1
 295 382 l 1,51,-1
 205 382 l 1,52,-1
 205 236 l 1,53,-1
 295 236 l 1,50,-1
EndSplineSet
Validated: 1
EndChar

StartChar: dollar
Encoding: 260 36 4
Width: 500
VWidth: 852
Flags: MW
LayerCount: 2
Back
SplineSet
0 236 m 5,0,-1
 500 236 l 1029,1,2
  Named: "G1GoldSplit"
0 309 m 5,0,-1
 500 309 l 1029,1,2
  Named: "G1Center"
368 618 m 5,5,-1
 368 -382 l 1029
  Named: "GCEnd"
132 618 m 5,5,-1
 132 -382 l 1029
  Named: "GCStart"
0 73 m 5,0,-1
 500 73 l 1029,1,2
  Named: "G2Center"
0 -236 m 5,0,-1
 500 -236 l 1029,1,2
  Named: "G2Bottom"
0 382 m 5,0,-1
 500 382 l 1029,1,2
  Named: "G2Top"
59 618 m 5,3,-1
 59 -382 l 1029
  Named: "GLeft"
441 618 m 5,5,-1
 441 -382 l 1029
  Named: "GRight"
250 618 m 5,0,-1
 250 -382 l 1029
0 309 m 5,0,-1
 500 309 l 1029,1,2
  Named: "G1Center"
295 618 m 5,3,-1
 295 -382 l 1029
  Named: "GLR"
205 618 m 5,5,-1
 205 -382 l 1029
  Named: "GRR"
0 118 m 5,0,-1
 500 118 l 1029,1,2
  Named: "EMSquareCenter"
EndSplineSet
Fore
SplineSet
441 222 m 256,0,1
 441 169 441 169 387.5 133.5 c 128,-1,2
 334 98 334 98 273 92 c 1,3,-1
 273 21 l 2,4,5
 273 0 273 0 250 0 c 256,6,7
 227 0 227 0 227 21 c 2,8,-1
 227 92 l 1,9,10
 103 103 103 103 65 154 c 0,11,12
 59 162 59 162 59 169 c 128,-1,13
 59 176 59 176 68 183 c 128,-1,14
 77 190 77 190 91.5 190 c 128,-1,15
 106 190 106 190 127 166 c 1,16,17
 161 142 161 142 227 136 c 1,18,-1
 227 311 l 1,19,20
 170 318 170 318 125.5 346 c 128,-1,21
 81 374 81 374 81 418 c 256,22,23
 81 461 81 461 125.5 489.5 c 128,-1,24
 170 518 170 518 227 525 c 1,25,-1
 227 596 l 2,26,27
 227 618 227 618 250 618 c 256,28,29
 272 618 272 618 273 597 c 1,30,-1
 273 525 l 1,31,32
 361 516 361 516 393 475 c 0,33,34
 399 467 399 467 399.5 458.5 c 128,-1,35
 400 450 400 450 390.5 444.5 c 128,-1,36
 381 439 381 439 370 439 c 128,-1,37
 359 439 359 439 349 448 c 0,38,39
 314 476 314 476 273 482 c 1,40,-1
 273 352 l 1,41,42
 335 346 335 346 388 310.5 c 128,-1,43
 441 275 441 275 441 222 c 256,0,1
227 355 m 1,44,-1
 227 481 l 1,45,46
 193 476 193 476 160 459 c 128,-1,47
 127 442 127 442 127 418 c 256,48,49
 127 392 127 392 160 376 c 128,-1,50
 193 360 193 360 227 355 c 1,44,-1
395 222 m 256,51,52
 395 257 395 257 353.5 279.5 c 128,-1,53
 312 302 312 302 273 307 c 1,54,-1
 273 136 l 1,55,56
 312 141 312 141 353.5 164 c 128,-1,57
 395 187 395 187 395 222 c 256,51,52
EndSplineSet
Validated: 1
EndChar

StartChar: percent
Encoding: 261 37 5
Width: 500
VWidth: 852
Flags: MW
LayerCount: 2
Back
SplineSet
368 618 m 5,5,-1
 368 -382 l 1029
  Named: "GCEnd"
132 618 m 5,5,-1
 132 -382 l 1029
  Named: "GCStart"
0 73 m 5,0,-1
 500 73 l 1029,1,2
  Named: "G2Center"
0 -236 m 5,0,-1
 500 -236 l 1029,1,2
  Named: "G1Bottom"
0 386 m 5,0,-1
 500 386 l 1029,1,2
  Named: "G1Top"
59 618 m 5,3,-1
 59 -382 l 1029
  Named: "GLeft"
441 618 m 5,5,-1
 441 -382 l 1029
  Named: "GRight"
250 618 m 5,0,-1
 250 -382 l 1029
0 309 m 5,0,-1
 500 309 l 1029,1,2
  Named: "G1Center"
295 618 m 5,3,-1
 295 -382 l 1029
  Named: "GLR"
205 618 m 5,5,-1
 205 -382 l 1029
  Named: "GRR"
0 118 m 5,0,-1
 500 118 l 1029,1,2
  Named: "EMSquareCenter"
EndSplineSet
Fore
SplineSet
105 523 m 128,-1,1
 105 502 105 502 119.5 487.5 c 128,-1,2
 134 473 134 473 155 473 c 128,-1,3
 176 473 176 473 190 487.5 c 128,-1,4
 204 502 204 502 204 523 c 128,-1,5
 204 544 204 544 189.5 558 c 128,-1,6
 175 572 175 572 154 572 c 128,-1,7
 133 572 133 572 119 558 c 128,-1,0
 105 544 105 544 105 523 c 128,-1,1
59 523 m 128,-1,9
 59 563 59 563 86.5 590.5 c 128,-1,10
 114 618 114 618 154 618 c 128,-1,11
 194 618 194 618 222 590.5 c 128,-1,12
 250 563 250 563 250 523 c 128,-1,13
 250 483 250 483 222.5 455 c 128,-1,14
 195 427 195 427 155 427 c 128,-1,15
 115 427 115 427 87 455 c 128,-1,8
 59 483 59 483 59 523 c 128,-1,9
107 21 m 2,16,17
 95 0 95 0 81 0 c 0,18,19
 74 0 74 0 68 4 c 0,20,21
 59 10 59 10 59 21 c 0,22,23
 59 30 59 30 67 44 c 2,24,-1
 396 605 l 2,25,26
 404 618 404 618 414 618 c 0,27,28
 420 618 420 618 428 613 c 256,29,30
 441 605 441 605 441 595 c 0,31,32
 441 589 441 589 437 582 c 2,33,-1
 107 21 l 2,16,17
296 96 m 128,-1,35
 296 75 296 75 310.5 60.5 c 128,-1,36
 325 46 325 46 346 46 c 128,-1,37
 367 46 367 46 381 60.5 c 128,-1,38
 395 75 395 75 395 96 c 128,-1,39
 395 117 395 117 380.5 131 c 128,-1,40
 366 145 366 145 345 145 c 128,-1,41
 324 145 324 145 310 131 c 128,-1,34
 296 117 296 117 296 96 c 128,-1,35
250 96 m 128,-1,43
 250 136 250 136 277.5 163.5 c 128,-1,44
 305 191 305 191 345 191 c 128,-1,45
 385 191 385 191 413 163.5 c 128,-1,46
 441 136 441 136 441 96 c 128,-1,47
 441 56 441 56 413.5 28 c 128,-1,48
 386 0 386 0 346 0 c 128,-1,49
 306 0 306 0 278 28 c 128,-1,42
 250 56 250 56 250 96 c 128,-1,43
EndSplineSet
Validated: 1
EndChar

StartChar: ampersand
Encoding: 262 38 6
Width: 500
VWidth: 852
Flags: MW
LayerCount: 2
Back
SplineSet
368 618 m 5,5,-1
 368 -382 l 1029
  Named: "GCEnd"
132 618 m 5,5,-1
 132 -382 l 1029
  Named: "GCStart"
0 73 m 5,0,-1
 500 73 l 1029,1,2
  Named: "G2Center"
0 -236 m 5,0,-1
 500 -236 l 1029,1,2
  Named: "G1Bottom"
0 386 m 5,0,-1
 500 386 l 1029,1,2
  Named: "G1Top"
59 618 m 5,3,-1
 59 -382 l 1029
  Named: "GLeft"
441 618 m 5,5,-1
 441 -382 l 1029
  Named: "GRight"
250 618 m 5,0,-1
 250 -382 l 1029
0 309 m 5,0,-1
 500 309 l 1029,1,2
  Named: "G1Center"
295 618 m 5,3,-1
 295 -382 l 1029
  Named: "GLR"
205 618 m 5,5,-1
 205 -382 l 1029
  Named: "GRR"
0 118 m 5,0,-1
 500 118 l 1029,1,2
  Named: "EMSquareCenter"
EndSplineSet
Fore
SplineSet
436 7 m 256,0,1
 428 0 428 0 423 0 c 0,2,3
 414 -0 414 -0 405 11 c 2,4,-1
 336 97 l 1,5,6
 282 -0 282 -0 209 0 c 0,7,8
 146 -0 146 -0 101 60 c 0,9,10
 59 116 59 116 59 190 c 0,11,12
 59 294 59 294 130 347 c 1,13,14
 85 403 85 403 85 464 c 0,15,16
 85 528 85 528 119.5 573 c 128,-1,17
 154 618 154 618 209 618 c 0,18,19
 263 618 263 618 298 573 c 0,20,21
 334 527 334 527 334 464 c 0,22,23
 334 412 334 412 304 367 c 0,24,25
 282 333 282 333 207 320 c 1,26,-1
 435 34 l 2,27,28
 441 26 441 26 441 21 c 0,29,30
 441 11 441 11 436 7 c 256,0,1
288 464 m 256,31,32
 288 509 288 509 266 540 c 0,33,34
 244 572 244 572 209 572 c 256,35,36
 174 572 174 572 152 540 c 0,37,38
 131 509 131 509 131 464 c 0,39,40
 131 430 131 430 145 404 c 0,41,42
 152 392 152 392 179 356 c 1,43,44
 202 361 202 361 209 361 c 0,45,46
 245 363 245 363 266 393 c 0,47,48
 288 424 288 424 288 464 c 256,31,32
305 135 m 1,49,-1
 159 317 l 1,50,51
 103 279 103 279 103 190 c 0,52,53
 103 131 103 131 132 92 c 0,54,55
 168 42 168 42 210 42 c 0,56,57
 272 42 272 42 305 135 c 1,49,-1
EndSplineSet
Validated: 1
EndChar

StartChar: quotesingle
Encoding: 263 39 7
Width: 500
VWidth: 852
Flags: MW
LayerCount: 2
Back
SplineSet
0 -118 m 1,0,-1
 500 -118 l 1025,1,2
  Spiro
    0 -118 {
    500 -118 v
    0 0 z
  EndSpiro
  Named: "GBottom-500-500"
0 500 m 1,0,-1
 500 500 l 1025,1,2
  Spiro
    0 500 {
    500 500 v
    0 0 z
  EndSpiro
  Named: "G-500/500"
0 236 m 1,0,-1
 500 236 l 1025,1,2
  Spiro
    0 236 {
    500 236 v
    0 0 z
  EndSpiro
  Named: "G1GoldSplit"
0 309 m 1,0,-1
 500 309 l 1025,1,2
  Spiro
    0 309 {
    500 309 v
    0 0 z
  EndSpiro
  Named: "G1Center"
368 618 m 1,5,-1
 368 -382 l 1025
  Spiro
    368 618 {
    368 -382 v
    0 0 z
  EndSpiro
  Named: "GCEnd"
132 618 m 1,5,-1
 132 -382 l 1025
  Spiro
    132 618 {
    132 -382 v
    0 0 z
  EndSpiro
  Named: "GCStart"
0 73 m 1,0,-1
 500 73 l 1025,1,2
  Spiro
    0 73 {
    500 73 v
    0 0 z
  EndSpiro
  Named: "G2Center"
0 -236 m 1,0,-1
 500 -236 l 1025,1,2
  Spiro
    0 -236 {
    500 -236 v
    0 0 z
  EndSpiro
  Named: "G2Bottom"
0 382 m 1,0,-1
 500 382 l 1025,1,2
  Spiro
    0 382 {
    500 382 v
    0 0 z
  EndSpiro
  Named: "G2Top"
59 618 m 1,3,-1
 59 -382 l 1025
  Spiro
    59 618 {
    59 -382 v
    0 0 z
  EndSpiro
  Named: "GLeft"
441 618 m 1,5,-1
 441 -382 l 1025
  Spiro
    441 618 {
    441 -382 v
    0 0 z
  EndSpiro
  Named: "GRight"
250 618 m 1,0,-1
 250 -382 l 1025
  Spiro
    250 618 {
    250 -382 v
    0 0 z
  EndSpiro
0 309 m 1,0,-1
 500 309 l 1025,1,2
  Spiro
    0 309 {
    500 309 v
    0 0 z
  EndSpiro
  Named: "G1Center"
295 618 m 1,3,-1
 295 -382 l 1025
  Spiro
    295 618 {
    295 -382 v
    0 0 z
  EndSpiro
  Named: "GLR"
205 618 m 1,5,-1
 205 -382 l 1025
  Spiro
    205 618 {
    205 -382 v
    0 0 z
  EndSpiro
  Named: "GRR"
0 118 m 1,0,-1
 500 118 l 1025,1,2
  Spiro
    0 118 {
    500 118 v
    0 0 z
  EndSpiro
  Named: "EMSquareCenter"
EndSplineSet
Fore
SplineSet
273 339 m 2,0,1
 273 309 273 309 250 309 c 128,-1,2
 227 309 227 309 227 339 c 2,3,-1
 227 598 l 2,4,5
 227 618 227 618 250 618 c 256,6,7
 273 618 273 618 273 598 c 2,8,-1
 273 339 l 2,0,1
EndSplineSet
Validated: 1
EndChar

StartChar: parenleft
Encoding: 264 40 8
Width: 500
VWidth: 852
Flags: MW
LayerCount: 2
Back
SplineSet
368 618 m 1,5,-1
 368 -382 l 1025
  Named: "GCEnd"
132 618 m 1,5,-1
 132 -382 l 1025
  Named: "GCStart"
0 73 m 1,0,-1
 500 73 l 1025,1,2
  Named: "G2Center"
0 -236 m 1,0,-1
 500 -236 l 1025,1,2
  Named: "G1Bottom"
0 386 m 1,0,-1
 500 386 l 1025,1,2
  Named: "G1Top"
59 618 m 1,3,-1
 59 -382 l 1025
  Named: "GLeft"
441 618 m 1,5,-1
 441 -382 l 1025
  Named: "GRight"
250 618 m 1,0,-1
 250 -382 l 1025
0 309 m 1,0,-1
 500 309 l 1025,1,2
  Named: "G1Center"
295 618 m 1,3,-1
 295 -382 l 1025
  Named: "GLR"
205 618 m 1,5,-1
 205 -382 l 1025
  Named: "GRR"
0 118 m 1,0,-1
 500 118 l 1025,1,2
  Named: "EMSquareCenter"
EndSplineSet
Fore
SplineSet
346 618 m 0,0,1
 368 618 368 618 368 597 c 0,2,3
 368 578 368 578 346 573 c 0,4,5
 278 558 278 558 235 488 c 0,6,7
 177 394 177 394 177 308 c 0,8,9
 178 196 178 196 235 118 c 0,10,11
 278 59 278 59 346 40 c 0,12,13
 368 34 368 34 368 17 c 128,-1,14
 368 0 368 0 346 0 c 0,15,16
 269 0 269 0 201 89 c 0,17,18
 132 178 132 178 132 309 c 0,19,20
 132 423 132 423 201 517 c 0,21,22
 274 618 274 618 346 618 c 0,0,1
EndSplineSet
Validated: 1
EndChar

StartChar: parenright
Encoding: 265 41 9
Width: 500
VWidth: 852
Flags: MW
LayerCount: 2
Back
SplineSet
368 618 m 1,5,-1
 368 -382 l 1025
  Named: "GCEnd"
132 618 m 1,5,-1
 132 -382 l 1025
  Named: "GCStart"
0 73 m 1,0,-1
 500 73 l 1025,1,2
  Named: "G2Center"
0 -236 m 1,0,-1
 500 -236 l 1025,1,2
  Named: "G1Bottom"
0 382 m 1,0,-1
 500 382 l 1025,1,2
  Named: "G1Top"
59 618 m 1,3,-1
 59 -382 l 1025
  Named: "GLeft"
441 618 m 1,5,-1
 441 -382 l 1025
  Named: "GRight"
250 618 m 1,0,-1
 250 -382 l 1025
0 309 m 1,0,-1
 500 309 l 1025,1,2
  Named: "G1Center"
295 618 m 1,3,-1
 295 -382 l 1025
  Named: "GLR"
205 618 m 1,5,-1
 205 -382 l 1025
  Named: "GRR"
0 118 m 1,0,-1
 500 118 l 1025,1,2
  Named: "EMSquareCenter"
EndSplineSet
Fore
SplineSet
154 382 m 0,0,1
 226 382 226 382 299 281 c 0,2,3
 368 187 368 187 368 73 c 0,4,5
 368 -58 368 -58 299 -147 c 0,6,7
 231 -236 231 -236 154 -236 c 0,8,9
 132 -236 132 -236 132 -219 c 128,-1,10
 132 -202 132 -202 154 -196 c 0,11,12
 222 -177 222 -177 265 -118 c 0,13,14
 322 -40 322 -40 323 72 c 0,15,16
 323 158 323 158 265 252 c 0,17,18
 222 322 222 322 154 337 c 0,19,20
 132 342 132 342 132 361 c 0,21,22
 132 382 132 382 154 382 c 0,0,1
EndSplineSet
Validated: 1
EndChar

StartChar: asterisk
Encoding: 266 42 10
Width: 500
VWidth: 852
Flags: MW
LayerCount: 2
Back
SplineSet
368 618 m 5,5,-1
 368 -382 l 1029
  Named: "GCEnd"
132 618 m 5,5,-1
 132 -382 l 1029
  Named: "GCStart"
0 73 m 5,0,-1
 500 73 l 1029,1,2
  Named: "G2Center"
0 -236 m 5,0,-1
 500 -236 l 1029,1,2
  Named: "G1Bottom"
0 386 m 5,0,-1
 500 386 l 1029,1,2
  Named: "G1Top"
59 618 m 5,3,-1
 59 -382 l 1029
  Named: "GLeft"
441 618 m 5,5,-1
 441 -382 l 1029
  Named: "GRight"
250 618 m 5,0,-1
 250 -382 l 1029
0 309 m 5,0,-1
 500 309 l 1029,1,2
  Named: "G1Center"
295 618 m 5,3,-1
 295 -382 l 1029
  Named: "GLR"
205 618 m 5,5,-1
 205 -382 l 1029
  Named: "GRR"
0 118 m 5,0,-1
 500 118 l 1029,1,2
  Named: "EMSquareCenter"
EndSplineSet
Fore
SplineSet
441 309 m 256,0,1
 441 281 441 281 417 281 c 0,2,3
 398 281 398 281 299 287 c 1,4,-1
 386 210 l 2,5,6
 394 203 394 203 394 192 c 128,-1,7
 394 181 394 181 386 172 c 128,-1,8
 378 163 378 163 366.5 163 c 128,-1,9
 355 163 355 163 347 171 c 1,10,-1
 271 258 l 1,11,12
 276 142 276 142 276 138 c 0,13,14
 276 118 276 118 250 118 c 256,15,16
 223 118 223 118 223 139 c 0,17,18
 223 141 223 141 229 258 c 1,19,-1
 153 171 l 2,20,21
 146 163 146 163 134 163 c 128,-1,22
 122 163 122 163 114 172 c 128,-1,23
 106 181 106 181 106 192 c 128,-1,24
 106 203 106 203 114 210 c 2,25,-1
 201 287 l 1,26,27
 119 282 119 282 83 282 c 0,28,29
 59 282 59 282 59 309 c 0,30,31
 59 338 59 338 81 338 c 0,32,33
 82 338 82 338 83 338 c 0,34,35
 103 338 103 338 201 328 c 1,36,-1
 114 405 l 2,37,38
 106 412 106 412 106 423 c 128,-1,39
 106 434 106 434 114 443 c 128,-1,40
 122 452 122 452 135 452 c 256,41,42
 147 452 147 452 153 444 c 1,43,-1
 229 357 l 1,44,45
 223 458 223 458 223 473 c 0,46,47
 223 499 223 499 250 500 c 256,48,49
 276 500 276 500 276 475 c 0,50,51
 276 474 276 474 271 357 c 1,52,-1
 347 444 l 2,53,54
 354 452 354 452 366 452 c 128,-1,55
 378 452 378 452 386 443 c 128,-1,56
 394 434 394 434 394 423 c 128,-1,57
 394 412 394 412 386 405 c 2,58,-1
 299 328 l 1,59,60
 410 337 410 337 417 337 c 0,61,62
 441 337 441 337 441 309 c 256,0,1
EndSplineSet
Validated: 1
EndChar

StartChar: plus
Encoding: 267 43 11
Width: 500
VWidth: 852
Flags: MW
LayerCount: 2
Back
SplineSet
0 236 m 5,0,-1
 500 236 l 1029,1,2
  Named: "G1GoldSplit"
0 309 m 5,0,-1
 500 309 l 1029,1,2
  Named: "G1Center"
368 618 m 5,5,-1
 368 -382 l 1029
  Named: "GCEnd"
132 618 m 5,5,-1
 132 -382 l 1029
  Named: "GCStart"
0 73 m 5,0,-1
 500 73 l 1029,1,2
  Named: "G2Center"
0 -236 m 5,0,-1
 500 -236 l 1029,1,2
  Named: "G2Bottom"
0 382 m 5,0,-1
 500 382 l 1029,1,2
  Named: "G2Top"
59 618 m 5,3,-1
 59 -382 l 1029
  Named: "GLeft"
441 618 m 5,5,-1
 441 -382 l 1029
  Named: "GRight"
250 618 m 5,0,-1
 250 -382 l 1029
0 309 m 5,0,-1
 500 309 l 1029,1,2
  Named: "G1Center"
295 618 m 5,3,-1
 295 -382 l 1029
  Named: "GLR"
205 618 m 5,5,-1
 205 -382 l 1029
  Named: "GRR"
0 118 m 5,0,-1
 500 118 l 1029,1,2
  Named: "EMSquareCenter"
EndSplineSet
Fore
SplineSet
441 309 m 260,0,1
 441 286 441 286 420 286 c 4,2,3
 346 286 346 286 272 286 c 5,4,-1
 272 141 l 6,5,6
 272 118 272 118 250 118 c 260,7,8
 227 118 227 118 227 140 c 6,9,10
 227 286 l 5,11,-1
 82 286 l 6,12,13
 59 286 59 286 59 309 c 132,-1,14
 59 332 59 332 81 332 c 6,15,-1
 227 332 l 5,16,-1
 227 477 l 6,17,18
 227 500 227 500 250 500 c 260,19,20
 272 500 272 500 272 477 c 5,21,-1
 272 332 l 5,22,23
 346 332 346 332 420 332 c 4,24,25
 441 332 441 332 441 309 c 260,0,1
EndSplineSet
Validated: 1
EndChar

StartChar: comma
Encoding: 268 44 12
Width: 500
VWidth: 852
Flags: MW
LayerCount: 2
Back
SplineSet
368 618 m 1,5,-1
 368 -382 l 1025
  Named: "GCEnd"
132 618 m 1,5,-1
 132 -382 l 1025
  Named: "GCStart"
0 73 m 1,0,-1
 500 73 l 1025,1,2
  Named: "G2Center"
0 -236 m 1,0,-1
 500 -236 l 1025,1,2
  Named: "G2Bottom"
0 382 m 1,0,-1
 500 382 l 1025,1,2
  Named: "G2Top"
59 618 m 1,3,-1
 59 -382 l 1025
  Named: "GLeft"
441 618 m 1,5,-1
 441 -382 l 1025
  Named: "GRight"
250 618 m 1,0,-1
 250 -382 l 1025
0 309 m 1,0,-1
 500 309 l 1025,1,2
  Named: "G1Center"
295 618 m 1,3,-1
 295 -382 l 1025
  Named: "GLR"
205 618 m 1,5,-1
 205 -382 l 1025
  Named: "GRR"
0 118 m 1,0,-1
 500 118 l 1025,1,2
  Named: "EMSquareCenter"
EndSplineSet
Fore
SplineSet
132 -236 m 5,0,1
 59 -236 59 -236 59 -211 c 4,2,3
 59 -181 59 -181 132 -180 c 4,4,5
 345 -178 345 -178 345 93 c 4,6,7
 345 118 345 118 368 118 c 260,8,9
 391 118 391 118 391 93 c 4,10,11
 390 -236 390 -236 132 -236 c 5,0,1
EndSplineSet
Validated: 1
EndChar

StartChar: hyphen
Encoding: 269 45 13
AltUni2: 002010.ffffffff.0
Width: 500
VWidth: 852
Flags: MW
LayerCount: 2
Back
SplineSet
0 236 m 5,0,-1
 500 236 l 1029,1,2
  Named: "G1GoldSplit"
0 309 m 5,0,-1
 500 309 l 1029,1,2
  Named: "G1Center"
368 618 m 5,5,-1
 368 -382 l 1029
  Named: "GCEnd"
132 618 m 5,5,-1
 132 -382 l 1029
  Named: "GCStart"
0 73 m 5,0,-1
 500 73 l 1029,1,2
  Named: "G2Center"
0 -236 m 5,0,-1
 500 -236 l 1029,1,2
  Named: "G2Bottom"
0 382 m 5,0,-1
 500 382 l 1029,1,2
  Named: "G2Top"
59 618 m 5,3,-1
 59 -382 l 1029
  Named: "GLeft"
441 618 m 5,5,-1
 441 -382 l 1029
  Named: "GRight"
250 618 m 5,0,-1
 250 -382 l 1029
0 309 m 5,0,-1
 500 309 l 1029,1,2
  Named: "G1Center"
295 618 m 5,3,-1
 295 -382 l 1029
  Named: "GLR"
205 618 m 5,5,-1
 205 -382 l 1029
  Named: "GRR"
0 118 m 5,0,-1
 500 118 l 1029,1,2
  Named: "EMSquareCenter"
EndSplineSet
Fore
SplineSet
441 309 m 260,0,1
 441 286 441 286 405 286 c 6,2,-1
 95 286 l 6,3,4
 59 286 59 286 59 309 c 132,-1,5
 59 332 59 332 95 332 c 4,6,7
 252 332 252 332 408 332 c 4,8,9
 441 332 441 332 441 309 c 260,0,1
EndSplineSet
Validated: 1
EndChar

StartChar: period
Encoding: 270 46 14
Width: 500
VWidth: 852
Flags: MW
LayerCount: 2
Back
SplineSet
368 618 m 1,5,-1
 368 -382 l 1025
  Named: "GCEnd"
132 618 m 1,5,-1
 132 -382 l 1025
  Named: "GCStart"
0 73 m 1,0,-1
 500 73 l 1025,1,2
  Named: "G2Center"
0 -236 m 1,0,-1
 500 -236 l 1025,1,2
  Named: "G1Bottom"
0 386 m 1,0,-1
 500 386 l 1025,1,2
  Named: "G1Top"
59 618 m 1,3,-1
 59 -382 l 1025
  Named: "GLeft"
441 618 m 1,5,-1
 441 -382 l 1025
  Named: "GRight"
250 618 m 1,0,-1
 250 -382 l 1025
0 309 m 1,0,-1
 500 309 l 1025,1,2
  Named: "G1Center"
295 618 m 1,3,-1
 295 -382 l 1025
  Named: "GLR"
205 618 m 1,5,-1
 205 -382 l 1025
  Named: "GRR"
0 118 m 1,0,-1
 500 118 l 1025,1,2
  Named: "EMSquareCenter"
EndSplineSet
Fore
SplineSet
323 -72 m 260,0,1
 323 -102 323 -102 301.5 -123 c 132,-1,2
 280 -144 280 -144 251 -144 c 260,3,4
 221 -144 221 -144 199 -123 c 132,-1,5
 177 -102 177 -102 177 -72 c 260,6,7
 177 -42 177 -42 199 -21 c 132,-1,8
 221 0 221 0 251 0 c 260,9,10
 281 0 281 0 302 -21 c 132,-1,11
 323 -42 323 -42 323 -72 c 260,0,1
EndSplineSet
Validated: 1
EndChar

StartChar: slash
Encoding: 271 47 15
Width: 500
VWidth: 852
Flags: W
LayerCount: 2
Back
SplineSet
368 618 m 5,5,-1
 368 -382 l 1029
  Named: "GCEnd"
132 618 m 5,5,-1
 132 -382 l 1029
  Named: "GCStart"
0 73 m 5,0,-1
 500 73 l 1029,1,2
  Named: "G2Center"
0 -236 m 5,0,-1
 500 -236 l 1029,1,2
  Named: "G2Bottom"
0 382 m 5,0,-1
 500 382 l 1029,1,2
  Named: "G2Top"
59 618 m 5,3,-1
 59 -382 l 1029
  Named: "GLeft"
441 618 m 5,5,-1
 441 -382 l 1029
  Named: "GRight"
250 618 m 5,0,-1
 250 -382 l 1029
0 309 m 5,0,-1
 500 309 l 1029,1,2
  Named: "G1Center"
295 618 m 5,3,-1
 295 -382 l 1029
  Named: "GLR"
205 618 m 5,5,-1
 205 -382 l 1029
  Named: "GRR"
0 118 m 5,0,-1
 500 118 l 1029,1,2
  Named: "EMSquareCenter"
EndSplineSet
Fore
SplineSet
63 -197 m 2,0,1
 396 605 l 2,2,3
 401 618 401 618 416 618 c 0,4,5
 419 618 419 618 427 615 c 256,6,7
 441 609 441 609 441 597 c 0,8,9
 441 595 441 595 438 588 c 2,10,-1
 105 -214 l 2,11,12
 96 -236 96 -236 82 -236 c 0,13,14
 77 -236 77 -236 73 -234 c 0,15,16
 59 -227 59 -227 59 -214 c 0,17,18
 59 -207 59 -207 63 -197 c 2,0,1
EndSplineSet
Validated: 1
EndChar

StartChar: zero
Encoding: 272 48 16
Width: 500
VWidth: 852
Flags: MW
LayerCount: 2
Back
SplineSet
0 500 m 5,0,-1
 500 500 l 1029,1,2
  Spiro
    0 500 {
    500 500 v
    0 0 z
  EndSpiro
  Named: "G-500/500"
0 236 m 5,0,-1
 500 236 l 1029,1,2
  Spiro
    0 236 {
    500 236 v
    0 0 z
  EndSpiro
  Named: "G1GoldSplit"
0 309 m 5,0,-1
 500 309 l 1029,1,2
  Spiro
    0 309 {
    500 309 v
    0 0 z
  EndSpiro
  Named: "G1Center"
368 618 m 5,5,-1
 368 -382 l 1029
  Spiro
    368 618 {
    368 -382 v
    0 0 z
  EndSpiro
  Named: "GCEnd"
132 618 m 5,5,-1
 132 -382 l 1029
  Spiro
    132 618 {
    132 -382 v
    0 0 z
  EndSpiro
  Named: "GCStart"
0 73 m 5,0,-1
 500 73 l 1029,1,2
  Spiro
    0 73 {
    500 73 v
    0 0 z
  EndSpiro
  Named: "G2Center"
0 -236 m 5,0,-1
 500 -236 l 1029,1,2
  Spiro
    0 -236 {
    500 -236 v
    0 0 z
  EndSpiro
  Named: "G2Bottom"
0 382 m 5,0,-1
 500 382 l 1029,1,2
  Spiro
    0 382 {
    500 382 v
    0 0 z
  EndSpiro
  Named: "G2Top"
59 618 m 5,3,-1
 59 -382 l 1029
  Spiro
    59 618 {
    59 -382 v
    0 0 z
  EndSpiro
  Named: "GLeft"
441 618 m 5,5,-1
 441 -382 l 1029
  Spiro
    441 618 {
    441 -382 v
    0 0 z
  EndSpiro
  Named: "GRight"
250 618 m 5,0,-1
 250 -382 l 1029
  Spiro
    250 618 {
    250 -382 v
    0 0 z
  EndSpiro
0 309 m 5,0,-1
 500 309 l 1029,1,2
  Spiro
    0 309 {
    500 309 v
    0 0 z
  EndSpiro
  Named: "G1Center"
295 618 m 5,3,-1
 295 -382 l 1029
  Spiro
    295 618 {
    295 -382 v
    0 0 z
  EndSpiro
  Named: "GLR"
205 618 m 5,5,-1
 205 -382 l 1029
  Spiro
    205 618 {
    205 -382 v
    0 0 z
  EndSpiro
  Named: "GRR"
0 118 m 5,0,-1
 500 118 l 1029,1,2
  Spiro
    0 118 {
    500 118 v
    0 0 z
  EndSpiro
  Named: "EMSquareCenter"
EndSplineSet
Fore
SplineSet
322 250 m 260,0,1
 322 220 322 220 300.5 199 c 132,-1,2
 279 178 279 178 250 178 c 260,3,4
 220 178 220 178 198 199 c 132,-1,5
 176 220 176 220 176 250 c 260,6,7
 176 280 176 280 198 301 c 132,-1,8
 220 322 220 322 250 322 c 260,9,10
 280 322 280 322 301 301 c 132,-1,11
 322 280 322 280 322 250 c 260,0,1
395 250 m 0,12,13
 395 331 395 331 356 392 c 0,14,15
 315 454 315 454 250 454 c 0,16,17
 183 454 183 454 142 389 c 0,18,19
 105 330 105 330 105 250 c 0,20,21
 105 172 105 172 142 114 c 0,22,23
 185 46 185 46 250 46 c 256,24,25
 314 46 314 46 357 114 c 0,26,27
 395 176 395 176 395 250 c 0,12,13
441 250 m 0,28,29
 441 159 441 159 391 83 c 0,30,31
 335 0 335 0 250 0 c 256,32,33
 165 0 165 0 108 83 c 0,34,35
 59 154 59 154 59 250 c 0,36,37
 59 348 59 348 108 420 c 0,38,39
 162 500 162 500 250 500 c 0,40,41
 336 500 336 500 389 424 c 0,42,43
 441 349 441 349 441 250 c 0,28,29
EndSplineSet
Validated: 1
EndChar

StartChar: one
Encoding: 273 49 17
Width: 500
VWidth: 852
Flags: MW
LayerCount: 2
Back
SplineSet
0 500 m 1,0,-1
 500 500 l 1025,1,2
  Spiro
    0 500 {
    500 500 v
    0 0 z
  EndSpiro
  Named: "G-500/500"
0 236 m 1,0,-1
 500 236 l 1025,1,2
  Spiro
    0 236 {
    500 236 v
    0 0 z
  EndSpiro
  Named: "G1GoldSplit"
0 309 m 1,0,-1
 500 309 l 1025,1,2
  Spiro
    0 309 {
    500 309 v
    0 0 z
  EndSpiro
  Named: "G1Center"
368 618 m 1,5,-1
 368 -382 l 1025
  Spiro
    368 618 {
    368 -382 v
    0 0 z
  EndSpiro
  Named: "GCEnd"
132 618 m 1,5,-1
 132 -382 l 1025
  Spiro
    132 618 {
    132 -382 v
    0 0 z
  EndSpiro
  Named: "GCStart"
0 73 m 1,0,-1
 500 73 l 1025,1,2
  Spiro
    0 73 {
    500 73 v
    0 0 z
  EndSpiro
  Named: "G2Center"
0 -236 m 1,0,-1
 500 -236 l 1025,1,2
  Spiro
    0 -236 {
    500 -236 v
    0 0 z
  EndSpiro
  Named: "G2Bottom"
0 382 m 1,0,-1
 500 382 l 1025,1,2
  Spiro
    0 382 {
    500 382 v
    0 0 z
  EndSpiro
  Named: "G2Top"
59 618 m 1,3,-1
 59 -382 l 1025
  Spiro
    59 618 {
    59 -382 v
    0 0 z
  EndSpiro
  Named: "GLeft"
441 618 m 1,5,-1
 441 -382 l 1025
  Spiro
    441 618 {
    441 -382 v
    0 0 z
  EndSpiro
  Named: "GRight"
250 618 m 1,0,-1
 250 -382 l 1025
  Spiro
    250 618 {
    250 -382 v
    0 0 z
  EndSpiro
0 309 m 1,0,-1
 500 309 l 1025,1,2
  Spiro
    0 309 {
    500 309 v
    0 0 z
  EndSpiro
  Named: "G1Center"
295 618 m 1,3,-1
 295 -382 l 1025
  Spiro
    295 618 {
    295 -382 v
    0 0 z
  EndSpiro
  Named: "GLR"
205 618 m 1,5,-1
 205 -382 l 1025
  Spiro
    205 618 {
    205 -382 v
    0 0 z
  EndSpiro
  Named: "GRR"
0 118 m 1,0,-1
 500 118 l 1025,1,2
  Spiro
    0 118 {
    500 118 v
    0 0 z
  EndSpiro
  Named: "EMSquareCenter"
EndSplineSet
Fore
SplineSet
441 23 m 256,0,1
 441 0 441 0 410 0 c 2,2,-1
 138 0 l 2,3,4
 107 0 107 0 106 23 c 256,5,6
 106 45 106 45 137 46 c 0,7,8
 194 46 194 46 250 46 c 1,9,-1
 250 429 l 1,10,-1
 91 313 l 2,11,12
 86 309 86 309 80 309 c 0,13,14
 68 309 68 309 64 316 c 0,15,16
 59 325 59 325 59 330 c 0,17,18
 59 337 59 337 67 343 c 2,19,-1
 250 487 l 2,20,21
 267 500 267 500 273 500 c 0,22,23
 296 500 296 500 296 465 c 2,24,-1
 296 46 l 1,25,26
 354 46 354 46 412 46 c 0,27,28
 441 46 441 46 441 23 c 256,0,1
EndSplineSet
Validated: 1
EndChar

StartChar: two
Encoding: 274 50 18
Width: 500
VWidth: 852
Flags: MW
LayerCount: 2
Back
SplineSet
0 500 m 5,0,-1
 500 500 l 1029,1,2
  Spiro
    0 500 {
    500 500 v
    0 0 z
  EndSpiro
  Named: "G-500/500"
0 236 m 5,0,-1
 500 236 l 1029,1,2
  Spiro
    0 236 {
    500 236 v
    0 0 z
  EndSpiro
  Named: "G1GoldSplit"
0 309 m 5,0,-1
 500 309 l 1029,1,2
  Spiro
    0 309 {
    500 309 v
    0 0 z
  EndSpiro
  Named: "G1Center"
368 618 m 5,5,-1
 368 -382 l 1029
  Spiro
    368 618 {
    368 -382 v
    0 0 z
  EndSpiro
  Named: "GCEnd"
132 618 m 5,5,-1
 132 -382 l 1029
  Spiro
    132 618 {
    132 -382 v
    0 0 z
  EndSpiro
  Named: "GCStart"
0 73 m 5,0,-1
 500 73 l 1029,1,2
  Spiro
    0 73 {
    500 73 v
    0 0 z
  EndSpiro
  Named: "G2Center"
0 -236 m 5,0,-1
 500 -236 l 1029,1,2
  Spiro
    0 -236 {
    500 -236 v
    0 0 z
  EndSpiro
  Named: "G2Bottom"
0 382 m 5,0,-1
 500 382 l 1029,1,2
  Spiro
    0 382 {
    500 382 v
    0 0 z
  EndSpiro
  Named: "G2Top"
59 618 m 5,3,-1
 59 -382 l 1029
  Spiro
    59 618 {
    59 -382 v
    0 0 z
  EndSpiro
  Named: "GLeft"
441 618 m 5,5,-1
 441 -382 l 1029
  Spiro
    441 618 {
    441 -382 v
    0 0 z
  EndSpiro
  Named: "GRight"
250 618 m 5,0,-1
 250 -382 l 1029
  Spiro
    250 618 {
    250 -382 v
    0 0 z
  EndSpiro
0 309 m 5,0,-1
 500 309 l 1029,1,2
  Spiro
    0 309 {
    500 309 v
    0 0 z
  EndSpiro
  Named: "G1Center"
295 618 m 5,3,-1
 295 -382 l 1029
  Spiro
    295 618 {
    295 -382 v
    0 0 z
  EndSpiro
  Named: "GLR"
205 618 m 5,5,-1
 205 -382 l 1029
  Spiro
    205 618 {
    205 -382 v
    0 0 z
  EndSpiro
  Named: "GRR"
0 118 m 5,0,-1
 500 118 l 1029,1,2
  Spiro
    0 118 {
    500 118 v
    0 0 z
  EndSpiro
  Named: "EMSquareCenter"
EndSplineSet
Fore
SplineSet
441 324 m 0,0,1
 441 266 441 266 396 211 c 0,2,3
 366 174 366 174 295 123.5 c 128,-1,4
 224 73 224 73 154 46 c 1,5,-1
 408 46 l 2,6,7
 440 46 440 46 441 23 c 256,8,9
 441 0 441 0 408 0 c 2,10,-1
 95 0 l 2,11,12
 59 0 59 0 59 23 c 0,13,14
 59 34 59 34 73 46 c 0,15,16
 95 65 95 65 156 98 c 0,17,18
 394 228 394 228 395 324 c 0,19,20
 395 373 395 373 348 413.5 c 128,-1,21
 301 454 301 454 251 454 c 256,22,23
 187 454 187 454 147 413 c 128,-1,24
 107 372 107 372 107 324 c 0,25,26
 107 295 107 295 83 295 c 256,27,28
 59 295 59 295 59 324 c 0,29,30
 59 397 59 397 117 449 c 128,-1,31
 175 501 175 501 251 501 c 256,32,33
 327 501 327 501 384 449 c 128,-1,34
 441 397 441 397 441 324 c 0,0,1
EndSplineSet
Validated: 1
EndChar

StartChar: three
Encoding: 275 51 19
Width: 500
VWidth: 852
Flags: MW
LayerCount: 2
Back
SplineSet
0 -118 m 5,0,-1
 500 -118 l 1029,1,2
  Spiro
    0 -118 {
    500 -118 v
    0 0 z
  EndSpiro
  Named: "GBottom-500-500"
0 500 m 5,0,-1
 500 500 l 1029,1,2
  Spiro
    0 500 {
    500 500 v
    0 0 z
  EndSpiro
  Named: "G-500/500"
0 236 m 5,0,-1
 500 236 l 1029,1,2
  Spiro
    0 236 {
    500 236 v
    0 0 z
  EndSpiro
  Named: "G1GoldSplit"
0 309 m 5,0,-1
 500 309 l 1029,1,2
  Spiro
    0 309 {
    500 309 v
    0 0 z
  EndSpiro
  Named: "G1Center"
368 618 m 5,5,-1
 368 -382 l 1029
  Spiro
    368 618 {
    368 -382 v
    0 0 z
  EndSpiro
  Named: "GCEnd"
132 618 m 5,5,-1
 132 -382 l 1029
  Spiro
    132 618 {
    132 -382 v
    0 0 z
  EndSpiro
  Named: "GCStart"
0 73 m 5,0,-1
 500 73 l 1029,1,2
  Spiro
    0 73 {
    500 73 v
    0 0 z
  EndSpiro
  Named: "G2Center"
0 -236 m 5,0,-1
 500 -236 l 1029,1,2
  Spiro
    0 -236 {
    500 -236 v
    0 0 z
  EndSpiro
  Named: "G2Bottom"
0 382 m 5,0,-1
 500 382 l 1029,1,2
  Spiro
    0 382 {
    500 382 v
    0 0 z
  EndSpiro
  Named: "G2Top"
59 618 m 5,3,-1
 59 -382 l 1029
  Spiro
    59 618 {
    59 -382 v
    0 0 z
  EndSpiro
  Named: "GLeft"
441 618 m 5,5,-1
 441 -382 l 1029
  Spiro
    441 618 {
    441 -382 v
    0 0 z
  EndSpiro
  Named: "GRight"
250 618 m 5,0,-1
 250 -382 l 1029
  Spiro
    250 618 {
    250 -382 v
    0 0 z
  EndSpiro
0 309 m 5,0,-1
 500 309 l 1029,1,2
  Spiro
    0 309 {
    500 309 v
    0 0 z
  EndSpiro
  Named: "G1Center"
295 618 m 5,3,-1
 295 -382 l 1029
  Spiro
    295 618 {
    295 -382 v
    0 0 z
  EndSpiro
  Named: "GLR"
205 618 m 5,5,-1
 205 -382 l 1029
  Spiro
    205 618 {
    205 -382 v
    0 0 z
  EndSpiro
  Named: "GRR"
0 118 m 5,0,-1
 500 118 l 1029,1,2
  Spiro
    0 118 {
    500 118 v
    0 0 z
  EndSpiro
  Named: "EMSquareCenter"
EndSplineSet
Fore
SplineSet
441 477 m 0,0,1
 441 466 441 466 427 454 c 1,2,-1
 249 284 l 1,3,4
 328 279 328 279 384.5 217 c 128,-1,5
 441 155 441 155 441 73 c 0,6,7
 441 -8 441 -8 380.5 -63 c 128,-1,8
 320 -118 320 -118 237 -118 c 0,9,10
 188 -118 188 -118 137 -90 c 0,11,12
 88 -62 88 -62 64 -17 c 0,13,14
 59 -8 59 -8 59 0 c 0,15,16
 59 15 59 15 66 21 c 0,17,18
 76 30 76 30 91 18 c 128,-1,19
 106 6 106 6 118 -10 c 0,20,21
 166 -76 166 -76 238 -76 c 0,22,23
 308 -76 308 -76 350 -33 c 0,24,25
 395 12 395 12 395 73 c 256,26,27
 395 145 395 145 352 194 c 128,-1,29
 309 243 309 243 251 243 c 0,30,31
 250 243 250 243 249 243 c 0,32,33
 200 243 200 243 141 193 c 0,34,35
 117 174 117 174 107 174 c 0,36,37
 94 174 94 174 94 184.5 c 128,-1,38
 94 195 94 195 112 212 c 2,39,-1
 368 454 l 1,40,-1
 89 454 l 2,41,42
 59 454 59 454 59 477 c 128,-1,43
 59 500 59 500 88 500 c 0,44,45
 248 500 248 500 408 500 c 0,46,47
 441 500 441 500 441 477 c 0,0,1
EndSplineSet
Validated: 1
EndChar

StartChar: four
Encoding: 276 52 20
Width: 500
VWidth: 852
Flags: MW
LayerCount: 2
Back
SplineSet
0 -118 m 5,0,-1
 500 -118 l 1029,1,2
  Spiro
    0 -118 {
    500 -118 v
    0 0 z
  EndSpiro
  Named: "GBottom-500-500"
0 500 m 5,0,-1
 500 500 l 1029,1,2
  Spiro
    0 500 {
    500 500 v
    0 0 z
  EndSpiro
  Named: "G-500/500"
0 236 m 5,0,-1
 500 236 l 1029,1,2
  Spiro
    0 236 {
    500 236 v
    0 0 z
  EndSpiro
  Named: "G1GoldSplit"
0 309 m 5,0,-1
 500 309 l 1029,1,2
  Spiro
    0 309 {
    500 309 v
    0 0 z
  EndSpiro
  Named: "G1Center"
368 618 m 5,5,-1
 368 -382 l 1029
  Spiro
    368 618 {
    368 -382 v
    0 0 z
  EndSpiro
  Named: "GCEnd"
132 618 m 5,5,-1
 132 -382 l 1029
  Spiro
    132 618 {
    132 -382 v
    0 0 z
  EndSpiro
  Named: "GCStart"
0 73 m 5,0,-1
 500 73 l 1029,1,2
  Spiro
    0 73 {
    500 73 v
    0 0 z
  EndSpiro
  Named: "G2Center"
0 -236 m 5,0,-1
 500 -236 l 1029,1,2
  Spiro
    0 -236 {
    500 -236 v
    0 0 z
  EndSpiro
  Named: "G2Bottom"
0 382 m 5,0,-1
 500 382 l 1029,1,2
  Spiro
    0 382 {
    500 382 v
    0 0 z
  EndSpiro
  Named: "G2Top"
59 618 m 5,3,-1
 59 -382 l 1029
  Spiro
    59 618 {
    59 -382 v
    0 0 z
  EndSpiro
  Named: "GLeft"
441 618 m 5,5,-1
 441 -382 l 1029
  Spiro
    441 618 {
    441 -382 v
    0 0 z
  EndSpiro
  Named: "GRight"
250 618 m 5,0,-1
 250 -382 l 1029
  Spiro
    250 618 {
    250 -382 v
    0 0 z
  EndSpiro
0 309 m 5,0,-1
 500 309 l 1029,1,2
  Spiro
    0 309 {
    500 309 v
    0 0 z
  EndSpiro
  Named: "G1Center"
295 618 m 5,3,-1
 295 -382 l 1029
  Spiro
    295 618 {
    295 -382 v
    0 0 z
  EndSpiro
  Named: "GLR"
205 618 m 5,5,-1
 205 -382 l 1029
  Spiro
    205 618 {
    205 -382 v
    0 0 z
  EndSpiro
  Named: "GRR"
0 118 m 5,0,-1
 500 118 l 1029,1,2
  Spiro
    0 118 {
    500 118 v
    0 0 z
  EndSpiro
  Named: "EMSquareCenter"
EndSplineSet
Fore
SplineSet
441 95 m 256,0,1
 441 72 441 72 412 72 c 0,2,3
 378 72 378 72 344 72 c 1,4,-1
 344 -87 l 2,5,6
 344 -118 344 -118 318 -118 c 256,7,8
 295 -118 295 -118 295 -87 c 2,9,-1
 295 72 l 1,10,-1
 93 72 l 2,11,12
 59 72 59 72 59 91 c 0,13,14
 59 98 59 98 67 111 c 2,15,-1
 288 482 l 2,16,17
 299 500 299 500 318 500 c 0,18,19
 344 500 344 500 344 465 c 2,20,-1
 344 118 l 1,21,-1
 411 118 l 2,22,23
 441 118 441 118 441 95 c 256,0,1
295 118 m 1,24,-1
 295 400 l 1,25,-1
 121 118 l 1,26,-1
 295 118 l 1,24,-1
EndSplineSet
Validated: 1
EndChar

StartChar: five
Encoding: 277 53 21
Width: 500
VWidth: 852
Flags: MW
LayerCount: 2
Back
SplineSet
0 -118 m 5,0,-1
 500 -118 l 1029,1,2
  Spiro
    0 -118 {
    500 -118 v
    0 0 z
  EndSpiro
  Named: "GBottom-500-500"
0 500 m 5,0,-1
 500 500 l 1029,1,2
  Spiro
    0 500 {
    500 500 v
    0 0 z
  EndSpiro
  Named: "G-500/500"
0 236 m 5,0,-1
 500 236 l 1029,1,2
  Spiro
    0 236 {
    500 236 v
    0 0 z
  EndSpiro
  Named: "G1GoldSplit"
0 309 m 5,0,-1
 500 309 l 1029,1,2
  Spiro
    0 309 {
    500 309 v
    0 0 z
  EndSpiro
  Named: "G1Center"
368 618 m 5,5,-1
 368 -382 l 1029
  Spiro
    368 618 {
    368 -382 v
    0 0 z
  EndSpiro
  Named: "GCEnd"
132 618 m 5,5,-1
 132 -382 l 1029
  Spiro
    132 618 {
    132 -382 v
    0 0 z
  EndSpiro
  Named: "GCStart"
0 73 m 5,0,-1
 500 73 l 1029,1,2
  Spiro
    0 73 {
    500 73 v
    0 0 z
  EndSpiro
  Named: "G2Center"
0 -236 m 5,0,-1
 500 -236 l 1029,1,2
  Spiro
    0 -236 {
    500 -236 v
    0 0 z
  EndSpiro
  Named: "G2Bottom"
0 382 m 5,0,-1
 500 382 l 1029,1,2
  Spiro
    0 382 {
    500 382 v
    0 0 z
  EndSpiro
  Named: "G2Top"
59 618 m 5,3,-1
 59 -382 l 1029
  Spiro
    59 618 {
    59 -382 v
    0 0 z
  EndSpiro
  Named: "GLeft"
441 618 m 5,5,-1
 441 -382 l 1029
  Spiro
    441 618 {
    441 -382 v
    0 0 z
  EndSpiro
  Named: "GRight"
250 618 m 5,0,-1
 250 -382 l 1029
  Spiro
    250 618 {
    250 -382 v
    0 0 z
  EndSpiro
0 309 m 5,0,-1
 500 309 l 1029,1,2
  Spiro
    0 309 {
    500 309 v
    0 0 z
  EndSpiro
  Named: "G1Center"
295 618 m 5,3,-1
 295 -382 l 1029
  Spiro
    295 618 {
    295 -382 v
    0 0 z
  EndSpiro
  Named: "GLR"
205 618 m 5,5,-1
 205 -382 l 1029
  Spiro
    205 618 {
    205 -382 v
    0 0 z
  EndSpiro
  Named: "GRR"
0 118 m 5,0,-1
 500 118 l 1029,1,2
  Spiro
    0 118 {
    500 118 v
    0 0 z
  EndSpiro
  Named: "EMSquareCenter"
EndSplineSet
Fore
SplineSet
441 97 m 256,0,1
 441 8 441 8 382 -55 c 128,-1,2
 323 -118 323 -118 239 -118 c 0,3,4
 185 -118 185 -118 134 -87.5 c 128,-1,5
 83 -57 83 -57 64 -11 c 0,6,7
 59 1 59 1 59 9.5 c 128,-1,8
 59 18 59 18 64 23 c 0,9,10
 73 32 73 32 82 32 c 0,11,12
 93 32 93 32 104 16 c 0,13,14
 123 -11 123 -11 126 -15 c 0,15,16
 173 -72 173 -72 242 -72 c 0,17,18
 309 -72 309 -72 347 -28 c 0,19,20
 395 26 395 26 395 97 c 256,21,22
 395 172 395 172 351.5 220 c 128,-1,23
 308 268 308 268 239 268 c 0,24,25
 124 268 124 268 107 181 c 0,26,27
 102 155 102 155 78 155 c 0,28,29
 59 155 59 155 59 183 c 0,30,31
 59 189 59 189 60 196 c 2,32,-1
 100 474 l 2,33,34
 101 483 101 483 110 492 c 0,35,36
 120 500 120 500 128 500 c 2,37,-1
 412 500 l 2,38,39
 441 500 441 500 441 477 c 256,40,41
 441 454 441 454 412 454 c 2,42,-1
 138 454 l 1,43,-1
 115 282 l 1,44,45
 163 314 163 314 243 314 c 128,-1,46
 323 314 323 314 382 250 c 128,-1,47
 441 186 441 186 441 97 c 256,0,1
EndSplineSet
Validated: 1
EndChar

StartChar: six
Encoding: 278 54 22
Width: 500
VWidth: 852
Flags: MW
LayerCount: 2
Back
SplineSet
0 -118 m 5,0,-1
 500 -118 l 1029,1,2
  Spiro
    0 -118 {
    500 -118 v
    0 0 z
  EndSpiro
  Named: "GBottom-500-500"
0 500 m 5,0,-1
 500 500 l 1029,1,2
  Spiro
    0 500 {
    500 500 v
    0 0 z
  EndSpiro
  Named: "G-500/500"
0 236 m 5,0,-1
 500 236 l 1029,1,2
  Spiro
    0 236 {
    500 236 v
    0 0 z
  EndSpiro
  Named: "G1GoldSplit"
0 309 m 5,0,-1
 500 309 l 1029,1,2
  Spiro
    0 309 {
    500 309 v
    0 0 z
  EndSpiro
  Named: "G1Center"
368 618 m 5,5,-1
 368 -382 l 1029
  Spiro
    368 618 {
    368 -382 v
    0 0 z
  EndSpiro
  Named: "GCEnd"
132 618 m 5,5,-1
 132 -382 l 1029
  Spiro
    132 618 {
    132 -382 v
    0 0 z
  EndSpiro
  Named: "GCStart"
0 73 m 5,0,-1
 500 73 l 1029,1,2
  Spiro
    0 73 {
    500 73 v
    0 0 z
  EndSpiro
  Named: "G2Center"
0 -236 m 5,0,-1
 500 -236 l 1029,1,2
  Spiro
    0 -236 {
    500 -236 v
    0 0 z
  EndSpiro
  Named: "G2Bottom"
0 382 m 5,0,-1
 500 382 l 1029,1,2
  Spiro
    0 382 {
    500 382 v
    0 0 z
  EndSpiro
  Named: "G2Top"
59 618 m 5,3,-1
 59 -382 l 1029
  Spiro
    59 618 {
    59 -382 v
    0 0 z
  EndSpiro
  Named: "GLeft"
441 618 m 5,5,-1
 441 -382 l 1029
  Spiro
    441 618 {
    441 -382 v
    0 0 z
  EndSpiro
  Named: "GRight"
250 618 m 5,0,-1
 250 -382 l 1029
  Spiro
    250 618 {
    250 -382 v
    0 0 z
  EndSpiro
0 309 m 5,0,-1
 500 309 l 1029,1,2
  Spiro
    0 309 {
    500 309 v
    0 0 z
  EndSpiro
  Named: "G1Center"
295 618 m 5,3,-1
 295 -382 l 1029
  Spiro
    295 618 {
    295 -382 v
    0 0 z
  EndSpiro
  Named: "GLR"
205 618 m 5,5,-1
 205 -382 l 1029
  Spiro
    205 618 {
    205 -382 v
    0 0 z
  EndSpiro
  Named: "GRR"
0 118 m 5,0,-1
 500 118 l 1029,1,2
  Spiro
    0 118 {
    500 118 v
    0 0 z
  EndSpiro
  Named: "EMSquareCenter"
EndSplineSet
Fore
SplineSet
441 595 m 256,0,1
 441 572 441 572 413 571 c 0,2,3
 319 567 319 567 261 530 c 0,4,5
 194 487 194 487 120 365 c 1,6,7
 191 434 191 434 247 434 c 0,8,9
 328 434 328 434 384 370 c 0,10,11
 441 305 441 305 441 214 c 0,12,13
 441 129 441 129 385 64 c 0,14,15
 329 0 329 0 249 0 c 256,16,17
 170 0 170 0 114.5 63.5 c 128,-1,18
 59 127 59 127 59 217 c 0,19,20
 59 384 59 384 162.5 501 c 128,-1,21
 266 618 266 618 413 618 c 0,22,23
 441 618 441 618 441 595 c 256,0,1
395 217 m 256,24,25
 395 288 395 288 352.5 338 c 128,-1,26
 310 388 310 388 249 388 c 256,27,28
 190 388 190 388 147 338 c 0,29,30
 105 288 105 288 105 217 c 256,31,32
 105 146 105 146 147 96 c 128,-1,33
 189 46 189 46 249 46 c 256,34,35
 308 46 308 46 351.5 96 c 128,-1,36
 395 146 395 146 395 217 c 256,24,25
EndSplineSet
Validated: 1
EndChar

StartChar: seven
Encoding: 279 55 23
Width: 500
VWidth: 852
Flags: MW
LayerCount: 2
Back
SplineSet
0 -118 m 5,0,-1
 500 -118 l 1029,1,2
  Spiro
    0 -118 {
    500 -118 v
    0 0 z
  EndSpiro
  Named: "GBottom-500-500"
0 500 m 5,0,-1
 500 500 l 1029,1,2
  Spiro
    0 500 {
    500 500 v
    0 0 z
  EndSpiro
  Named: "G-500/500"
0 236 m 5,0,-1
 500 236 l 1029,1,2
  Spiro
    0 236 {
    500 236 v
    0 0 z
  EndSpiro
  Named: "G1GoldSplit"
0 309 m 5,0,-1
 500 309 l 1029,1,2
  Spiro
    0 309 {
    500 309 v
    0 0 z
  EndSpiro
  Named: "G1Center"
368 618 m 5,5,-1
 368 -382 l 1029
  Spiro
    368 618 {
    368 -382 v
    0 0 z
  EndSpiro
  Named: "GCEnd"
132 618 m 5,5,-1
 132 -382 l 1029
  Spiro
    132 618 {
    132 -382 v
    0 0 z
  EndSpiro
  Named: "GCStart"
0 73 m 5,0,-1
 500 73 l 1029,1,2
  Spiro
    0 73 {
    500 73 v
    0 0 z
  EndSpiro
  Named: "G2Center"
0 -236 m 5,0,-1
 500 -236 l 1029,1,2
  Spiro
    0 -236 {
    500 -236 v
    0 0 z
  EndSpiro
  Named: "G2Bottom"
0 382 m 5,0,-1
 500 382 l 1029,1,2
  Spiro
    0 382 {
    500 382 v
    0 0 z
  EndSpiro
  Named: "G2Top"
59 618 m 5,3,-1
 59 -382 l 1029
  Spiro
    59 618 {
    59 -382 v
    0 0 z
  EndSpiro
  Named: "GLeft"
441 618 m 5,5,-1
 441 -382 l 1029
  Spiro
    441 618 {
    441 -382 v
    0 0 z
  EndSpiro
  Named: "GRight"
250 618 m 5,0,-1
 250 -382 l 1029
  Spiro
    250 618 {
    250 -382 v
    0 0 z
  EndSpiro
0 309 m 5,0,-1
 500 309 l 1029,1,2
  Spiro
    0 309 {
    500 309 v
    0 0 z
  EndSpiro
  Named: "G1Center"
295 618 m 5,3,-1
 295 -382 l 1029
  Spiro
    295 618 {
    295 -382 v
    0 0 z
  EndSpiro
  Named: "GLR"
205 618 m 5,5,-1
 205 -382 l 1029
  Spiro
    205 618 {
    205 -382 v
    0 0 z
  EndSpiro
  Named: "GRR"
0 118 m 5,0,-1
 500 118 l 1029,1,2
  Spiro
    0 118 {
    500 118 v
    0 0 z
  EndSpiro
  Named: "EMSquareCenter"
EndSplineSet
Fore
SplineSet
441 479 m 0,0,1
 441 465 441 465 436 454 c 2,2,-1
 173 -101 l 2,3,4
 165 -118 165 -118 150 -118 c 0,5,6
 141 -118 141 -118 130 -112 c 128,-1,7
 119 -106 119 -106 119 -93 c 0,8,9
 119 -84 119 -84 125 -72 c 2,10,-1
 385 454 l 1,11,-1
 85 454 l 2,12,13
 59 454 59 454 59 477 c 128,-1,14
 59 500 59 500 85 500 c 2,15,-1
 414 500 l 2,16,17
 441 500 441 500 441 479 c 0,0,1
EndSplineSet
Validated: 1
EndChar

StartChar: eight
Encoding: 280 56 24
Width: 500
VWidth: 852
Flags: MW
LayerCount: 2
Back
SplineSet
0 -118 m 5,0,-1
 500 -118 l 1029,1,2
  Spiro
    0 -118 {
    500 -118 v
    0 0 z
  EndSpiro
  Named: "GBottom-500-500"
0 500 m 5,0,-1
 500 500 l 1029,1,2
  Spiro
    0 500 {
    500 500 v
    0 0 z
  EndSpiro
  Named: "G-500/500"
0 236 m 5,0,-1
 500 236 l 1029,1,2
  Spiro
    0 236 {
    500 236 v
    0 0 z
  EndSpiro
  Named: "G1GoldSplit"
0 309 m 5,0,-1
 500 309 l 1029,1,2
  Spiro
    0 309 {
    500 309 v
    0 0 z
  EndSpiro
  Named: "G1Center"
368 618 m 5,5,-1
 368 -382 l 1029
  Spiro
    368 618 {
    368 -382 v
    0 0 z
  EndSpiro
  Named: "GCEnd"
132 618 m 5,5,-1
 132 -382 l 1029
  Spiro
    132 618 {
    132 -382 v
    0 0 z
  EndSpiro
  Named: "GCStart"
0 73 m 5,0,-1
 500 73 l 1029,1,2
  Spiro
    0 73 {
    500 73 v
    0 0 z
  EndSpiro
  Named: "G2Center"
0 -236 m 5,0,-1
 500 -236 l 1029,1,2
  Spiro
    0 -236 {
    500 -236 v
    0 0 z
  EndSpiro
  Named: "G2Bottom"
0 382 m 5,0,-1
 500 382 l 1029,1,2
  Spiro
    0 382 {
    500 382 v
    0 0 z
  EndSpiro
  Named: "G2Top"
59 618 m 5,3,-1
 59 -382 l 1029
  Spiro
    59 618 {
    59 -382 v
    0 0 z
  EndSpiro
  Named: "GLeft"
441 618 m 5,5,-1
 441 -382 l 1029
  Spiro
    441 618 {
    441 -382 v
    0 0 z
  EndSpiro
  Named: "GRight"
250 618 m 5,0,-1
 250 -382 l 1029
  Spiro
    250 618 {
    250 -382 v
    0 0 z
  EndSpiro
0 309 m 5,0,-1
 500 309 l 1029,1,2
  Spiro
    0 309 {
    500 309 v
    0 0 z
  EndSpiro
  Named: "G1Center"
295 618 m 5,3,-1
 295 -382 l 1029
  Spiro
    295 618 {
    295 -382 v
    0 0 z
  EndSpiro
  Named: "GLR"
205 618 m 5,5,-1
 205 -382 l 1029
  Spiro
    205 618 {
    205 -382 v
    0 0 z
  EndSpiro
  Named: "GRR"
0 118 m 5,0,-1
 500 118 l 1029,1,2
  Spiro
    0 118 {
    500 118 v
    0 0 z
  EndSpiro
  Named: "EMSquareCenter"
EndSplineSet
Fore
SplineSet
441 186 m 0,0,1
 441 109 441 109 385 54.5 c 128,-1,2
 329 0 329 0 250 0 c 256,3,4
 171 0 171 0 115 54.5 c 128,-1,5
 59 109 59 109 59 186 c 0,6,7
 59 289 59 289 150 344 c 1,8,9
 90 390 90 390 90 462 c 0,10,11
 90 528 90 528 136.5 573 c 128,-1,12
 183 618 183 618 250 618 c 256,13,14
 316 618 316 618 363 573 c 128,-1,15
 410 528 410 528 410 464 c 0,16,17
 410 390 410 390 350 344 c 1,18,19
 441 289 441 289 441 186 c 0,0,1
363 464 m 256,20,21
 363 508 363 508 329 540.5 c 128,-1,22
 295 573 295 573 250 573 c 256,23,24
 204 573 204 573 170 540.5 c 128,-1,25
 136 508 136 508 136 464 c 256,26,27
 136 420 136 420 169 388 c 128,-1,28
 202 356 202 356 250 356 c 256,29,30
 296 356 296 356 329.5 388 c 128,-1,31
 363 420 363 420 363 464 c 256,20,21
394 186 m 256,32,33
 394 244 394 244 352 285 c 128,-1,34
 310 326 310 326 250 326 c 256,35,36
 190 326 190 326 147.5 285.5 c 128,-1,37
 105 245 105 245 105 186 c 256,38,39
 105 128 105 128 147.5 87 c 128,-1,40
 190 46 190 46 250 46 c 256,41,42
 310 46 310 46 352 87 c 128,-1,43
 394 128 394 128 394 186 c 256,32,33
EndSplineSet
Validated: 1
EndChar

StartChar: nine
Encoding: 281 57 25
Width: 500
VWidth: 852
Flags: MW
LayerCount: 2
Back
SplineSet
0 -118 m 5,0,-1
 500 -118 l 1029,1,2
  Spiro
    0 -118 {
    500 -118 v
    0 0 z
  EndSpiro
  Named: "GBottom-500-500"
0 500 m 5,0,-1
 500 500 l 1029,1,2
  Spiro
    0 500 {
    500 500 v
    0 0 z
  EndSpiro
  Named: "G-500/500"
0 236 m 5,0,-1
 500 236 l 1029,1,2
  Spiro
    0 236 {
    500 236 v
    0 0 z
  EndSpiro
  Named: "G1GoldSplit"
0 309 m 5,0,-1
 500 309 l 1029,1,2
  Spiro
    0 309 {
    500 309 v
    0 0 z
  EndSpiro
  Named: "G1Center"
368 618 m 5,5,-1
 368 -382 l 1029
  Spiro
    368 618 {
    368 -382 v
    0 0 z
  EndSpiro
  Named: "GCEnd"
132 618 m 5,5,-1
 132 -382 l 1029
  Spiro
    132 618 {
    132 -382 v
    0 0 z
  EndSpiro
  Named: "GCStart"
0 73 m 5,0,-1
 500 73 l 1029,1,2
  Spiro
    0 73 {
    500 73 v
    0 0 z
  EndSpiro
  Named: "G2Center"
0 -236 m 5,0,-1
 500 -236 l 1029,1,2
  Spiro
    0 -236 {
    500 -236 v
    0 0 z
  EndSpiro
  Named: "G2Bottom"
0 382 m 5,0,-1
 500 382 l 1029,1,2
  Spiro
    0 382 {
    500 382 v
    0 0 z
  EndSpiro
  Named: "G2Top"
59 618 m 5,3,-1
 59 -382 l 1029
  Spiro
    59 618 {
    59 -382 v
    0 0 z
  EndSpiro
  Named: "GLeft"
441 618 m 5,5,-1
 441 -382 l 1029
  Spiro
    441 618 {
    441 -382 v
    0 0 z
  EndSpiro
  Named: "GRight"
250 618 m 5,0,-1
 250 -382 l 1029
  Spiro
    250 618 {
    250 -382 v
    0 0 z
  EndSpiro
0 309 m 5,0,-1
 500 309 l 1029,1,2
  Spiro
    0 309 {
    500 309 v
    0 0 z
  EndSpiro
  Named: "G1Center"
295 618 m 5,3,-1
 295 -382 l 1029
  Spiro
    295 618 {
    295 -382 v
    0 0 z
  EndSpiro
  Named: "GLR"
205 618 m 5,5,-1
 205 -382 l 1029
  Spiro
    205 618 {
    205 -382 v
    0 0 z
  EndSpiro
  Named: "GRR"
0 118 m 5,0,-1
 500 118 l 1029,1,2
  Spiro
    0 118 {
    500 118 v
    0 0 z
  EndSpiro
  Named: "EMSquareCenter"
EndSplineSet
Fore
SplineSet
59 -97 m 256,0,1
 59 -74 59 -74 87 -73 c 0,2,3
 181 -69 181 -69 239 -32 c 0,4,5
 306 11 306 11 380 133 c 1,6,7
 309 64 309 64 253 64 c 0,8,9
 172 64 172 64 116 128 c 0,10,11
 59 193 59 193 59 284 c 0,12,13
 59 369 59 369 115 434 c 0,14,15
 171 498 171 498 251 498 c 256,16,17
 330 498 330 498 385.5 434.5 c 128,-1,18
 441 371 441 371 441 281 c 0,19,20
 441 114 441 114 337.5 -3 c 128,-1,21
 234 -120 234 -120 87 -120 c 0,22,23
 59 -120 59 -120 59 -97 c 256,0,1
105 281 m 256,24,25
 105 210 105 210 147.5 160 c 128,-1,26
 190 110 190 110 251 110 c 256,27,28
 310 110 310 110 353 160 c 0,29,30
 395 210 395 210 395 281 c 256,31,32
 395 352 395 352 353 402 c 128,-1,33
 311 452 311 452 251 452 c 256,34,35
 192 452 192 452 148.5 402 c 128,-1,36
 105 352 105 352 105 281 c 256,24,25
EndSplineSet
Validated: 1
EndChar

StartChar: colon
Encoding: 282 58 26
Width: 500
VWidth: 852
Flags: MW
LayerCount: 2
Back
SplineSet
368 618 m 5,5,-1
 368 -382 l 1029
  Named: "GCEnd"
132 618 m 5,5,-1
 132 -382 l 1029
  Named: "GCStart"
0 73 m 5,0,-1
 500 73 l 1029,1,2
  Named: "G2Center"
0 -236 m 5,0,-1
 500 -236 l 1029,1,2
  Named: "G1Bottom"
0 386 m 5,0,-1
 500 386 l 1029,1,2
  Named: "G1Top"
59 618 m 5,3,-1
 59 -382 l 1029
  Named: "GLeft"
441 618 m 5,5,-1
 441 -382 l 1029
  Named: "GRight"
250 618 m 5,0,-1
 250 -382 l 1029
0 309 m 5,0,-1
 500 309 l 1029,1,2
  Named: "G1Center"
295 618 m 5,3,-1
 295 -382 l 1029
  Named: "GLR"
205 618 m 5,5,-1
 205 -382 l 1029
  Named: "GRR"
0 118 m 5,0,-1
 500 118 l 1029,1,2
  Named: "EMSquareCenter"
EndSplineSet
Fore
SplineSet
323 314 m 256,0,1
 323 284 323 284 301.5 263 c 128,-1,2
 280 242 280 242 251 242 c 256,3,4
 221 242 221 242 199 263 c 128,-1,5
 177 284 177 284 177 314 c 256,6,7
 177 344 177 344 199 365 c 128,-1,8
 221 386 221 386 251 386 c 256,9,10
 281 386 281 386 302 365 c 128,-1,11
 323 344 323 344 323 314 c 256,0,1
323 -72 m 256,12,13
 323 -102 323 -102 301.5 -123 c 128,-1,14
 280 -144 280 -144 251 -144 c 256,15,16
 221 -144 221 -144 199 -123 c 128,-1,17
 177 -102 177 -102 177 -72 c 256,18,19
 177 -42 177 -42 199 -21 c 128,-1,20
 221 0 221 0 251 0 c 256,21,22
 281 0 281 0 302 -21 c 128,-1,23
 323 -42 323 -42 323 -72 c 256,12,13
EndSplineSet
Validated: 1
EndChar

StartChar: semicolon
Encoding: 283 59 27
Width: 500
VWidth: 852
Flags: MW
LayerCount: 2
Back
SplineSet
368 618 m 5,5,-1
 368 -382 l 1029
  Named: "GCEnd"
132 618 m 5,5,-1
 132 -382 l 1029
  Named: "GCStart"
0 73 m 5,0,-1
 500 73 l 1029,1,2
  Named: "G2Center"
0 -236 m 5,0,-1
 500 -236 l 1029,1,2
  Named: "G1Bottom"
0 386 m 5,0,-1
 500 386 l 1029,1,2
  Named: "G1Top"
59 618 m 5,3,-1
 59 -382 l 1029
  Named: "GLeft"
441 618 m 5,5,-1
 441 -382 l 1029
  Named: "GRight"
250 618 m 5,0,-1
 250 -382 l 1029
0 309 m 5,0,-1
 500 309 l 1029,1,2
  Named: "G1Center"
295 618 m 5,3,-1
 295 -382 l 1029
  Named: "GLR"
205 618 m 5,5,-1
 205 -382 l 1029
  Named: "GRR"
0 118 m 5,0,-1
 500 118 l 1029,1,2
  Named: "EMSquareCenter"
EndSplineSet
Fore
SplineSet
441 320 m 256,0,1
 441 290 441 290 419 269 c 128,-1,2
 397 248 397 248 368 248 c 256,3,4
 338 248 338 248 316 269 c 128,-1,5
 294 290 294 290 294 320 c 256,6,7
 294 350 294 350 316 371 c 128,-1,8
 338 392 338 392 368 392 c 256,9,10
 398 392 398 392 419.5 371 c 128,-1,11
 441 350 441 350 441 320 c 256,0,1
132 -236 m 5,12,13
 59 -236 59 -236 59 -211 c 4,14,15
 59 -181 59 -181 132 -180 c 4,16,17
 345 -178 345 -178 345 93 c 4,18,19
 345 118 345 118 368 118 c 260,20,21
 391 118 391 118 391 93 c 4,22,23
 390 -236 390 -236 132 -236 c 5,12,13
EndSplineSet
Validated: 1
EndChar

StartChar: less
Encoding: 284 60 28
Width: 500
VWidth: 852
Flags: W
LayerCount: 2
Back
SplineSet
368 618 m 1,5,-1
 368 -382 l 1025
  Named: "GCEnd"
132 618 m 1,5,-1
 132 -382 l 1025
  Named: "GCStart"
0 73 m 1,0,-1
 500 73 l 1025,1,2
  Named: "G2Center"
0 -236 m 1,0,-1
 500 -236 l 1025,1,2
  Named: "G2Bottom"
0 382 m 1,0,-1
 500 382 l 1025,1,2
  Named: "G2Top"
59 618 m 1,3,-1
 59 -382 l 1025
  Named: "GLeft"
441 618 m 1,5,-1
 441 -382 l 1025
  Named: "GRight"
250 618 m 1,0,-1
 250 -382 l 1025
0 309 m 1,0,-1
 500 309 l 1025,1,2
  Named: "G1Center"
295 618 m 1,3,-1
 295 -382 l 1025
  Named: "GLR"
205 618 m 1,5,-1
 205 -382 l 1025
  Named: "GRR"
0 118 m 1,0,-1
 500 118 l 1025,1,2
  Named: "EMSquareCenter"
EndSplineSet
Fore
SplineSet
420 500 m 0,0,1
 441 500 441 500 441 478 c 0,2,3
 441 462 441 462 429 456 c 2,4,-1
 134 309 l 1,5,-1
 429 162 l 2,6,7
 441 156 441 156 441 144 c 0,8,9
 441 129 441 129 435 124 c 0,10,11
 428 118 428 118 421 118 c 0,12,13
 413 118 413 118 409 120 c 2,14,-1
 76 286 l 2,15,16
 59 294 59 294 59 309 c 128,-1,17
 59 324 59 324 76 332 c 2,18,-1
 409 498 l 2,19,20
 413 500 413 500 420 500 c 0,0,1
EndSplineSet
Validated: 1
EndChar

StartChar: equal
Encoding: 285 61 29
Width: 500
VWidth: 852
Flags: MW
LayerCount: 2
Back
SplineSet
0 236 m 5,0,-1
 500 236 l 1029,1,2
  Named: "G1GoldSplit"
0 309 m 5,0,-1
 500 309 l 1029,1,2
  Named: "G1Center"
368 618 m 5,5,-1
 368 -382 l 1029
  Named: "GCEnd"
132 618 m 5,5,-1
 132 -382 l 1029
  Named: "GCStart"
0 73 m 5,0,-1
 500 73 l 1029,1,2
  Named: "G2Center"
0 -236 m 5,0,-1
 500 -236 l 1029,1,2
  Named: "G2Bottom"
0 382 m 5,0,-1
 500 382 l 1029,1,2
  Named: "G2Top"
59 618 m 5,3,-1
 59 -382 l 1029
  Named: "GLeft"
441 618 m 5,5,-1
 441 -382 l 1029
  Named: "GRight"
250 618 m 5,0,-1
 250 -382 l 1029
0 309 m 5,0,-1
 500 309 l 1029,1,2
  Named: "G1Center"
295 618 m 5,3,-1
 295 -382 l 1029
  Named: "GLR"
205 618 m 5,5,-1
 205 -382 l 1029
  Named: "GRR"
0 118 m 5,0,-1
 500 118 l 1029,1,2
  Named: "EMSquareCenter"
EndSplineSet
Fore
SplineSet
441 213 m 256,0,1
 441 190 441 190 405 190 c 2,2,-1
 95 190 l 2,3,4
 59 190 59 190 59 213 c 128,-1,5
 59 236 59 236 95 236 c 0,6,7
 252 236 252 236 408 236 c 0,8,9
 441 236 441 236 441 213 c 256,0,1
441 405 m 256,10,11
 441 382 441 382 405 382 c 2,12,-1
 95 382 l 2,13,14
 59 382 59 382 59 405 c 128,-1,15
 59 428 59 428 95 428 c 0,16,17
 252 428 252 428 408 428 c 0,18,19
 441 428 441 428 441 405 c 256,10,11
EndSplineSet
Validated: 1
EndChar

StartChar: greater
Encoding: 286 62 30
Width: 500
VWidth: 852
Flags: W
LayerCount: 2
Back
SplineSet
368 618 m 1,5,-1
 368 -382 l 1025
  Named: "GCEnd"
132 618 m 1,5,-1
 132 -382 l 1025
  Named: "GCStart"
0 73 m 1,0,-1
 500 73 l 1025,1,2
  Named: "G2Center"
0 -236 m 1,0,-1
 500 -236 l 1025,1,2
  Named: "G2Bottom"
0 382 m 1,0,-1
 500 382 l 1025,1,2
  Named: "G2Top"
59 618 m 1,3,-1
 59 -382 l 1025
  Named: "GLeft"
441 618 m 1,5,-1
 441 -382 l 1025
  Named: "GRight"
250 618 m 1,0,-1
 250 -382 l 1025
0 309 m 1,0,-1
 500 309 l 1025,1,2
  Named: "G1Center"
295 618 m 1,3,-1
 295 -382 l 1025
  Named: "GLR"
205 618 m 1,5,-1
 205 -382 l 1025
  Named: "GRR"
0 118 m 1,0,-1
 500 118 l 1025,1,2
  Named: "EMSquareCenter"
EndSplineSet
Fore
SplineSet
80 500 m 0,0,1
 87 500 87 500 91 498 c 2,2,-1
 424 332 l 2,3,4
 441 324 441 324 441 309 c 132,-1,5
 441 294 441 294 424 286 c 2,6,-1
 91 120 l 2,7,8
 87 118 87 118 79 118 c 0,9,10
 72 118 72 118 65 124 c 0,11,12
 59 129 59 129 59 144 c 0,13,14
 59 156 59 156 71 162 c 2,15,-1
 366 309 l 1,16,-1
 71 456 l 2,17,18
 59 462 59 462 59 478 c 0,19,20
 59 500 59 500 80 500 c 0,0,1
EndSplineSet
Validated: 1
EndChar

StartChar: question
Encoding: 287 63 31
Width: 500
VWidth: 852
Flags: MW
LayerCount: 2
Back
SplineSet
0 236 m 1,0,-1
 500 236 l 1025,1,2
  Spiro
    0 236 {
    500 236 v
    0 0 z
  EndSpiro
  Named: "G1GoldSplit"
0 309 m 1,0,-1
 500 309 l 1025,1,2
  Spiro
    0 309 {
    500 309 v
    0 0 z
  EndSpiro
  Named: "G1Center"
368 618 m 1,5,-1
 368 -382 l 1025
  Spiro
    368 618 {
    368 -382 v
    0 0 z
  EndSpiro
  Named: "GCEnd"
132 618 m 1,5,-1
 132 -382 l 1025
  Spiro
    132 618 {
    132 -382 v
    0 0 z
  EndSpiro
  Named: "GCStart"
0 73 m 1,0,-1
 500 73 l 1025,1,2
  Spiro
    0 73 {
    500 73 v
    0 0 z
  EndSpiro
  Named: "G2Center"
0 -236 m 1,0,-1
 500 -236 l 1025,1,2
  Spiro
    0 -236 {
    500 -236 v
    0 0 z
  EndSpiro
  Named: "G2Bottom"
0 382 m 1,0,-1
 500 382 l 1025,1,2
  Spiro
    0 382 {
    500 382 v
    0 0 z
  EndSpiro
  Named: "G2Top"
59 618 m 1,3,-1
 59 -382 l 1025
  Spiro
    59 618 {
    59 -382 v
    0 0 z
  EndSpiro
  Named: "GLeft"
441 618 m 1,5,-1
 441 -382 l 1025
  Spiro
    441 618 {
    441 -382 v
    0 0 z
  EndSpiro
  Named: "GRight"
250 618 m 1,0,-1
 250 -382 l 1025
  Spiro
    250 618 {
    250 -382 v
    0 0 z
  EndSpiro
0 309 m 1,0,-1
 500 309 l 1025,1,2
  Spiro
    0 309 {
    500 309 v
    0 0 z
  EndSpiro
  Named: "G1Center"
295 618 m 1,3,-1
 295 -382 l 1025
  Spiro
    295 618 {
    295 -382 v
    0 0 z
  EndSpiro
  Named: "GLR"
205 618 m 1,5,-1
 205 -382 l 1025
  Spiro
    205 618 {
    205 -382 v
    0 0 z
  EndSpiro
  Named: "GRR"
0 118 m 1,0,-1
 500 118 l 1025,1,2
  Spiro
    0 118 {
    500 118 v
    0 0 z
  EndSpiro
  Named: "EMSquareCenter"
EndSplineSet
Fore
SplineSet
178 173 m 0,0,1
 178 119 178 119 257 118 c 0,2,3
 286 118 286 118 295 119 c 0,4,5
 315 119 315 119 315 101 c 0,6,7
 315 73 315 73 249 73 c 0,8,9
 195 73 195 73 163 104 c 0,10,11
 132 134 132 134 132 173 c 0,12,13
 132 222 132 222 162 245 c 0,14,15
 193 267 193 267 248 279 c 0,16,17
 300 290 300 290 347 326 c 0,18,19
 395 363 395 363 395 422 c 256,20,21
 395 494 395 494 346 538 c 0,22,23
 308 571 308 571 248 572 c 256,24,25
 193 572 193 572 151.5 538 c 128,-1,26
 110 504 110 504 106 422 c 0,27,28
 104 382 104 382 82 382 c 256,29,30
 59 382 59 382 59 422 c 0,31,32
 59 520 59 520 119 569 c 128,-1,33
 179 618 179 618 248 618 c 256,34,35
 250 618 250 618 251 618 c 0,36,37
 325 618 325 618 378 572 c 0,38,39
 441 517 441 517 441 422 c 256,40,41
 441 341 441 341 373 288 c 0,42,43
 324 250 324 250 249 236 c 0,44,45
 178 223 178 223 178 173 c 0,0,1
322 -72 m 128,-1,47
 322 -88 322 -88 317 -100 c 128,-1,48
 312 -112 312 -112 300 -123 c 128,-1,49
 288 -134 288 -134 277 -139 c 0,50,51
 265 -144 265 -144 250 -144 c 128,-1,52
 235 -144 235 -144 222 -139 c 128,-1,53
 209 -134 209 -134 198 -123 c 0,54,55
 188 -113 188 -113 182 -100 c 128,-1,56
 176 -87 176 -87 176 -72 c 128,-1,57
 176 -57 176 -57 182 -44 c 128,-1,58
 188 -31 188 -31 198 -21 c 0,59,60
 209 -10 209 -10 222 -5 c 0,61,62
 234 0 234 0 250 0 c 128,-1,63
 266 0 266 0 278 -5 c 128,-1,64
 290 -10 290 -10 301 -21 c 128,-1,65
 312 -32 312 -32 317 -44 c 128,-1,46
 322 -56 322 -56 322 -72 c 128,-1,47
EndSplineSet
Validated: 1
EndChar

StartChar: at
Encoding: 288 64 32
Width: 500
VWidth: 852
Flags: MW
LayerCount: 2
Back
SplineSet
368 618 m 5,5,-1
 368 -382 l 1029
  Named: "GCEnd"
132 618 m 5,5,-1
 132 -382 l 1029
  Named: "GCStart"
0 73 m 5,0,-1
 500 73 l 1029,1,2
  Named: "G2Center"
0 -236 m 5,0,-1
 500 -236 l 1029,1,2
  Named: "G2Bottom"
0 382 m 5,0,-1
 500 382 l 1029,1,2
  Named: "G2Top"
59 618 m 5,3,-1
 59 -382 l 1029
  Named: "GLeft"
441 618 m 5,5,-1
 441 -382 l 1029
  Named: "GRight"
250 618 m 5,0,-1
 250 -382 l 1029
0 309 m 5,0,-1
 500 309 l 1029,1,2
  Named: "G1Center"
295 618 m 5,3,-1
 295 -382 l 1029
  Named: "GLR"
205 618 m 5,5,-1
 205 -382 l 1029
  Named: "GRR"
0 118 m 5,0,-1
 500 118 l 1029,1,2
  Named: "EMSquareCenter"
EndSplineSet
Fore
SplineSet
397 220 m 0,0,1
 347 137 347 137 274 137 c 0,2,3
 221 137 221 137 188 191 c 0,4,5
 155 243 155 243 155 303 c 256,6,7
 155 368 155 368 188 418 c 0,8,9
 222 467 222 467 268.5 467 c 128,-1,10
 315 467 315 467 347.5 426.5 c 128,-1,11
 380 386 380 386 385 319 c 1,12,13
 393 336 393 336 398 382 c 0,14,15
 399 391 399 391 399 405 c 0,16,17
 397 464 397 464 365 515 c 0,18,19
 329 572 329 572 274 572 c 0,20,21
 217 572 217 572 168 515 c 0,22,23
 105 442 105 442 105 303 c 256,24,25
 105 177 105 177 170 105 c 0,26,27
 222 46 222 46 272 46 c 128,-1,28
 322 46 322 46 366 104 c 0,29,30
 372 112 372 112 383.5 127 c 128,-1,31
 395 142 395 142 407 142 c 128,-1,32
 419 142 419 142 426.5 132.5 c 128,-1,33
 434 123 434 123 434 110 c 128,-1,34
 434 97 434 97 430 91 c 0,35,36
 404 52 404 52 364 26 c 128,-1,37
 324 0 324 0 274 0 c 0,38,39
 186 0 186 0 114 100 c 0,40,41
 59 177 59 177 59 303 c 0,42,43
 59 426 59 426 114 513 c 0,44,45
 181 618 181 618 274 618 c 0,46,47
 349 618 349 618 395 542 c 0,48,49
 441 463 441 463 441 382 c 0,50,51
 441 291 441 291 397 220 c 0,0,1
331 225 m 0,52,53
 351 262 351 262 351 302 c 0,54,55
 351 343 351 343 331 382 c 128,-1,57
 311 421 311 421 278 421 c 0,58,59
 238 421 238 421 220 382 c 0,60,61
 200 339 200 339 200 303 c 0,62,63
 200 259 200 259 219 225 c 0,64,65
 242 183 242 183 276 183 c 256,66,67
 308 183 308 183 331 225 c 0,52,53
EndSplineSet
Validated: 1
EndChar

StartChar: A
Encoding: 289 65 33
Width: 500
VWidth: 852
Flags: MW
LayerCount: 2
Back
SplineSet
0 236 m 5,0,-1
 500 236 l 1029,1,2
  Named: "G1GoldSplit"
0 309 m 5,0,-1
 500 309 l 1029,1,2
  Named: "G1Center"
368 618 m 5,5,-1
 368 -382 l 1029
  Named: "GCEnd"
132 618 m 5,5,-1
 132 -382 l 1029
  Named: "GCStart"
0 73 m 5,0,-1
 500 73 l 1029,1,2
  Named: "G2Center"
0 -236 m 5,0,-1
 500 -236 l 1029,1,2
  Named: "G2Bottom"
0 382 m 5,0,-1
 500 382 l 1029,1,2
  Named: "G2Top"
59 618 m 5,3,-1
 59 -382 l 1029
  Named: "GLeft"
441 618 m 5,5,-1
 441 -382 l 1029
  Named: "GRight"
250 618 m 5,0,-1
 250 -382 l 1029
0 309 m 5,0,-1
 500 309 l 1029,1,2
  Named: "G1Center"
295 618 m 5,3,-1
 295 -382 l 1029
  Named: "GLR"
205 618 m 5,5,-1
 205 -382 l 1029
  Named: "GRR"
0 118 m 5,0,-1
 500 118 l 1029,1,2
  Named: "EMSquareCenter"
EndSplineSet
Fore
SplineSet
441 27 m 0,0,1
 441 0 441 0 424 0 c 0,2,3
 403 0 403 0 397 19 c 2,4,-1
 347 188 l 1,5,-1
 155 188 l 1,6,-1
 103 25 l 2,7,8
 95 0 95 0 72 0 c 0,9,10
 59 0 59 0 59 27 c 0,11,12
 59 31 59 31 61 38 c 2,13,-1
 223 590 l 2,14,15
 231 618 231 618 250 618 c 256,16,17
 268 618 268 618 276 590 c 2,18,-1
 440 38 l 2,19,20
 441 35 441 35 441 27 c 0,0,1
333 234 m 1,21,-1
 250 517 l 1,22,-1
 170 234 l 1,23,-1
 333 234 l 1,21,-1
EndSplineSet
Validated: 1
EndChar

StartChar: B
Encoding: 290 66 34
Width: 500
VWidth: 852
Flags: MW
LayerCount: 2
Back
SplineSet
0 236 m 5,0,-1
 500 236 l 1029,1,2
  Named: "G1GoldSplit"
0 309 m 5,0,-1
 500 309 l 1029,1,2
  Named: "G1Center"
368 618 m 5,5,-1
 368 -382 l 1029
  Named: "GCEnd"
132 618 m 5,5,-1
 132 -382 l 1029
  Named: "GCStart"
0 73 m 5,0,-1
 500 73 l 1029,1,2
  Named: "G2Center"
0 -236 m 5,0,-1
 500 -236 l 1029,1,2
  Named: "G2Bottom"
0 382 m 5,0,-1
 500 382 l 1029,1,2
  Named: "G2Top"
59 618 m 5,3,-1
 59 -382 l 1029
  Named: "GLeft"
441 618 m 5,5,-1
 441 -382 l 1029
  Named: "GRight"
250 618 m 5,0,-1
 250 -382 l 1029
0 309 m 5,0,-1
 500 309 l 1029,1,2
  Named: "G1Center"
295 618 m 5,3,-1
 295 -382 l 1029
  Named: "GLR"
205 618 m 5,5,-1
 205 -382 l 1029
  Named: "GRR"
0 118 m 5,0,-1
 500 118 l 1029,1,2
  Named: "EMSquareCenter"
EndSplineSet
Fore
SplineSet
441 192 m 0,0,1
 441 114 441 114 389 57 c 128,-1,2
 337 0 337 0 260 0 c 2,3,-1
 82 0 l 2,4,5
 72 0 72 0 65 7 c 0,6,7
 59 13 59 13 59 27 c 2,8,-1
 59 595 l 2,9,10
 59 606 59 606 65 611 c 0,11,12
 73 618 73 618 82 618 c 2,13,-1
 260 618 l 2,14,15
 324 618 324 618 368 583 c 0,16,17
 411 550 411 550 411 482 c 0,18,19
 411 408 411 408 340 359 c 1,20,21
 441 292 441 292 441 192 c 0,0,1
365 485 m 256,22,23
 364 529 364 529 337 549 c 0,24,25
 306 572 306 572 260 572 c 2,26,-1
 105 572 l 1,27,-1
 105 382 l 1,28,-1
 260 382 l 2,29,30
 302 382 302 382 326 398 c 0,31,32
 365 425 365 425 365 485 c 256,22,23
395 192 m 256,33,34
 395 242 395 242 350 289 c 128,-1,35
 305 336 305 336 260 336 c 2,36,-1
 105 336 l 1,37,-1
 105 46 l 1,38,-1
 260 46 l 2,39,40
 314 46 314 46 352 84 c 0,41,42
 394 126 394 126 395 192 c 256,33,34
EndSplineSet
Validated: 1
EndChar

StartChar: C
Encoding: 291 67 35
Width: 500
VWidth: 852
Flags: MW
LayerCount: 2
Back
SplineSet
368 618 m 1,5,-1
 368 -382 l 1025
  Named: "GCEnd"
132 618 m 1,5,-1
 132 -382 l 1025
  Named: "GCStart"
0 73 m 1,0,-1
 500 73 l 1025,1,2
  Named: "G2Center"
0 -236 m 1,0,-1
 500 -236 l 1025,1,2
  Named: "G2Bottom"
0 382 m 1,0,-1
 500 382 l 1025,1,2
  Named: "G2Top"
59 618 m 1,3,-1
 59 -382 l 1025
  Named: "GLeft"
441 618 m 1,5,-1
 441 -382 l 1025
  Named: "GRight"
250 618 m 1,0,-1
 250 -382 l 1025
0 309 m 1,0,-1
 500 309 l 1025,1,2
  Named: "G1Center"
295 618 m 1,3,-1
 295 -382 l 1025
  Named: "GLR"
205 618 m 1,5,-1
 205 -382 l 1025
  Named: "GRR"
0 118 m 1,0,-1
 500 118 l 1025,1,2
  Named: "EMSquareCenter"
EndSplineSet
Fore
SplineSet
434 139 m 0,0,1
 441 132 441 132 441 119 c 0,2,3
 441 108 441 108 435 99 c 0,4,5
 406 55 406 55 366 28 c 0,6,7
 324 0 324 0 279 0 c 0,8,9
 185 0 185 0 115 106 c 0,10,11
 59 192 59 192 59 309 c 256,12,13
 59 432 59 432 115 522 c 0,14,15
 177 623 177 623 279 623 c 0,16,17
 324 623 324 623 368 597 c 0,18,19
 408 573 408 573 435 530 c 0,20,21
 443 517 443 517 443 507 c 0,22,23
 443 496 443 496 432 488 c 0,24,25
 428 485 428 485 422 485 c 0,26,27
 408 485 408 485 382 512 c 1,28,29
 327 571 327 571 278 571 c 0,30,31
 225 571 225 571 173 521 c 0,32,33
 142 491 142 491 121 425 c 0,34,35
 105 372 105 372 105 309 c 0,36,37
 105 257 105 257 116 217 c 0,38,39
 138 141 138 141 169 110 c 0,40,41
 233 46 233 46 279 46 c 0,42,43
 334 46 334 46 392 117 c 0,44,45
 412 141 412 141 426 143 c 0,46,47
 430 143 430 143 434 139 c 0,0,1
EndSplineSet
Validated: 1
EndChar

StartChar: D
Encoding: 292 68 36
Width: 500
VWidth: 852
Flags: MW
LayerCount: 2
Back
SplineSet
368 618 m 5,5,-1
 368 -382 l 1029
  Named: "GCEnd"
132 618 m 5,5,-1
 132 -382 l 1029
  Named: "GCStart"
0 73 m 5,0,-1
 500 73 l 1029,1,2
  Named: "G2Center"
0 -236 m 5,0,-1
 500 -236 l 1029,1,2
  Named: "G2Bottom"
0 382 m 5,0,-1
 500 382 l 1029,1,2
  Named: "G2Top"
59 618 m 5,3,-1
 59 -382 l 1029
  Named: "GLeft"
441 618 m 5,5,-1
 441 -382 l 1029
  Named: "GRight"
250 618 m 5,0,-1
 250 -382 l 1029
0 309 m 5,0,-1
 500 309 l 1029,1,2
  Named: "G1Center"
295 618 m 5,3,-1
 295 -382 l 1029
  Named: "GLR"
205 618 m 5,5,-1
 205 -382 l 1029
  Named: "GRR"
0 118 m 5,0,-1
 500 118 l 1029,1,2
  Named: "EMSquareCenter"
EndSplineSet
Fore
SplineSet
441 307 m 256,0,1
 441 179 441 179 353 89.5 c 128,-1,2
 265 0 265 0 139 0 c 2,3,-1
 82 0 l 2,4,5
 73 0 73 0 65 7 c 0,6,7
 59 12 59 12 59 29 c 2,8,-1
 59 588 l 2,9,10
 59 606 59 606 65 611 c 0,11,12
 73 618 73 618 82 618 c 2,13,-1
 139 618 l 2,14,15
 265 618 265 618 353 526.5 c 128,-1,16
 441 435 441 435 441 307 c 256,0,1
395 307 m 256,17,18
 395 414 395 414 318 496 c 0,19,20
 246 572 246 572 125 572 c 2,21,-1
 105 572 l 1,22,-1
 105 46 l 1,23,-1
 125 46 l 2,24,25
 246 46 246 46 318 120 c 0,26,27
 395 198 395 198 395 307 c 256,17,18
EndSplineSet
Validated: 1
EndChar

StartChar: E
Encoding: 293 69 37
Width: 500
VWidth: 852
Flags: MW
LayerCount: 2
Back
SplineSet
368 618 m 5,5,-1
 368 -382 l 1029
  Named: "GCEnd"
132 618 m 5,5,-1
 132 -382 l 1029
  Named: "GCStart"
0 73 m 5,0,-1
 500 73 l 1029,1,2
  Named: "G2Center"
0 -236 m 5,0,-1
 500 -236 l 1029,1,2
  Named: "G2Bottom"
0 382 m 5,0,-1
 500 382 l 1029,1,2
  Named: "G2Top"
59 618 m 5,3,-1
 59 -382 l 1029
  Named: "GLeft"
441 618 m 5,5,-1
 441 -382 l 1029
  Named: "GRight"
250 618 m 5,0,-1
 250 -382 l 1029
0 309 m 5,0,-1
 500 309 l 1029,1,2
  Named: "G1Center"
295 618 m 5,3,-1
 295 -382 l 1029
  Named: "GLR"
205 618 m 5,5,-1
 205 -382 l 1029
  Named: "GRR"
0 118 m 5,0,-1
 500 118 l 1029,1,2
  Named: "EMSquareCenter"
EndSplineSet
Fore
SplineSet
441 23 m 256,0,1
 441 0 441 0 412 0 c 2,2,-1
 82 0 l 2,3,4
 72 0 72 0 65 7 c 0,5,6
 59 14 59 14 59 31 c 2,7,-1
 59 588 l 2,8,9
 59 605 59 605 65 611 c 0,10,11
 73 618 73 618 82 618 c 2,12,-1
 412 618 l 2,13,14
 441 618 441 618 441 595 c 128,-1,15
 441 572 441 572 412 572 c 2,16,-1
 105 572 l 1,17,-1
 105 332 l 1,18,-1
 412 332 l 2,19,20
 441 332 441 332 441 309.5 c 128,-1,21
 441 287 441 287 413 286 c 4,22,23
 259 286 259 286 105 286 c 1,24,-1
 105 46 l 1,25,26
 259 46 259 46 413 46 c 0,27,28
 441 46 441 46 441 23 c 256,0,1
EndSplineSet
Validated: 1
EndChar

StartChar: F
Encoding: 294 70 38
Width: 500
VWidth: 852
Flags: MW
LayerCount: 2
Back
SplineSet
368 618 m 5,5,-1
 368 -382 l 1029
  Named: "GCEnd"
132 618 m 5,5,-1
 132 -382 l 1029
  Named: "GCStart"
0 73 m 5,0,-1
 500 73 l 1029,1,2
  Named: "G2Center"
0 -236 m 5,0,-1
 500 -236 l 1029,1,2
  Named: "G2Bottom"
0 382 m 5,0,-1
 500 382 l 1029,1,2
  Named: "G2Top"
59 618 m 5,3,-1
 59 -382 l 1029
  Named: "GLeft"
441 618 m 5,5,-1
 441 -382 l 1029
  Named: "GRight"
250 618 m 5,0,-1
 250 -382 l 1029
0 309 m 5,0,-1
 500 309 l 1029,1,2
  Named: "G1Center"
295 618 m 5,3,-1
 295 -382 l 1029
  Named: "GLR"
205 618 m 5,5,-1
 205 -382 l 1029
  Named: "GRR"
0 118 m 5,0,-1
 500 118 l 1029,1,2
  Named: "EMSquareCenter"
EndSplineSet
Fore
SplineSet
441 309 m 256,0,1
 441 287 441 287 413 286 c 0,2,3
 259 286 259 286 105 286 c 1,4,-1
 105 31 l 2,5,6
 105 0 105 0 85 0 c 256,7,8
 59 0 59 0 59 31 c 2,9,-1
 59 588 l 2,10,11
 59 618 59 618 82 618 c 0,12,13
 412 618 l 0,14,15
 441 616 441 616 441 595 c 0,16,17
 441 572 441 572 412 572 c 2,18,-1
 105 572 l 1,19,-1
 105 332 l 1,20,21
 260 332 260 332 414 332 c 0,22,23
 441 332 441 332 441 309 c 256,0,1
EndSplineSet
Validated: 1
EndChar

StartChar: G
Encoding: 295 71 39
Width: 500
VWidth: 852
Flags: MW
LayerCount: 2
Back
SplineSet
368 618 m 1,5,-1
 368 -382 l 1025
  Named: "GCEnd"
132 618 m 1,5,-1
 132 -382 l 1025
  Named: "GCStart"
0 73 m 1,0,-1
 500 73 l 1025,1,2
  Named: "G2Center"
0 -236 m 1,0,-1
 500 -236 l 1025,1,2
  Named: "G2Bottom"
0 382 m 1,0,-1
 500 382 l 1025,1,2
  Named: "G2Top"
59 618 m 1,3,-1
 59 -382 l 1025
  Named: "GLeft"
441 618 m 1,5,-1
 441 -382 l 1025
  Named: "GRight"
250 618 m 1,0,-1
 250 -382 l 1025
0 309 m 1,0,-1
 500 309 l 1025,1,2
  Named: "G1Center"
295 618 m 5,3,-1
 295 -382 l 1025
  Named: "GLR"
205 618 m 1,5,-1
 205 -382 l 1025
  Named: "GRR"
0 118 m 1,0,-1
 500 118 l 1025,1,2
  Named: "EMSquareCenter"
EndSplineSet
Fore
SplineSet
435 526 m 0,0,1
 441 513 441 513 441 504.5 c 128,-1,2
 441 496 441 496 434 489 c 0,3,4
 431 486 431 486 425 486 c 0,5,6
 413 486 413 486 383 515 c 0,7,8
 326 572 326 572 278 572 c 256,9,10
 229 572 229 572 174 515 c 0,11,12
 146 486 146 486 119 412 c 0,13,14
 105 374 105 374 105 309 c 0,15,16
 105 264 105 264 122 198 c 0,17,18
 134 151 134 151 150 128 c 0,19,20
 206 47 206 47 295 46 c 0,21,22
 395 46 395 46 395 73 c 2,23,-1
 395 279 l 2,24,25
 395 309 395 309 418 309 c 128,-1,26
 441 309 441 309 441 280 c 2,27,-1
 441 73 l 1,28,29
 439 0 439 0 370 0 c 2,30,-1
 278 0 l 2,31,32
 179 0 179 0 115 106 c 0,33,34
 59 198 59 198 59 309 c 0,35,36
 59 430 59 430 115 517 c 0,37,38
 180 618 180 618 278 618 c 0,39,40
 323 618 323 618 371.5 589 c 128,-1,41
 420 560 420 560 435 526 c 0,0,1
EndSplineSet
Validated: 1
EndChar

StartChar: H
Encoding: 296 72 40
Width: 500
VWidth: 852
Flags: MW
LayerCount: 2
Back
SplineSet
368 618 m 5,5,-1
 368 -382 l 1029
  Named: "GCEnd"
132 618 m 5,5,-1
 132 -382 l 1029
  Named: "GCStart"
0 73 m 5,0,-1
 500 73 l 1029,1,2
  Named: "G2Center"
0 -236 m 5,0,-1
 500 -236 l 1029,1,2
  Named: "G2Bottom"
0 382 m 5,0,-1
 500 382 l 1029,1,2
  Named: "G2Top"
59 618 m 5,3,-1
 59 -382 l 1029
  Named: "GLeft"
441 618 m 5,5,-1
 441 -382 l 1029
  Named: "GRight"
250 618 m 5,0,-1
 250 -382 l 1029
0 309 m 5,0,-1
 500 309 l 1029,1,2
  Named: "G1Center"
295 618 m 5,3,-1
 295 -382 l 1029
  Named: "GLR"
205 618 m 5,5,-1
 205 -382 l 1029
  Named: "GRR"
0 118 m 5,0,-1
 500 118 l 1029,1,2
  Named: "EMSquareCenter"
EndSplineSet
Fore
SplineSet
441 38 m 2,0,1
 441 0 441 0 418 0 c 256,2,3
 395 0 395 0 395 38 c 2,4,-1
 395 336 l 1,5,-1
 105 336 l 1,6,-1
 105 38 l 2,7,8
 105 0 105 0 82 0 c 256,9,10
 59 0 59 0 59 38 c 2,11,-1
 59 580 l 2,12,13
 59 617 59 617 82 617 c 128,-1,14
 105 617 105 617 105 580 c 2,15,-1
 105 382 l 1,16,-1
 395 382 l 1,17,-1
 395 580 l 2,18,19
 395 616 395 616 418 617 c 0,20,21
 441 617 441 617 441 580 c 2,22,-1
 441 38 l 2,0,1
EndSplineSet
Validated: 1
EndChar

StartChar: I
Encoding: 297 73 41
Width: 500
VWidth: 852
Flags: MW
LayerCount: 2
Back
SplineSet
368 618 m 5,5,-1
 368 -382 l 1029
  Named: "GCEnd"
132 618 m 5,5,-1
 132 -382 l 1029
  Named: "GCStart"
0 73 m 5,0,-1
 500 73 l 1029,1,2
  Named: "G2Center"
0 -236 m 5,0,-1
 500 -236 l 1029,1,2
  Named: "G2Bottom"
0 382 m 5,0,-1
 500 382 l 1029,1,2
  Named: "G2Top"
59 618 m 5,3,-1
 59 -382 l 1029
  Named: "GLeft"
441 618 m 5,5,-1
 441 -382 l 1029
  Named: "GRight"
250 618 m 5,0,-1
 250 -382 l 1029
0 309 m 5,0,-1
 500 309 l 1029,1,2
  Named: "G1Center"
295 618 m 5,3,-1
 295 -382 l 1029
  Named: "GLR"
205 618 m 5,5,-1
 205 -382 l 1029
  Named: "GRR"
0 118 m 5,0,-1
 500 118 l 1029,1,2
  Named: "EMSquareCenter"
EndSplineSet
Fore
SplineSet
441 595 m 128,-1,1
 441 572 441 572 406 572 c 2,2,-1
 273 572 l 1,3,-1
 273 46 l 1,4,5
 341 46 341 46 409 46 c 0,6,7
 441 46 441 46 441 23 c 256,8,9
 441 0 441 0 406 0 c 2,10,-1
 95 0 l 2,11,12
 59 0 59 0 59 23.5 c 0,13,14
 59 46 59 46 95 46 c 2,15,-1
 227 46 l 1,16,-1
 227 572 l 1,17,-1
 95 572 l 2,18,19
 59 572 59 572 59 595 c 128,-1,20
 59 618 59 618 95 618 c 2,21,-1
 406 618 l 2,22,0
 441 618 441 618 441 595 c 128,-1,1
EndSplineSet
Validated: 1
EndChar

StartChar: J
Encoding: 298 74 42
Width: 500
VWidth: 852
Flags: MW
LayerCount: 2
Back
SplineSet
368 618 m 1,5,-1
 368 -382 l 1025
  Named: "GCEnd"
132 618 m 1,5,-1
 132 -382 l 1025
  Named: "GCStart"
0 73 m 1,0,-1
 500 73 l 1025,1,2
  Named: "G2Center"
0 -236 m 1,0,-1
 500 -236 l 1025,1,2
  Named: "G2Bottom"
0 382 m 1,0,-1
 500 382 l 1025,1,2
  Named: "G2Top"
59 618 m 1,3,-1
 59 -382 l 1025
  Named: "GLeft"
441 618 m 1,5,-1
 441 -382 l 1025
  Named: "GRight"
250 618 m 1,0,-1
 250 -382 l 1025
0 309 m 1,0,-1
 500 309 l 1025,1,2
  Named: "G1Center"
295 618 m 1,3,-1
 295 -382 l 1025
  Named: "GLR"
205 618 m 1,5,-1
 205 -382 l 1025
  Named: "GRR"
0 118 m 1,0,-1
 500 118 l 1025,1,2
  Named: "EMSquareCenter"
EndSplineSet
Fore
SplineSet
418 618 m 2,0,1
 441 618 441 618 441 595 c 2,2,-1
 441 23 l 2,3,4
 441 -36 441 -36 434 -75 c 0,5,6
 418 -168 418 -168 338 -213 c 0,7,8
 297 -236 297 -236 251.5 -236 c 128,-1,9
 206 -236 206 -236 166 -217 c 0,10,11
 80 -176 80 -176 62 -73 c 0,12,13
 59 -56 59 -56 59 -23 c 0,14,15
 59 -1 59 -1 82 -1 c 128,-1,16
 105 -1 105 -1 105 -23 c 0,17,18
 105 -102 105 -102 125 -127 c 0,19,20
 174 -190 174 -190 241 -190 c 0,21,22
 282 -190 282 -190 315 -170 c 0,23,24
 378 -131 378 -131 391 -49 c 0,25,26
 395 -24 395 -24 395 23 c 2,27,-1
 395 572 l 1,28,-1
 82 572 l 2,29,30
 46 572 46 572 46 595 c 128,-1,31
 46 618 46 618 82 618 c 2,32,-1
 418 618 l 2,0,1
EndSplineSet
Validated: 1
EndChar

StartChar: K
Encoding: 299 75 43
Width: 500
VWidth: 852
Flags: MW
LayerCount: 2
Back
SplineSet
368 618 m 5,5,-1
 368 -382 l 1029
  Named: "GCEnd"
132 618 m 5,5,-1
 132 -382 l 1029
  Named: "GCStart"
0 73 m 5,0,-1
 500 73 l 1029,1,2
  Named: "G2Center"
0 -236 m 5,0,-1
 500 -236 l 1029,1,2
  Named: "G2Bottom"
0 382 m 5,0,-1
 500 382 l 1029,1,2
  Named: "G2Top"
59 618 m 5,3,-1
 59 -382 l 1029
  Named: "GLeft"
441 618 m 5,5,-1
 441 -382 l 1029
  Named: "GRight"
250 618 m 5,0,-1
 250 -382 l 1029
0 309 m 5,0,-1
 500 309 l 1029,1,2
  Named: "G1Center"
295 618 m 5,3,-1
 295 -382 l 1029
  Named: "GLR"
205 618 m 5,5,-1
 205 -382 l 1029
  Named: "GRR"
0 118 m 5,0,-1
 500 118 l 1029,1,2
  Named: "EMSquareCenter"
EndSplineSet
Fore
SplineSet
433 37 m 2,0,1
 441 29 441 29 441 16 c 0,2,3
 441 0 441 0 418 0 c 0,4,5
 404 0 404 0 394 10 c 2,6,-1
 114 289 l 2,7,8
 106 297 106 297 105 304 c 1,9,-1
 105 31 l 2,10,11
 105 0 105 0 82 0 c 256,12,13
 59 0 59 0 59 31 c 1,14,-1
 59 587 l 2,15,16
 59 618 59 618 82 618 c 256,17,18
 104 618 104 618 105 589 c 1,19,-1
 105 314 l 1,20,21
 106 322 106 322 114 330 c 2,22,-1
 394 608 l 2,23,24
 405 618 405 618 418 618 c 0,25,26
 441 618 441 618 441 598 c 0,27,28
 441 586 441 586 433 576 c 1,29,-1
 158 309 l 1,30,-1
 433 37 l 2,0,1
EndSplineSet
Validated: 1
EndChar

StartChar: L
Encoding: 300 76 44
Width: 500
VWidth: 852
Flags: MW
LayerCount: 2
Back
SplineSet
368 618 m 5,5,-1
 368 -382 l 1029
  Named: "GCEnd"
132 618 m 5,5,-1
 132 -382 l 1029
  Named: "GCStart"
0 73 m 5,0,-1
 500 73 l 1029,1,2
  Named: "G2Center"
0 -236 m 5,0,-1
 500 -236 l 1029,1,2
  Named: "G2Bottom"
0 382 m 5,0,-1
 500 382 l 1029,1,2
  Named: "G2Top"
59 618 m 5,3,-1
 59 -382 l 1029
  Named: "GLeft"
441 618 m 5,5,-1
 441 -382 l 1029
  Named: "GRight"
250 618 m 5,0,-1
 250 -382 l 1029
0 309 m 5,0,-1
 500 309 l 1029,1,2
  Named: "G1Center"
295 618 m 5,3,-1
 295 -382 l 1029
  Named: "GLR"
205 618 m 5,5,-1
 205 -382 l 1029
  Named: "GRR"
0 118 m 5,0,-1
 500 118 l 1029,1,2
  Named: "EMSquareCenter"
EndSplineSet
Fore
SplineSet
441 22 m 0,0,1
 441 0 441 0 406 0 c 2,2,-1
 82 0 l 2,3,4
 59 0 59 0 59 23 c 2,5,-1
 59 587 l 2,6,7
 59 618 59 618 80 618 c 256,8,9
 107 618 107 618 107 587 c 2,10,-1
 107 46 l 1,11,-1
 406 46 l 2,12,13
 441 46 441 46 441 22 c 0,0,1
EndSplineSet
Validated: 1
EndChar

StartChar: M
Encoding: 301 77 45
Width: 500
VWidth: 852
Flags: W
LayerCount: 2
Back
SplineSet
368 618 m 1,5,-1
 368 -382 l 1025
  Named: "GCEnd"
132 618 m 1,5,-1
 132 -382 l 1025
  Named: "GCStart"
0 73 m 1,0,-1
 500 73 l 1025,1,2
  Named: "G2Center"
0 -236 m 1,0,-1
 500 -236 l 1025,1,2
  Named: "G1Bottom"
0 386 m 1,0,-1
 500 386 l 1025,1,2
  Named: "G1Top"
59 618 m 1,3,-1
 59 -382 l 1025
  Named: "GLeft"
441 618 m 1,5,-1
 441 -382 l 1025
  Named: "GRight"
250 618 m 1,0,-1
 250 -382 l 1025
0 309 m 1,0,-1
 500 309 l 1025,1,2
  Named: "G1Center"
295 618 m 1,3,-1
 295 -382 l 1025
  Named: "GLR"
205 618 m 1,5,-1
 205 -382 l 1025
  Named: "GRR"
0 118 m 5,0,-1
 500 118 l 1025,1,2
  Named: "EMSquareCenter"
EndSplineSet
Fore
SplineSet
463 14 m 4,0,1
 463 0 463 0 441 0 c 4,2,3
 417 -0 417 -0 415 19 c 6,4,-1
 359 484 l 5,5,-1
 280 141 l 6,6,7
 275 118 275 118 250 118 c 260,8,9
 226 118 226 118 221 141 c 6,10,-1
 141 484 l 5,11,-1
 83 19 l 6,12,13
 81 0 81 0 59 0 c 132,-1,14
 37 0 37 0 37 20 c 4,15,-1
 107 592 l 4,16,17
 111 618 111 618 135 618 c 132,-1,19
 159 618 159 618 165 590 c 6,20,-1
 250 220 l 5,21,-1
 336 590 l 6,22,23
 343 618 343 618 366.5 618 c 132,-1,24
 390 618 390 618 393 592 c 4,25,26
 463 14 463 14 463 14 c 4,0,1
EndSplineSet
Validated: 1
EndChar

StartChar: N
Encoding: 302 78 46
Width: 500
VWidth: 852
Flags: MW
LayerCount: 2
Back
SplineSet
368 618 m 1,5,-1
 368 -382 l 1025
  Named: "GCEnd"
132 618 m 1,5,-1
 132 -382 l 1025
  Named: "GCStart"
0 73 m 1,0,-1
 500 73 l 1025,1,2
  Named: "G2Center"
0 -236 m 1,0,-1
 500 -236 l 1025,1,2
  Named: "G2Bottom"
0 382 m 1,0,-1
 500 382 l 1025,1,2
  Named: "G2Top"
59 618 m 1,3,-1
 59 -382 l 1025
  Named: "GLeft"
441 618 m 1,5,-1
 441 -382 l 1025
  Named: "GRight"
250 618 m 1,0,-1
 250 -382 l 1025
0 309 m 1,0,-1
 500 309 l 1025,1,2
  Named: "G1Center"
295 618 m 1,3,-1
 295 -382 l 1025
  Named: "GLR"
205 618 m 1,5,-1
 205 -382 l 1025
  Named: "GRR"
0 118 m 1,0,-1
 500 118 l 1025,1,2
  Named: "EMSquareCenter"
EndSplineSet
Fore
SplineSet
441 30 m 2,0,1
 441 0 441 0 413 0 c 0,2,3
 386 0 386 0 375 21 c 2,4,-1
 105 547 l 1,5,-1
 105 29 l 2,6,7
 105 -0 105 -0 82 0 c 256,8,9
 59 0 59 0 59 29 c 2,10,-1
 59 587 l 2,11,12
 59 618 59 618 92 618 c 0,13,14
 121 618 121 618 132 596 c 2,15,-1
 395 81 l 1,16,-1
 395 588 l 2,17,18
 395 618 395 618 418 618 c 128,-1,19
 441 618 441 618 441 588 c 2,20,-1
 441 30 l 2,0,1
EndSplineSet
Validated: 1
EndChar

StartChar: O
Encoding: 303 79 47
Width: 500
VWidth: 852
Flags: MW
LayerCount: 2
Back
SplineSet
0 236 m 1,0,-1
 500 236 l 1025,1,2
  Named: "G1GoldSplit"
0 309 m 1,0,-1
 500 309 l 1025,1,2
  Named: "G1Center"
368 618 m 1,5,-1
 368 -382 l 1025
  Named: "GCEnd"
132 618 m 1,5,-1
 132 -382 l 1025
  Named: "GCStart"
0 73 m 1,0,-1
 500 73 l 1025,1,2
  Named: "G2Center"
0 -236 m 1,0,-1
 500 -236 l 1025,1,2
  Named: "G2Bottom"
0 382 m 1,0,-1
 500 382 l 1025,1,2
  Named: "G2Top"
59 618 m 1,3,-1
 59 -382 l 1025
  Named: "GLeft"
441 618 m 1,5,-1
 441 -382 l 1025
  Named: "GRight"
250 618 m 1,0,-1
 250 -382 l 1025
0 309 m 1,0,-1
 500 309 l 1025,1,2
  Named: "G1Center"
295 618 m 1,3,-1
 295 -382 l 1025
  Named: "GLR"
205 618 m 1,5,-1
 205 -382 l 1025
  Named: "GRR"
0 118 m 1,0,-1
 500 118 l 1025,1,2
  Named: "EMSquareCenter"
EndSplineSet
Fore
SplineSet
395 309 m 256,0,1
 394 404 394 404 361 478 c 0,2,3
 319 572 319 572 250 572 c 256,4,5
 182 571 182 571 140 478 c 0,6,7
 105 402 105 402 105 309 c 256,8,9
 105 214 105 214 140 136 c 0,10,11
 180 46 180 46 251 46 c 256,12,13
 321 46 321 46 361 136 c 0,14,15
 395 213 395 213 395 309 c 256,0,1
441 309 m 256,16,17
 441 194 441 194 396 106 c 0,18,19
 342 -0 342 -0 251 0 c 256,20,21
 158 0 158 0 105 106 c 0,22,23
 59 198 59 198 59 309 c 256,24,25
 59 418 59 418 105 508 c 0,26,27
 162 618 162 618 250 618 c 256,28,29
 336 618 336 618 396 508 c 0,30,31
 441 424 441 424 441 309 c 256,16,17
EndSplineSet
Validated: 1
EndChar

StartChar: P
Encoding: 304 80 48
Width: 500
VWidth: 852
Flags: MW
LayerCount: 2
Back
SplineSet
0 236 m 5,0,-1
 500 236 l 1029,1,2
  Named: "G1GoldSplit"
0 309 m 5,0,-1
 500 309 l 1029,1,2
  Named: "G1Center"
368 618 m 5,5,-1
 368 -382 l 1029
  Named: "GCEnd"
132 618 m 5,5,-1
 132 -382 l 1029
  Named: "GCStart"
0 73 m 5,0,-1
 500 73 l 1029,1,2
  Named: "G2Center"
0 -236 m 5,0,-1
 500 -236 l 1029,1,2
  Named: "G2Bottom"
0 382 m 5,0,-1
 500 382 l 1029,1,2
  Named: "G2Top"
59 618 m 5,3,-1
 59 -382 l 1029
  Named: "GLeft"
441 618 m 5,5,-1
 441 -382 l 1029
  Named: "GRight"
250 618 m 5,0,-1
 250 -382 l 1029
0 309 m 5,0,-1
 500 309 l 1029,1,2
  Named: "G1Center"
295 618 m 5,3,-1
 295 -382 l 1029
  Named: "GLR"
205 618 m 5,5,-1
 205 -382 l 1029
  Named: "GRR"
0 118 m 5,0,-1
 500 118 l 1029,1,2
  Named: "EMSquareCenter"
EndSplineSet
Fore
SplineSet
441 433 m 256,0,1
 441 359 441 359 388 298 c 128,-1,2
 335 237 335 237 260 237 c 2,3,-1
 105 237 l 1,4,-1
 105 31 l 2,5,6
 105 -0 105 -0 82 0 c 256,7,8
 59 0 59 0 59 31 c 2,9,-1
 59 595 l 2,10,11
 59 606 59 606 66 613 c 0,12,13
 71 618 71 618 82 618 c 2,14,-1
 260 618 l 2,15,16
 335 618 335 618 388 563 c 128,-1,17
 441 508 441 508 441 433 c 256,0,1
394 434 m 256,18,19
 393 493 393 493 355 532 c 0,20,21
 316 572 316 572 260 572 c 2,22,-1
 105 572 l 1,23,-1
 105 283 l 1,24,-1
 260 283 l 2,25,26
 314 283 314 283 355 325 c 0,27,28
 394 365 394 365 394 434 c 256,18,19
EndSplineSet
Validated: 1
EndChar

StartChar: Q
Encoding: 305 81 49
Width: 500
VWidth: 852
Flags: MW
LayerCount: 2
Back
SplineSet
368 618 m 1,5,-1
 368 -382 l 1025
  Named: "GCEnd"
132 618 m 1,5,-1
 132 -382 l 1025
  Named: "GCStart"
0 73 m 1,0,-1
 500 73 l 1025,1,2
  Named: "G2Center"
0 -236 m 1,0,-1
 500 -236 l 1025,1,2
  Named: "G2Bottom"
0 382 m 1,0,-1
 500 382 l 1025,1,2
  Named: "G2Top"
59 618 m 1,3,-1
 59 -382 l 1025
  Named: "GLeft"
441 618 m 1,5,-1
 441 -382 l 1025
  Named: "GRight"
250 618 m 1,0,-1
 250 -382 l 1025
0 309 m 1,0,-1
 500 309 l 1025,1,2
  Named: "G1Center"
295 618 m 1,3,-1
 295 -382 l 1025
  Named: "GLR"
205 618 m 1,5,-1
 205 -382 l 1025
  Named: "GRR"
0 118 m 1,0,-1
 500 118 l 1025,1,2
  Named: "EMSquareCenter"
EndSplineSet
Fore
SplineSet
441 -201 m 256,0,1
 440 -236 440 -236 413 -236 c 0,2,3
 354 -236 354 -236 301 -173 c 0,4,5
 258 -122 258 -122 231 0 c 1,6,7
 151 8 151 8 102 112 c 0,8,9
 59 202 59 202 59 309 c 0,10,11
 59 423 59 423 104 511 c 0,12,13
 158 618 158 618 249 618 c 256,14,15
 342 618 342 618 395 511 c 0,16,17
 441 418 441 418 441 309 c 0,18,19
 441 223 441 223 405 130 c 0,20,21
 364 24 364 24 290 0 c 1,22,23
 303 -87 303 -87 337 -128 c 0,24,25
 371 -170 371 -170 413 -170 c 0,26,27
 441 -170 441 -170 441 -201 c 256,0,1
394 309 m 0,28,29
 394 368 394 368 381 417 c 0,30,31
 366 476 366 476 334 521 c 0,32,33
 297 572 297 572 249 572 c 256,34,35
 202 572 202 572 165 521 c 0,36,37
 133 477 133 477 118 417 c 0,38,39
 106 368 106 368 106 309 c 0,40,41
 107 222 107 222 132 158 c 0,42,43
 165 73 165 73 222 49 c 1,44,45
 214 84 214 84 214 160 c 0,46,47
 214 235 214 235 222 352 c 0,48,49
 224 382 224 382 250 382 c 256,50,51
 278 382 278 382 278 352 c 0,52,53
 273 198 273 198 273 166 c 0,54,55
 273 82 273 82 279 50 c 1,56,57
 339 80 339 80 369 161 c 0,58,59
 394 230 394 230 394 309 c 0,28,29
EndSplineSet
Validated: 1
EndChar

StartChar: R
Encoding: 306 82 50
Width: 500
VWidth: 852
Flags: MW
LayerCount: 2
Back
SplineSet
0 236 m 1,0,-1
 500 236 l 1025,1,2
  Named: "G1GoldSplit"
0 309 m 1,0,-1
 500 309 l 1025,1,2
  Named: "G1Center"
368 618 m 1,5,-1
 368 -382 l 1025
  Named: "GCEnd"
132 618 m 1,5,-1
 132 -382 l 1025
  Named: "GCStart"
0 73 m 1,0,-1
 500 73 l 1025,1,2
  Named: "G2Center"
0 -236 m 1,0,-1
 500 -236 l 1025,1,2
  Named: "G2Bottom"
0 382 m 1,0,-1
 500 382 l 1025,1,2
  Named: "G2Top"
59 618 m 1,3,-1
 59 -382 l 1025
  Named: "GLeft"
441 618 m 1,5,-1
 441 -382 l 1025
  Named: "GRight"
250 618 m 1,0,-1
 250 -382 l 1025
0 309 m 1,0,-1
 500 309 l 1025,1,2
  Named: "G1Center"
295 618 m 1,3,-1
 295 -382 l 1025
  Named: "GLR"
205 618 m 1,5,-1
 205 -382 l 1025
  Named: "GRR"
0 118 m 1,0,-1
 500 118 l 1025,1,2
  Named: "EMSquareCenter"
EndSplineSet
Fore
SplineSet
434 6 m 128,-1,1
 427 0 427 0 417 0 c 0,2,3
 409 0 409 0 398 12 c 1,4,-1
 174 234 l 2,5,6
 154 254 154 254 154 266 c 0,7,8
 155 282 155 282 175 282 c 1,9,-1
 260 282 l 2,10,11
 311 282 311 282 355 325 c 0,12,13
 395 365 395 365 395 433 c 256,14,15
 395 483 395 483 355 532 c 0,16,17
 323 572 323 572 260 572 c 2,18,-1
 105 572 l 1,19,-1
 105 23 l 2,20,21
 105 0 105 0 84 0 c 256,22,23
 59 0 59 0 59 23 c 2,24,-1
 59 595 l 2,25,26
 59 618 59 618 82 618 c 2,27,-1
 260 618 l 2,28,29
 335 618 335 618 388 563 c 128,-1,30
 441 508 441 508 441 433 c 256,31,32
 441 357 441 357 388 296 c 0,33,34
 335 236 335 236 260 236 c 2,35,-1
 236 236 l 1,36,-1
 427 47 l 2,37,38
 441 33 441 33 441 23 c 0,39,40
 441 12 441 12 434 6 c 128,-1,1
EndSplineSet
Validated: 1
EndChar

StartChar: S
Encoding: 307 83 51
Width: 500
VWidth: 852
Flags: MW
LayerCount: 2
Back
SplineSet
368 618 m 5,5,-1
 368 -382 l 1029
  Named: "GCEnd"
132 618 m 5,5,-1
 132 -382 l 1029
  Named: "GCStart"
0 73 m 5,0,-1
 500 73 l 1029,1,2
  Named: "G2Center"
0 -236 m 5,0,-1
 500 -236 l 1029,1,2
  Named: "G2Bottom"
0 382 m 5,0,-1
 500 382 l 1029,1,2
  Named: "G2Top"
59 618 m 5,3,-1
 59 -382 l 1029
  Named: "GLeft"
441 618 m 5,5,-1
 441 -382 l 1029
  Named: "GRight"
250 618 m 5,0,-1
 250 -382 l 1029
0 309 m 5,0,-1
 500 309 l 1029,1,2
  Named: "G1Center"
295 618 m 5,3,-1
 295 -382 l 1029
  Named: "GLR"
205 618 m 5,5,-1
 205 -382 l 1029
  Named: "GRR"
0 118 m 5,0,-1
 500 118 l 1029,1,2
  Named: "EMSquareCenter"
EndSplineSet
Fore
SplineSet
441 183 m 260,0,1
 441 102 441 102 378 52 c 4,2,3
 313 0 313 0 250 0 c 4,4,5
 132 0 132 0 65 88 c 5,6,7
 59 98 59 98 59 111 c 132,-1,8
 59 124 59 124 66 129 c 4,9,10
 72 133 72 133 80 133 c 4,11,12
 92 133 92 133 101 118 c 4,13,14
 148 46 148 46 250 46 c 4,15,16
 296 46 296 46 346 84 c 4,17,18
 395 122 395 122 395 183 c 260,19,20
 395 251 395 251 344 285 c 4,21,22
 310 308 310 308 250 309 c 4,23,24
 175 310 175 310 124 352 c 4,25,26
 71 394 71 394 71 461 c 260,27,28
 71 532 71 532 124.5 575 c 132,-1,29
 178 618 178 618 250 618 c 4,30,31
 283 618 283 618 322 598 c 4,32,33
 353 582 353 582 382 542 c 4,34,35
 390 531 390 531 390 522 c 4,36,37
 390 512 390 512 379 503 c 4,38,39
 374 499 374 499 369 499 c 4,40,41
 356 500 356 500 342 519 c 4,42,43
 303 572 303 572 252 572 c 4,44,45
 251 572 251 572 250 572 c 4,46,47
 195 572 195 572 156 538.5 c 132,-1,48
 117 505 117 505 117 462 c 4,49,50
 117 415 117 415 154 386 c 28,51,52
 193 356 193 356 250 355 c 4,53,54
 331 354 331 354 374 320 c 4,55,56
 441 265 441 265 441 183 c 260,0,1
EndSplineSet
Validated: 1
EndChar

StartChar: T
Encoding: 308 84 52
Width: 500
VWidth: 852
Flags: MW
LayerCount: 2
Back
SplineSet
368 618 m 5,5,-1
 368 -382 l 1029
  Named: "GCEnd"
132 618 m 5,5,-1
 132 -382 l 1029
  Named: "GCStart"
0 73 m 5,0,-1
 500 73 l 1029,1,2
  Named: "G2Center"
0 -236 m 5,0,-1
 500 -236 l 1029,1,2
  Named: "G2Bottom"
0 382 m 5,0,-1
 500 382 l 1029,1,2
  Named: "G2Top"
59 618 m 5,3,-1
 59 -382 l 1029
  Named: "GLeft"
441 618 m 5,5,-1
 441 -382 l 1029
  Named: "GRight"
250 618 m 5,0,-1
 250 -382 l 1029
0 309 m 5,0,-1
 500 309 l 1029,1,2
  Named: "G1Center"
295 618 m 5,3,-1
 295 -382 l 1029
  Named: "GLR"
205 618 m 5,5,-1
 205 -382 l 1029
  Named: "GRR"
0 118 m 5,0,-1
 500 118 l 1029,1,2
  Named: "EMSquareCenter"
EndSplineSet
Fore
SplineSet
441 595 m 256,0,1
 441 572 441 572 416 572 c 2,2,-1
 273 572 l 1,3,-1
 273 24 l 2,4,5
 273 0 273 0 254 0 c 256,6,7
 227 0 227 0 227 24 c 2,8,-1
 227 572 l 1,9,-1
 84 572 l 2,10,11
 59 572 59 572 59 595 c 128,-1,12
 59 618 59 618 82 618 c 0,13,14
 250 618 250 618 418 618 c 0,15,16
 441 618 441 618 441 595 c 256,0,1
EndSplineSet
Validated: 1
EndChar

StartChar: U
Encoding: 309 85 53
Width: 500
VWidth: 852
Flags: MW
LayerCount: 2
Back
SplineSet
368 618 m 5,5,-1
 368 -382 l 1029
  Named: "GCEnd"
132 618 m 5,5,-1
 132 -382 l 1029
  Named: "GCStart"
0 73 m 5,0,-1
 500 73 l 1029,1,2
  Named: "G2Center"
0 -236 m 5,0,-1
 500 -236 l 1029,1,2
  Named: "G2Bottom"
0 382 m 5,0,-1
 500 382 l 1029,1,2
  Named: "G2Top"
59 618 m 5,3,-1
 59 -382 l 1029
  Named: "GLeft"
441 618 m 5,5,-1
 441 -382 l 1029
  Named: "GRight"
250 618 m 5,0,-1
 250 -382 l 1029
0 309 m 5,0,-1
 500 309 l 1029,1,2
  Named: "G1Center"
295 618 m 5,3,-1
 295 -382 l 1029
  Named: "GLR"
205 618 m 5,5,-1
 205 -382 l 1029
  Named: "GRR"
0 118 m 5,0,-1
 500 118 l 1029,1,2
  Named: "EMSquareCenter"
EndSplineSet
Fore
SplineSet
441 199 m 6,0,1
 441 118 441 118 385 59 c 132,-1,2
 329 0 329 0 250 0 c 260,3,4
 171 0 171 0 115 59 c 132,-1,5
 59 118 59 118 59 199 c 6,6,-1
 59 590 l 6,7,8
 59 618 59 618 82 618 c 132,-1,9
 105 618 105 618 105 590 c 6,10,-1
 105 199 l 6,11,12
 105 145 105 145 143.5 95.5 c 132,-1,13
 182 46 182 46 250 46 c 260,14,15
 317 46 317 46 356 94.5 c 132,-1,16
 395 143 395 143 395 199 c 6,17,-1
 395 590 l 6,18,19
 395 618 395 618 418 618 c 260,20,21
 441 618 441 618 441 590 c 6,22,-1
 441 199 l 6,0,1
EndSplineSet
Validated: 1
EndChar

StartChar: V
Encoding: 310 86 54
Width: 500
VWidth: 852
Flags: MW
LayerCount: 2
Back
SplineSet
368 618 m 1,5,-1
 368 -382 l 1025
  Named: "GCEnd"
132 618 m 1,5,-1
 132 -382 l 1025
  Named: "GCStart"
0 73 m 1,0,-1
 500 73 l 1025,1,2
  Named: "G2Center"
0 -236 m 1,0,-1
 500 -236 l 1025,1,2
  Named: "G2Bottom"
0 382 m 1,0,-1
 500 382 l 1025,1,2
  Named: "G2Top"
59 618 m 1,3,-1
 59 -382 l 1025
  Named: "GLeft"
441 618 m 1,5,-1
 441 -382 l 1025
  Named: "GRight"
250 618 m 1,0,-1
 250 -382 l 1025
0 309 m 1,0,-1
 500 309 l 1025,1,2
  Named: "G1Center"
295 618 m 1,3,-1
 295 -382 l 1025
  Named: "GLR"
205 618 m 1,5,-1
 205 -382 l 1025
  Named: "GRR"
0 118 m 1,0,-1
 500 118 l 1025,1,2
  Named: "EMSquareCenter"
EndSplineSet
Fore
SplineSet
438 582 m 2,0,-1
 278 22 l 2,1,2
 272 0 272 0 250 0 c 256,3,4
 228 0 228 0 222 22 c 2,5,-1
 61 582 l 2,6,7
 59 589 59 589 59 596 c 0,8,9
 59 618 59 618 88 618 c 0,10,11
 99 618 99 618 104 599 c 2,12,-1
 250 86 l 1,13,-1
 395 599 l 2,14,15
 400 618 400 618 411 618 c 0,16,17
 441 618 441 618 441 596 c 0,18,19
 441 592 441 592 438 582 c 2,0,-1
EndSplineSet
Validated: 1
EndChar

StartChar: W
Encoding: 311 87 55
Width: 500
VWidth: 852
Flags: MW
LayerCount: 2
Back
SplineSet
368 618 m 5,5,-1
 368 -382 l 1029
  Named: "GCEnd"
132 618 m 5,5,-1
 132 -382 l 1029
  Named: "GCStart"
0 73 m 5,0,-1
 500 73 l 1029,1,2
  Named: "G2Center"
0 -236 m 5,0,-1
 500 -236 l 1029,1,2
  Named: "G2Bottom"
0 382 m 5,0,-1
 500 382 l 1029,1,2
  Named: "G2Top"
59 618 m 5,3,-1
 59 -382 l 1029
  Named: "GLeft"
441 618 m 5,5,-1
 441 -382 l 1029
  Named: "GRight"
250 618 m 5,0,-1
 250 -382 l 1029
0 309 m 5,0,-1
 500 309 l 1029,1,2
  Named: "G1Center"
295 618 m 5,3,-1
 295 -382 l 1029
  Named: "GLR"
205 618 m 5,5,-1
 205 -382 l 1029
  Named: "GRR"
0 118 m 5,0,-1
 500 118 l 1029,1,2
  Named: "EMSquareCenter"
EndSplineSet
Fore
SplineSet
463 604 m 0,0,1
 393 26 l 0,2,3
 390 0 390 0 366.5 0 c 128,-1,4
 343 0 343 0 336 28 c 2,5,-1
 250 398 l 1,6,-1
 165 28 l 2,7,8
 159 0 159 0 135 0 c 128,-1,9
 111 0 111 0 107 26 c 0,10,-1
 37 598 l 0,11,12
 37 618 37 618 59 618 c 128,-1,13
 81 618 81 618 83 599 c 2,14,-1
 141 134 l 1,15,-1
 221 477 l 2,16,17
 226 500 226 500 250 500 c 256,18,19
 275 500 275 500 280 477 c 2,20,-1
 359 134 l 1,21,-1
 415 599 l 2,22,23
 417 618 417 618 441 618 c 0,24,25
 463 618 463 618 463 604 c 0,0,1
EndSplineSet
Validated: 1
EndChar

StartChar: X
Encoding: 312 88 56
Width: 500
VWidth: 852
Flags: MW
LayerCount: 2
Back
SplineSet
368 618 m 5,5,-1
 368 -382 l 1029
  Named: "GCEnd"
132 618 m 5,5,-1
 132 -382 l 1029
  Named: "GCStart"
0 73 m 5,0,-1
 500 73 l 1029,1,2
  Named: "G2Center"
0 -236 m 5,0,-1
 500 -236 l 1029,1,2
  Named: "G2Bottom"
0 382 m 5,0,-1
 500 382 l 1029,1,2
  Named: "G2Top"
59 618 m 5,3,-1
 59 -382 l 1029
  Named: "GLeft"
441 618 m 5,5,-1
 441 -382 l 1029
  Named: "GRight"
250 618 m 5,0,-1
 250 -382 l 1029
0 309 m 5,0,-1
 500 309 l 1029,1,2
  Named: "G1Center"
295 618 m 5,3,-1
 295 -382 l 1029
  Named: "GLR"
205 618 m 5,5,-1
 205 -382 l 1029
  Named: "GRR"
0 118 m 5,0,-1
 500 118 l 1029,1,2
  Named: "EMSquareCenter"
EndSplineSet
Fore
SplineSet
105 17 m 2,0,1
 95 0 95 0 83 0 c 0,2,3
 76 0 76 0 70 4 c 0,4,5
 59 11 59 11 59 22 c 0,6,7
 59 30 59 30 66 42 c 2,8,-1
 223 309 l 1,9,-1
 62 583 l 2,10,11
 59 588 59 588 59 594 c 0,12,13
 59 603 59 603 71 612 c 0,14,15
 80 618 80 618 86 618 c 0,16,17
 96 618 96 618 102 607 c 2,18,-1
 250 355 l 1,19,-1
 398 607 l 2,20,21
 404 618 404 618 414 618 c 0,22,23
 420 618 420 618 429 612 c 0,24,25
 441 603 441 603 441 594 c 0,26,27
 441 588 441 588 438 583 c 2,28,-1
 277 309 l 1,29,-1
 434 42 l 2,30,31
 441 30 441 30 441 22 c 0,32,33
 441 11 441 11 430 4 c 0,34,35
 424 0 424 0 417 0 c 0,36,37
 405 0 405 0 395 17 c 2,38,-1
 250 263 l 1,39,-1
 105 17 l 2,0,1
EndSplineSet
Validated: 1
EndChar

StartChar: Y
Encoding: 313 89 57
Width: 500
VWidth: 852
Flags: MW
LayerCount: 2
Back
SplineSet
368 618 m 5,5,-1
 368 -382 l 1029
  Named: "GCEnd"
132 618 m 5,5,-1
 132 -382 l 1029
  Named: "GCStart"
0 73 m 5,0,-1
 500 73 l 1029,1,2
  Named: "G2Center"
0 -236 m 5,0,-1
 500 -236 l 1029,1,2
  Named: "G2Bottom"
0 382 m 5,0,-1
 500 382 l 1029,1,2
  Named: "G2Top"
59 618 m 5,3,-1
 59 -382 l 1029
  Named: "GLeft"
441 618 m 5,5,-1
 441 -382 l 1029
  Named: "GRight"
250 618 m 5,0,-1
 250 -382 l 1029
0 309 m 5,0,-1
 500 309 l 1029,1,2
  Named: "G1Center"
295 618 m 5,3,-1
 295 -382 l 1029
  Named: "GLR"
205 618 m 5,5,-1
 205 -382 l 1029
  Named: "GRR"
0 118 m 5,0,-1
 500 118 l 1029,1,2
  Named: "EMSquareCenter"
EndSplineSet
Fore
SplineSet
435 609 m 0,0,1
 441 604 441 604 441 597 c 0,2,3
 441 589 441 589 434 579 c 2,4,-1
 273 333 l 1,5,-1
 273 30 l 2,6,7
 273 0 273 0 250 0 c 256,8,9
 227 0 227 0 227 30 c 2,10,-1
 227 333 l 1,11,-1
 66 579 l 2,12,13
 59 589 59 589 59 597 c 0,14,15
 59 604 59 604 65 609 c 0,16,17
 75 618 75 618 85 618 c 0,18,19
 97 618 97 618 106 603 c 2,20,-1
 250 382 l 1,21,-1
 394 603 l 2,22,23
 404 618 404 618 415 618 c 0,24,25
 425 618 425 618 435 609 c 0,0,1
EndSplineSet
Validated: 1
EndChar

StartChar: Z
Encoding: 314 90 58
Width: 500
VWidth: 852
Flags: MW
LayerCount: 2
Back
SplineSet
368 618 m 5,5,-1
 368 -382 l 1029
  Named: "GCEnd"
132 618 m 5,5,-1
 132 -382 l 1029
  Named: "GCStart"
0 73 m 5,0,-1
 500 73 l 1029,1,2
  Named: "G2Center"
0 -236 m 5,0,-1
 500 -236 l 1029,1,2
  Named: "G2Bottom"
0 382 m 5,0,-1
 500 382 l 1029,1,2
  Named: "G2Top"
59 618 m 5,3,-1
 59 -382 l 1029
  Named: "GLeft"
441 618 m 5,5,-1
 441 -382 l 1029
  Named: "GRight"
250 618 m 5,0,-1
 250 -382 l 1029
0 309 m 5,0,-1
 500 309 l 1029,1,2
  Named: "G1Center"
295 618 m 5,3,-1
 295 -382 l 1029
  Named: "GLR"
205 618 m 5,5,-1
 205 -382 l 1029
  Named: "GRR"
0 118 m 5,0,-1
 500 118 l 1029,1,2
  Named: "EMSquareCenter"
EndSplineSet
Fore
SplineSet
441 595 m 0,0,1
 441 579 441 579 433 566 c 2,2,-1
 121 46 l 1,3,-1
 412 46 l 2,4,5
 441 46 441 46 441 23 c 128,-1,6
 441 0 441 0 412 0 c 2,7,-1
 91 0 l 2,8,9
 59 0 59 0 59 23 c 0,10,11
 59 37 59 37 68 52 c 2,12,-1
 380 572 l 1,13,-1
 89 572 l 2,14,15
 59 572 59 572 59 595 c 128,-1,16
 59 618 59 618 88 618 c 2,17,-1
 411 618 l 1,18,19
 441 618 441 618 441 595 c 0,0,1
EndSplineSet
Validated: 1
EndChar

StartChar: bracketleft
Encoding: 315 91 59
Width: 500
VWidth: 852
Flags: MW
LayerCount: 2
Back
SplineSet
368 618 m 5,5,-1
 368 -382 l 1029
  Named: "GCEnd"
132 618 m 5,5,-1
 132 -382 l 1029
  Named: "GCStart"
0 73 m 5,0,-1
 500 73 l 1029,1,2
  Named: "G2Center"
0 -236 m 5,0,-1
 500 -236 l 1029,1,2
  Named: "G2Bottom"
0 382 m 5,0,-1
 500 382 l 1029,1,2
  Named: "G2Top"
59 618 m 5,3,-1
 59 -382 l 1029
  Named: "GLeft"
441 618 m 5,5,-1
 441 -382 l 1029
  Named: "GRight"
250 618 m 5,0,-1
 250 -382 l 1029
0 309 m 5,0,-1
 500 309 l 1029,1,2
  Named: "G1Center"
295 618 m 5,3,-1
 295 -382 l 1029
  Named: "GLR"
205 618 m 5,5,-1
 205 -382 l 1029
  Named: "GRR"
0 118 m 5,0,-1
 500 118 l 1029,1,2
  Named: "EMSquareCenter"
EndSplineSet
Fore
SplineSet
368 23 m 256,0,1
 368 0 368 0 330 0 c 2,2,-1
 170 0 l 2,3,4
 156 0 156 0 143 12 c 0,5,6
 132 23 132 23 132 39 c 2,7,-1
 132 580 l 2,8,9
 132 595 132 595 144 607 c 0,10,11
 156 618 156 618 170 618 c 2,12,-1
 330 618 l 2,13,14
 368 618 368 618 368 596 c 0,15,16
 368 572 368 572 330 572 c 2,17,-1
 178 572 l 1,18,-1
 178 46 l 1,19,20
 256 46 256 46 333 46 c 0,21,22
 368 46 368 46 368 23 c 256,0,1
EndSplineSet
Validated: 1
EndChar

StartChar: backslash
Encoding: 316 92 60
Width: 500
VWidth: 852
Flags: W
LayerCount: 2
Back
SplineSet
368 618 m 5,5,-1
 368 -382 l 1029
  Named: "GCEnd"
132 618 m 5,5,-1
 132 -382 l 1029
  Named: "GCStart"
0 73 m 5,0,-1
 500 73 l 1029,1,2
  Named: "G2Center"
0 -236 m 5,0,-1
 500 -236 l 1029,1,2
  Named: "G2Bottom"
0 382 m 5,0,-1
 500 382 l 1029,1,2
  Named: "G2Top"
59 618 m 5,3,-1
 59 -382 l 1029
  Named: "GLeft"
441 618 m 5,5,-1
 441 -382 l 1029
  Named: "GRight"
250 618 m 5,0,-1
 250 -382 l 1029
0 309 m 5,0,-1
 500 309 l 1029,1,2
  Named: "G1Center"
295 618 m 5,3,-1
 295 -382 l 1029
  Named: "GLR"
205 618 m 5,5,-1
 205 -382 l 1029
  Named: "GRR"
0 118 m 5,0,-1
 500 118 l 1029,1,2
  Named: "EMSquareCenter"
EndSplineSet
Fore
SplineSet
437 -197 m 6,0,1
 441 -207 441 -207 441 -214 c 4,2,3
 441 -227 441 -227 427 -234 c 4,4,5
 423 -236 423 -236 418 -236 c 4,6,7
 404 -236 404 -236 395 -214 c 6,8,-1
 62 588 l 6,9,10
 59 595 59 595 59 597 c 4,11,12
 59 609 59 609 73 615 c 260,13,14
 81 618 81 618 84 618 c 4,15,16
 99 618 99 618 104 605 c 6,17,-1
 437 -197 l 6,0,1
EndSplineSet
Validated: 1
EndChar

StartChar: bracketright
Encoding: 317 93 61
Width: 500
VWidth: 852
Flags: MW
LayerCount: 2
Back
SplineSet
368 618 m 5,5,-1
 368 -382 l 1029
  Named: "GCEnd"
132 618 m 5,5,-1
 132 -382 l 1029
  Named: "GCStart"
0 73 m 5,0,-1
 500 73 l 1029,1,2
  Named: "G2Center"
0 -236 m 5,0,-1
 500 -236 l 1029,1,2
  Named: "G2Bottom"
0 382 m 5,0,-1
 500 382 l 1029,1,2
  Named: "G2Top"
59 618 m 5,3,-1
 59 -382 l 1029
  Named: "GLeft"
441 618 m 5,5,-1
 441 -382 l 1029
  Named: "GRight"
250 618 m 5,0,-1
 250 -382 l 1029
0 309 m 5,0,-1
 500 309 l 1029,1,2
  Named: "G1Center"
295 618 m 5,3,-1
 295 -382 l 1029
  Named: "GLR"
205 618 m 5,5,-1
 205 -382 l 1029
  Named: "GRR"
0 118 m 5,0,-1
 500 118 l 1029,1,2
  Named: "EMSquareCenter"
EndSplineSet
Fore
SplineSet
132 -213 m 256,0,1
 132 -190 132 -190 167 -190 c 0,2,3
 244 -190 244 -190 322 -190 c 1,4,-1
 322 336 l 1,5,-1
 170 336 l 2,6,7
 132 336 132 336 132 360 c 0,8,9
 132 382 132 382 170 382 c 2,10,-1
 330 382 l 2,11,12
 344 382 344 382 356 371 c 0,13,14
 368 359 368 359 368 344 c 2,15,-1
 368 -197 l 2,16,17
 368 -213 368 -213 357 -224 c 0,18,19
 344 -236 344 -236 330 -236 c 2,20,-1
 170 -236 l 2,21,22
 132 -236 132 -236 132 -213 c 256,0,1
EndSplineSet
Validated: 1
EndChar

StartChar: asciicircum
Encoding: 318 94 62
Width: 500
VWidth: 852
Flags: MW
LayerCount: 2
Back
SplineSet
368 618 m 5,5,-1
 368 -382 l 1029
  Named: "GCEnd"
132 618 m 5,5,-1
 132 -382 l 1029
  Named: "GCStart"
0 73 m 5,0,-1
 500 73 l 1029,1,2
  Named: "G2Center"
0 -236 m 5,0,-1
 500 -236 l 1029,1,2
  Named: "G2Bottom"
0 382 m 5,0,-1
 500 382 l 1029,1,2
  Named: "G2Top"
59 618 m 5,3,-1
 59 -382 l 1029
  Named: "GLeft"
441 618 m 5,5,-1
 441 -382 l 1029
  Named: "GRight"
250 618 m 5,0,-1
 250 -382 l 1029
0 309 m 5,0,-1
 500 309 l 1029,1,2
  Named: "G1Center"
295 618 m 5,3,-1
 295 -382 l 1029
  Named: "GLR"
205 618 m 5,5,-1
 205 -382 l 1029
  Named: "GRR"
0 118 m 5,0,-1
 500 118 l 1029,1,2
  Named: "EMSquareCenter"
EndSplineSet
Fore
SplineSet
431 426 m 2,0,1
 441 415 441 415 441 402 c 0,2,3
 441 393 441 393 434 387 c 0,4,5
 428 382 428 382 422 382 c 0,6,7
 410 382 410 382 393 400 c 2,8,-1
 250 555 l 1,9,-1
 108 397 l 2,10,11
 95 382 95 382 83 382 c 0,12,13
 75 382 75 382 68 388 c 0,14,15
 59 396 59 396 59 403 c 0,16,17
 59 412 59 412 72 426 c 2,18,-1
 238 610 l 2,19,20
 245 618 245 618 250 618 c 128,-1,21
 255 618 255 618 262 610 c 2,22,-1
 431 426 l 2,0,1
EndSplineSet
Validated: 1
EndChar

StartChar: underscore
Encoding: 319 95 63
Width: 500
VWidth: 852
Flags: MW
LayerCount: 2
Back
SplineSet
368 618 m 5,5,-1
 368 -382 l 1029
  Named: "GCEnd"
132 618 m 5,5,-1
 132 -382 l 1029
  Named: "GCStart"
0 73 m 5,0,-1
 500 73 l 1029,1,2
  Named: "G2Center"
0 -236 m 5,0,-1
 500 -236 l 1029,1,2
  Named: "G2Bottom"
0 382 m 5,0,-1
 500 382 l 1029,1,2
  Named: "G2Top"
59 618 m 5,3,-1
 59 -382 l 1029
  Named: "GLeft"
441 618 m 5,5,-1
 441 -382 l 1029
  Named: "GRight"
250 618 m 5,0,-1
 250 -382 l 1029
0 309 m 5,0,-1
 500 309 l 1029,1,2
  Named: "G1Center"
295 618 m 5,3,-1
 295 -382 l 1029
  Named: "GLR"
205 618 m 5,5,-1
 205 -382 l 1029
  Named: "GRR"
0 118 m 5,0,-1
 500 118 l 1029,1,2
  Named: "EMSquareCenter"
EndSplineSet
Fore
SplineSet
441 -23 m 260,0,1
 441 -46 441 -46 405 -46 c 6,2,-1
 95 -46 l 6,3,4
 59 -46 59 -46 59 -23 c 132,-1,6
 59 -0 59 -0 95 0 c 4,7,8
 252 0 252 0 408 0 c 4,9,10
 441 0 441 0 441 -23 c 260,0,1
EndSplineSet
Validated: 1
EndChar

StartChar: grave
Encoding: 320 96 64
Width: 500
VWidth: 852
Flags: MW
LayerCount: 2
Back
SplineSet
368 618 m 5,5,-1
 368 -382 l 1025
  Named: "GCEnd"
132 618 m 1,5,-1
 132 -382 l 1025
  Named: "GCStart"
0 73 m 1,0,-1
 500 73 l 1025,1,2
  Named: "G2Center"
0 -236 m 1,0,-1
 500 -236 l 1025,1,2
  Named: "G2Bottom"
0 382 m 1,0,-1
 500 382 l 1025,1,2
  Named: "G2Top"
59 618 m 1,3,-1
 59 -382 l 1025
  Named: "GLeft"
441 618 m 1,5,-1
 441 -382 l 1025
  Named: "GRight"
250 618 m 1,0,-1
 250 -382 l 1025
0 309 m 1,0,-1
 500 309 l 1025,1,2
  Named: "G1Center"
295 618 m 1,3,-1
 295 -382 l 1025
  Named: "GLR"
205 618 m 1,5,-1
 205 -382 l 1025
  Named: "GRR"
0 118 m 1,0,-1
 500 118 l 1025,1,2
  Named: "EMSquareCenter"
EndSplineSet
Fore
SplineSet
356 426 m 2,0,1
 368 413 368 413 368 404 c 0,2,3
 368 396 368 396 360.5 389 c 128,-1,4
 353 382 353 382 345 382 c 0,5,6
 335 382 335 382 323 394 c 2,7,-1
 139 579 l 2,8,9
 132 586 132 586 132 592 c 0,10,11
 132 599 132 599 141 609 c 256,12,13
 149 618 149 618 158 618 c 0,14,15
 165 618 165 618 172 611 c 2,16,-1
 356 426 l 2,0,1
EndSplineSet
Validated: 1
EndChar

StartChar: a
Encoding: 321 97 65
Width: 500
VWidth: 852
Flags: MW
LayerCount: 2
Back
SplineSet
0 500 m 5,0,-1
 500 500 l 1029,1,2
  Spiro
    0 500 {
    500 500 v
    0 0 z
  EndSpiro
  Named: "G-500/500"
0 236 m 5,0,-1
 500 236 l 1029,1,2
  Spiro
    0 236 {
    500 236 v
    0 0 z
  EndSpiro
  Named: "G1GoldSplit"
0 309 m 5,0,-1
 500 309 l 1029,1,2
  Spiro
    0 309 {
    500 309 v
    0 0 z
  EndSpiro
  Named: "G1Center"
368 618 m 5,5,-1
 368 -382 l 1029
  Spiro
    368 618 {
    368 -382 v
    0 0 z
  EndSpiro
  Named: "GCEnd"
132 618 m 5,5,-1
 132 -382 l 1029
  Spiro
    132 618 {
    132 -382 v
    0 0 z
  EndSpiro
  Named: "GCStart"
0 73 m 5,0,-1
 500 73 l 1029,1,2
  Spiro
    0 73 {
    500 73 v
    0 0 z
  EndSpiro
  Named: "G2Center"
0 -236 m 5,0,-1
 500 -236 l 1029,1,2
  Spiro
    0 -236 {
    500 -236 v
    0 0 z
  EndSpiro
  Named: "G2Bottom"
0 382 m 5,0,-1
 500 382 l 1029,1,2
  Spiro
    0 382 {
    500 382 v
    0 0 z
  EndSpiro
  Named: "G2Top"
59 618 m 5,3,-1
 59 -382 l 1029
  Spiro
    59 618 {
    59 -382 v
    0 0 z
  EndSpiro
  Named: "GLeft"
441 618 m 5,5,-1
 441 -382 l 1029
  Spiro
    441 618 {
    441 -382 v
    0 0 z
  EndSpiro
  Named: "GRight"
250 618 m 5,0,-1
 250 -382 l 1029
  Spiro
    250 618 {
    250 -382 v
    0 0 z
  EndSpiro
0 309 m 5,0,-1
 500 309 l 1029,1,2
  Spiro
    0 309 {
    500 309 v
    0 0 z
  EndSpiro
  Named: "G1Center"
295 618 m 5,3,-1
 295 -382 l 1029
  Spiro
    295 618 {
    295 -382 v
    0 0 z
  EndSpiro
  Named: "GLR"
205 618 m 5,5,-1
 205 -382 l 1029
  Spiro
    205 618 {
    205 -382 v
    0 0 z
  EndSpiro
  Named: "GRR"
0 118 m 5,0,-1
 500 118 l 1029,1,2
  Spiro
    0 118 {
    500 118 v
    0 0 z
  EndSpiro
  Named: "EMSquareCenter"
EndSplineSet
Fore
SplineSet
250 282 m 0,0,1
 332 282 332 282 395 224 c 1,2,3
 394 308 394 308 285 333 c 0,4,5
 265 337 265 337 244 337 c 0,6,7
 199 337 199 337 151 317 c 0,8,9
 134 310 134 310 123 310 c 0,10,11
 111 310 111 310 106 318 c 0,12,13
 103 323 103 323 103 328 c 0,14,15
 103 346 103 346 143 360 c 0,16,17
 206 382 206 382 250 382 c 0,18,19
 314 382 314 382 377.5 343.5 c 128,-1,20
 441 305 441 305 441 235 c 2,21,-1
 441 18 l 0,22,23
 441 0 441 0 418 0 c 128,-1,24
 395 0 395 0 395 18 c 128,-1,25
 395 36 395 36 395 54 c 1,26,27
 334 0 334 0 250 0 c 0,28,29
 133 0 133 0 78 75 c 0,30,31
 59 101 59 101 59 133 c 0,32,33
 59 198 59 198 114.5 240 c 128,-1,34
 170 282 170 282 250 282 c 0,0,1
339 61 m 0,35,36
 367 76 367 76 381 95.5 c 128,-1,37
 395 115 395 115 395 133 c 0,38,39
 395 189 395 189 346 216 c 0,40,41
 310 236 310 236 250 236 c 0,42,43
 139 236 139 236 112 175 c 0,44,45
 105 159 105 159 105 148 c 0,46,47
 105 94 105 94 157 65 c 0,48,49
 191 46 191 46 250 46 c 0,50,51
 310 46 310 46 339 61 c 0,35,36
EndSplineSet
Validated: 1
EndChar

StartChar: b
Encoding: 322 98 66
Width: 500
VWidth: 852
Flags: MW
LayerCount: 2
Back
SplineSet
0 500 m 5,0,-1
 500 500 l 1029,1,2
  Spiro
    0 500 {
    500 500 v
    0 0 z
  EndSpiro
  Named: "G-500/500"
0 236 m 5,0,-1
 500 236 l 1029,1,2
  Spiro
    0 236 {
    500 236 v
    0 0 z
  EndSpiro
  Named: "G1GoldSplit"
0 309 m 5,0,-1
 500 309 l 1029,1,2
  Spiro
    0 309 {
    500 309 v
    0 0 z
  EndSpiro
  Named: "G1Center"
368 618 m 5,5,-1
 368 -382 l 1029
  Spiro
    368 618 {
    368 -382 v
    0 0 z
  EndSpiro
  Named: "GCEnd"
132 618 m 5,5,-1
 132 -382 l 1029
  Spiro
    132 618 {
    132 -382 v
    0 0 z
  EndSpiro
  Named: "GCStart"
0 73 m 5,0,-1
 500 73 l 1029,1,2
  Spiro
    0 73 {
    500 73 v
    0 0 z
  EndSpiro
  Named: "G2Center"
0 -236 m 5,0,-1
 500 -236 l 1029,1,2
  Spiro
    0 -236 {
    500 -236 v
    0 0 z
  EndSpiro
  Named: "G2Bottom"
0 382 m 5,0,-1
 500 382 l 1029,1,2
  Spiro
    0 382 {
    500 382 v
    0 0 z
  EndSpiro
  Named: "G2Top"
59 618 m 5,3,-1
 59 -382 l 1029
  Spiro
    59 618 {
    59 -382 v
    0 0 z
  EndSpiro
  Named: "GLeft"
441 618 m 5,5,-1
 441 -382 l 1029
  Spiro
    441 618 {
    441 -382 v
    0 0 z
  EndSpiro
  Named: "GRight"
250 618 m 5,0,-1
 250 -382 l 1029
  Spiro
    250 618 {
    250 -382 v
    0 0 z
  EndSpiro
0 309 m 5,0,-1
 500 309 l 1029,1,2
  Spiro
    0 309 {
    500 309 v
    0 0 z
  EndSpiro
  Named: "G1Center"
295 618 m 5,3,-1
 295 -382 l 1029
  Spiro
    295 618 {
    295 -382 v
    0 0 z
  EndSpiro
  Named: "GLR"
205 618 m 5,5,-1
 205 -382 l 1029
  Spiro
    205 618 {
    205 -382 v
    0 0 z
  EndSpiro
  Named: "GRR"
0 118 m 5,0,-1
 500 118 l 1029,1,2
  Spiro
    0 118 {
    500 118 v
    0 0 z
  EndSpiro
  Named: "EMSquareCenter"
EndSplineSet
Fore
SplineSet
105 325 m 1,0,1
 160 382 160 382 250 382 c 0,2,3
 328 382 328 382 384.5 323 c 128,-1,4
 441 264 441 264 441 192 c 128,-1,5
 441 120 441 120 385.5 60 c 128,-1,6
 330 0 330 0 250 0 c 0,7,8
 168 0 168 0 113.5 60.5 c 128,-1,9
 59 121 59 121 59 195 c 1,10,-1
 59 595 l 2,11,12
 59 618 59 618 82 618 c 128,-1,13
 105 618 105 618 105 595 c 2,14,-1
 105 325 l 1,0,1
148 294 m 0,15,16
 105 252 105 252 105 192 c 128,-1,17
 105 132 105 132 147 89 c 128,-1,18
 189 46 189 46 250 46 c 128,-1,19
 311 46 311 46 353 89 c 128,-1,20
 395 132 395 132 395 192 c 128,-1,21
 395 252 395 252 351.5 294 c 128,-1,22
 308 336 308 336 250 336 c 128,-1,23
 192 336 192 336 148 294 c 0,15,16
EndSplineSet
Validated: 1
EndChar

StartChar: c
Encoding: 323 99 67
Width: 500
VWidth: 852
Flags: MW
LayerCount: 2
Back
SplineSet
0 500 m 5,0,-1
 500 500 l 1029,1,2
  Spiro
    0 500 {
    500 500 v
    0 0 z
  EndSpiro
  Named: "G-500/500"
0 236 m 5,0,-1
 500 236 l 1029,1,2
  Spiro
    0 236 {
    500 236 v
    0 0 z
  EndSpiro
  Named: "G1GoldSplit"
0 309 m 5,0,-1
 500 309 l 1029,1,2
  Spiro
    0 309 {
    500 309 v
    0 0 z
  EndSpiro
  Named: "G1Center"
368 618 m 5,5,-1
 368 -382 l 1029
  Spiro
    368 618 {
    368 -382 v
    0 0 z
  EndSpiro
  Named: "GCEnd"
132 618 m 5,5,-1
 132 -382 l 1029
  Spiro
    132 618 {
    132 -382 v
    0 0 z
  EndSpiro
  Named: "GCStart"
0 73 m 5,0,-1
 500 73 l 1029,1,2
  Spiro
    0 73 {
    500 73 v
    0 0 z
  EndSpiro
  Named: "G2Center"
0 -236 m 5,0,-1
 500 -236 l 1029,1,2
  Spiro
    0 -236 {
    500 -236 v
    0 0 z
  EndSpiro
  Named: "G2Bottom"
0 382 m 5,0,-1
 500 382 l 1029,1,2
  Spiro
    0 382 {
    500 382 v
    0 0 z
  EndSpiro
  Named: "G2Top"
59 618 m 5,3,-1
 59 -382 l 1029
  Spiro
    59 618 {
    59 -382 v
    0 0 z
  EndSpiro
  Named: "GLeft"
441 618 m 5,5,-1
 441 -382 l 1029
  Spiro
    441 618 {
    441 -382 v
    0 0 z
  EndSpiro
  Named: "GRight"
250 618 m 5,0,-1
 250 -382 l 1029
  Spiro
    250 618 {
    250 -382 v
    0 0 z
  EndSpiro
0 309 m 5,0,-1
 500 309 l 1029,1,2
  Spiro
    0 309 {
    500 309 v
    0 0 z
  EndSpiro
  Named: "G1Center"
295 618 m 5,3,-1
 295 -382 l 1029
  Spiro
    295 618 {
    295 -382 v
    0 0 z
  EndSpiro
  Named: "GLR"
205 618 m 5,5,-1
 205 -382 l 1029
  Spiro
    205 618 {
    205 -382 v
    0 0 z
  EndSpiro
  Named: "GRR"
0 118 m 5,0,-1
 500 118 l 1029,1,2
  Spiro
    0 118 {
    500 118 v
    0 0 z
  EndSpiro
  Named: "EMSquareCenter"
EndSplineSet
Fore
SplineSet
436 321 m 0,0,1
 441 316 441 316 441 306 c 0,2,3
 441 294 441 294 428 288 c 0,4,5
 420 284 420 284 414 284 c 0,6,7
 407 285 407 285 403 288 c 0,8,9
 340 335 340 335 271 335 c 0,10,11
 196 335 196 335 152 294 c 0,12,13
 105 250 105 250 105 195 c 0,14,15
 105 139 105 139 152 92.5 c 128,-1,16
 199 46 199 46 273 46 c 0,17,18
 339 46 339 46 406 84 c 0,19,20
 413 88 413 88 422 88 c 128,-1,21
 431 88 431 88 436 79 c 128,-1,22
 441 70 441 70 441 60 c 128,-1,23
 441 50 441 50 424 41 c 1,24,25
 340 0 340 0 257 0 c 0,26,27
 131 0 131 0 75 123 c 0,28,29
 59 158 59 158 59 197 c 0,30,31
 59 274 59 274 118.5 328 c 128,-1,32
 178 382 178 382 270 382 c 0,33,34
 375 382 375 382 436 321 c 0,0,1
EndSplineSet
Validated: 1
EndChar

StartChar: d
Encoding: 324 100 68
Width: 500
VWidth: 852
Flags: MW
LayerCount: 2
Back
SplineSet
0 500 m 1,0,-1
 500 500 l 1025,1,2
  Spiro
    0 500 {
    500 500 v
    0 0 z
  EndSpiro
  Named: "G-500/500"
0 236 m 1,0,-1
 500 236 l 1025,1,2
  Spiro
    0 236 {
    500 236 v
    0 0 z
  EndSpiro
  Named: "G1GoldSplit"
0 309 m 1,0,-1
 500 309 l 1025,1,2
  Spiro
    0 309 {
    500 309 v
    0 0 z
  EndSpiro
  Named: "G1Center"
368 618 m 1,5,-1
 368 -382 l 1025
  Spiro
    368 618 {
    368 -382 v
    0 0 z
  EndSpiro
  Named: "GCEnd"
132 618 m 1,5,-1
 132 -382 l 1025
  Spiro
    132 618 {
    132 -382 v
    0 0 z
  EndSpiro
  Named: "GCStart"
0 73 m 1,0,-1
 500 73 l 1025,1,2
  Spiro
    0 73 {
    500 73 v
    0 0 z
  EndSpiro
  Named: "G2Center"
0 -236 m 1,0,-1
 500 -236 l 1025,1,2
  Spiro
    0 -236 {
    500 -236 v
    0 0 z
  EndSpiro
  Named: "G2Bottom"
0 382 m 1,0,-1
 500 382 l 1025,1,2
  Spiro
    0 382 {
    500 382 v
    0 0 z
  EndSpiro
  Named: "G2Top"
59 618 m 1,3,-1
 59 -382 l 1025
  Spiro
    59 618 {
    59 -382 v
    0 0 z
  EndSpiro
  Named: "GLeft"
441 618 m 1,5,-1
 441 -382 l 1025
  Spiro
    441 618 {
    441 -382 v
    0 0 z
  EndSpiro
  Named: "GRight"
250 618 m 1,0,-1
 250 -382 l 1025
  Spiro
    250 618 {
    250 -382 v
    0 0 z
  EndSpiro
0 309 m 1,0,-1
 500 309 l 1025,1,2
  Spiro
    0 309 {
    500 309 v
    0 0 z
  EndSpiro
  Named: "G1Center"
295 618 m 1,3,-1
 295 -382 l 1025
  Spiro
    295 618 {
    295 -382 v
    0 0 z
  EndSpiro
  Named: "GLR"
205 618 m 1,5,-1
 205 -382 l 1025
  Spiro
    205 618 {
    205 -382 v
    0 0 z
  EndSpiro
  Named: "GRR"
0 118 m 1,0,-1
 500 118 l 1025,1,2
  Spiro
    0 118 {
    500 118 v
    0 0 z
  EndSpiro
  Named: "EMSquareCenter"
EndSplineSet
Fore
SplineSet
59 190 m 256,0,1
 59 264 59 264 112 319 c 0,2,3
 172 381 172 381 253 382 c 0,4,5
 335 382 335 382 395 328 c 1,6,-1
 395 590 l 2,7,8
 395 618 395 618 418 618 c 256,9,10
 441 618 441 618 441 590 c 2,11,-1
 441 31 l 2,12,13
 441 0 441 0 418 0 c 128,-1,14
 395 0 395 0 395 22 c 0,15,16
 395 50 395 50 395 55 c 1,17,18
 336 1 336 1 253 0 c 0,19,20
 173 0 173 0 112 62 c 0,21,22
 59 116 59 116 59 190 c 256,0,1
105 190 m 256,23,24
 105 136 105 136 146 93 c 0,25,26
 189 47 189 47 253 46 c 256,27,28
 310 46 310 46 354 93 c 0,29,30
 395 138 395 138 395 190 c 256,31,32
 395 246 395 246 354 290 c 0,33,34
 311 336 311 336 253 336 c 256,35,36
 190 336 190 336 146 290 c 0,37,38
 105 247 105 247 105 190 c 256,23,24
EndSplineSet
Validated: 1
EndChar

StartChar: e
Encoding: 325 101 69
Width: 500
VWidth: 852
Flags: MW
LayerCount: 2
Back
SplineSet
0 500 m 5,0,-1
 500 500 l 1029,1,2
  Spiro
    0 500 {
    500 500 v
    0 0 z
  EndSpiro
  Named: "G-500/500"
0 236 m 5,0,-1
 500 236 l 1029,1,2
  Spiro
    0 236 {
    500 236 v
    0 0 z
  EndSpiro
  Named: "G1GoldSplit"
0 309 m 5,0,-1
 500 309 l 1029,1,2
  Spiro
    0 309 {
    500 309 v
    0 0 z
  EndSpiro
  Named: "G1Center"
368 618 m 5,5,-1
 368 -382 l 1029
  Spiro
    368 618 {
    368 -382 v
    0 0 z
  EndSpiro
  Named: "GCEnd"
132 618 m 5,5,-1
 132 -382 l 1029
  Spiro
    132 618 {
    132 -382 v
    0 0 z
  EndSpiro
  Named: "GCStart"
0 73 m 5,0,-1
 500 73 l 1029,1,2
  Spiro
    0 73 {
    500 73 v
    0 0 z
  EndSpiro
  Named: "G2Center"
0 -236 m 5,0,-1
 500 -236 l 1029,1,2
  Spiro
    0 -236 {
    500 -236 v
    0 0 z
  EndSpiro
  Named: "G2Bottom"
0 382 m 5,0,-1
 500 382 l 1029,1,2
  Spiro
    0 382 {
    500 382 v
    0 0 z
  EndSpiro
  Named: "G2Top"
59 618 m 5,3,-1
 59 -382 l 1029
  Spiro
    59 618 {
    59 -382 v
    0 0 z
  EndSpiro
  Named: "GLeft"
441 618 m 5,5,-1
 441 -382 l 1029
  Spiro
    441 618 {
    441 -382 v
    0 0 z
  EndSpiro
  Named: "GRight"
250 618 m 5,0,-1
 250 -382 l 1029
  Spiro
    250 618 {
    250 -382 v
    0 0 z
  EndSpiro
0 309 m 5,0,-1
 500 309 l 1029,1,2
  Spiro
    0 309 {
    500 309 v
    0 0 z
  EndSpiro
  Named: "G1Center"
295 618 m 5,3,-1
 295 -382 l 1029
  Spiro
    295 618 {
    295 -382 v
    0 0 z
  EndSpiro
  Named: "GLR"
205 618 m 5,5,-1
 205 -382 l 1029
  Spiro
    205 618 {
    205 -382 v
    0 0 z
  EndSpiro
  Named: "GRR"
0 118 m 5,0,-1
 500 118 l 1029,1,2
  Spiro
    0 118 {
    500 118 v
    0 0 z
  EndSpiro
  Named: "EMSquareCenter"
EndSplineSet
Fore
SplineSet
134 104 m 1,0,1
 181 46 181 46 264 46 c 0,2,3
 301 46 301 46 340 64 c 0,4,5
 375 80 375 80 394 118 c 0,6,7
 398 126 398 126 399 128 c 0,8,9
 408 142 408 142 424 134 c 0,10,11
 442 126 442 126 441 111 c 0,12,13
 441 90 441 90 406 56 c 0,14,15
 368 20 368 20 312 6 c 0,16,17
 289 0 289 0 265 -1 c 0,18,19
 229 -1 229 -1 190 13 c 0,20,21
 154 26 154 26 122 54 c 0,22,23
 59 108 59 108 59 190 c 0,24,25
 59 270 59 270 123.5 326 c 128,-1,26
 188 382 188 382 264 382 c 0,27,28
 337 382 337 382 404 327 c 0,29,30
 427 308 427 308 428 294 c 0,31,32
 428 277 428 277 422 270 c 0,33,34
 417 264 417 264 403 256 c 2,35,-1
 134 104 l 1,0,1
382 284 m 1,36,37
 337 337 337 337 270 337 c 0,38,39
 251 337 251 337 232 333 c 0,40,41
 166 319 166 319 130 266 c 0,42,43
 105 229 105 229 105 198 c 0,44,45
 105 156 105 156 113 136 c 1,46,-1
 382 284 l 1,36,37
EndSplineSet
Validated: 1
EndChar

StartChar: f
Encoding: 326 102 70
Width: 500
VWidth: 2400
Flags: MW
LayerCount: 2
Back
SplineSet
0 500 m 5,0,-1
 500 500 l 1029,1,2
  Spiro
    0 500 {
    500 500 v
    0 0 z
  EndSpiro
  Named: "G-500/500"
0 236 m 5,0,-1
 500 236 l 1029,1,2
  Spiro
    0 236 {
    500 236 v
    0 0 z
  EndSpiro
  Named: "G1GoldSplit"
0 309 m 5,0,-1
 500 309 l 1029,1,2
  Spiro
    0 309 {
    500 309 v
    0 0 z
  EndSpiro
  Named: "G1Center"
368 618 m 5,5,-1
 368 -382 l 1029
  Spiro
    368 618 {
    368 -382 v
    0 0 z
  EndSpiro
  Named: "GCEnd"
132 618 m 5,5,-1
 132 -382 l 1029
  Spiro
    132 618 {
    132 -382 v
    0 0 z
  EndSpiro
  Named: "GCStart"
0 73 m 5,0,-1
 500 73 l 1029,1,2
  Spiro
    0 73 {
    500 73 v
    0 0 z
  EndSpiro
  Named: "G2Center"
0 -236 m 5,0,-1
 500 -236 l 1029,1,2
  Spiro
    0 -236 {
    500 -236 v
    0 0 z
  EndSpiro
  Named: "G2Bottom"
0 382 m 5,0,-1
 500 382 l 1029,1,2
  Spiro
    0 382 {
    500 382 v
    0 0 z
  EndSpiro
  Named: "G2Top"
59 618 m 5,3,-1
 59 -382 l 1029
  Spiro
    59 618 {
    59 -382 v
    0 0 z
  EndSpiro
  Named: "GLeft"
441 618 m 5,5,-1
 441 -382 l 1029
  Spiro
    441 618 {
    441 -382 v
    0 0 z
  EndSpiro
  Named: "GRight"
250 618 m 5,0,-1
 250 -382 l 1029
  Spiro
    250 618 {
    250 -382 v
    0 0 z
  EndSpiro
0 309 m 5,0,-1
 500 309 l 1029,1,2
  Spiro
    0 309 {
    500 309 v
    0 0 z
  EndSpiro
  Named: "G1Center"
295 618 m 5,3,-1
 295 -382 l 1029
  Spiro
    295 618 {
    295 -382 v
    0 0 z
  EndSpiro
  Named: "GLR"
205 618 m 5,5,-1
 205 -382 l 1029
  Spiro
    205 618 {
    205 -382 v
    0 0 z
  EndSpiro
  Named: "GRR"
0 118 m 5,0,-1
 500 118 l 1029,1,2
  Spiro
    0 118 {
    500 118 v
    0 0 z
  EndSpiro
  Named: "EMSquareCenter"
EndSplineSet
Fore
SplineSet
359 359 m 129,-1,1
 359 336 359 336 332 336 c 2,2,-1
 205 336 l 1,3,-1
 205 28 l 2,4,5
 205 0 205 0 182 0 c 128,-1,6
 159 0 159 0 159 28 c 2,7,-1
 159 336 l 1,8,-1
 86 336 l 2,9,10
 59 336 59 336 59 359 c 128,-1,11
 59 382 59 382 86 382 c 2,12,-1
 159 382 l 1,13,14
 159 438 159 438 175 469 c 0,15,16
 214 545 214 545 309 546 c 0,17,18
 370 546 370 546 411 509 c 0,19,20
 441 481 441 481 441 464 c 0,21,22
 441 460 441 460 436 453 c 0,23,24
 423 438 423 438 412 446 c 2,25,-1
 383 467 l 0,26,27
 361 485 361 485 351 490 c 0,28,29
 331 500 331 500 303 500 c 0,30,31
 248 500 248 500 224 455 c 0,32,33
 205 420 205 420 205 388 c 0,34,35
 205 385 205 385 205 382 c 1,36,-1
 332 382 l 2,37,0
 359 382 359 382 359 359 c 129,-1,1
EndSplineSet
Validated: 1
EndChar

StartChar: g
Encoding: 327 103 71
Width: 500
VWidth: 2400
Flags: MW
LayerCount: 2
Back
SplineSet
368 618 m 1,5,-1
 368 -382 l 1025
  Named: "GCEnd"
132 618 m 1,5,-1
 132 -382 l 1025
  Named: "GCStart"
0 73 m 1,0,-1
 500 73 l 1025,1,2
  Named: "G2Center"
0 -236 m 1,0,-1
 500 -236 l 1025,1,2
  Named: "G1Bottom"
0 382 m 1,0,-1
 500 382 l 1025,1,2
  Named: "G1Top"
59 618 m 1,3,-1
 59 -382 l 1025
  Named: "GLeft"
441 618 m 1,5,-1
 441 -382 l 1025
  Named: "GRight"
250 618 m 1,0,-1
 250 -382 l 1025
0 309 m 1,0,-1
 500 309 l 1025,1,2
  Named: "G1Center"
295 618 m 1,3,-1
 295 -382 l 1025
  Named: "GLR"
205 618 m 1,5,-1
 205 -382 l 1025
  Named: "GRR"
0 118 m 1,0,-1
 500 118 l 1025,1,2
  Named: "EMSquareCenter"
EndSplineSet
Fore
SplineSet
155 310 m 0,0,1
 105 265 105 265 105 192 c 0,2,3
 105 138 105 138 142 98 c 0,4,5
 178 60 178 60 230 60 c 128,-1,6
 282 60 282 60 316 99 c 0,7,8
 351 139 351 139 352 192 c 0,9,10
 352 251 352 251 321 290 c 0,11,12
 284 336 284 336 229 336 c 0,13,14
 185 336 185 336 155 310 c 0,0,1
403 382 m 2,15,16
 441 382 441 382 441 359 c 0,17,18
 441 348 441 348 435 343 c 0,19,20
 425 336 425 336 408 336 c 2,21,-1
 324 336 l 1,22,23
 357 312 357 312 377 274 c 0,24,25
 396 236 396 236 396 192 c 0,26,27
 396 122 396 122 346 71 c 0,28,29
 330 55 330 55 311 43 c 1,30,31
 348 38 348 38 377 18.5 c 128,-1,32
 406 -1 406 -1 423.5 -30 c 128,-1,33
 441 -59 441 -59 441 -93 c 0,34,35
 441 -177 441 -177 354 -216 c 0,36,37
 310 -236 310 -236 252 -236 c 0,38,39
 114 -236 114 -236 72 -155 c 0,40,41
 59 -129 59 -129 59 -111 c 0,42,43
 59 -96 59 -96 67 -89 c 0,44,45
 77 -80 77 -80 85 -80 c 0,46,47
 103 -80 103 -80 114 -114 c 0,48,49
 138 -189 138 -189 245 -190 c 0,50,51
 321 -190 321 -190 362 -155 c 0,52,53
 394 -127 394 -127 394 -91 c 0,54,55
 394 -48 394 -48 350 -20 c 0,56,57
 324 -4 324 -4 268 7 c 128,-1,58
 212 18 212 18 198 22 c 0,59,60
 135 41 135 41 97 86 c 0,61,62
 59 132 59 132 59 192 c 0,63,64
 59 284 59 284 125 340 c 0,65,66
 146 359 146 359 174 370.5 c 128,-1,67
 202 382 202 382 250 382 c 2,68,-1
 403 382 l 2,15,16
EndSplineSet
Validated: 1
EndChar

StartChar: h
Encoding: 328 104 72
Width: 500
VWidth: 852
Flags: MW
LayerCount: 2
Back
SplineSet
0 236 m 5,0,-1
 500 236 l 1029,1,2
  Spiro
    0 236 {
    500 236 v
    0 0 z
  EndSpiro
  Named: "G1GoldSplit"
0 309 m 5,0,-1
 500 309 l 1029,1,2
  Spiro
    0 309 {
    500 309 v
    0 0 z
  EndSpiro
  Named: "G1Center"
368 618 m 5,5,-1
 368 -382 l 1029
  Spiro
    368 618 {
    368 -382 v
    0 0 z
  EndSpiro
  Named: "GCEnd"
132 618 m 5,5,-1
 132 -382 l 1029
  Spiro
    132 618 {
    132 -382 v
    0 0 z
  EndSpiro
  Named: "GCStart"
0 73 m 5,0,-1
 500 73 l 1029,1,2
  Spiro
    0 73 {
    500 73 v
    0 0 z
  EndSpiro
  Named: "G2Center"
0 -236 m 5,0,-1
 500 -236 l 1029,1,2
  Spiro
    0 -236 {
    500 -236 v
    0 0 z
  EndSpiro
  Named: "G2Bottom"
0 382 m 5,0,-1
 500 382 l 1029,1,2
  Spiro
    0 382 {
    500 382 v
    0 0 z
  EndSpiro
  Named: "G2Top"
59 618 m 5,3,-1
 59 -382 l 1029
  Spiro
    59 618 {
    59 -382 v
    0 0 z
  EndSpiro
  Named: "GLeft"
441 618 m 5,5,-1
 441 -382 l 1029
  Spiro
    441 618 {
    441 -382 v
    0 0 z
  EndSpiro
  Named: "GRight"
250 618 m 5,0,-1
 250 -382 l 1029
  Spiro
    250 618 {
    250 -382 v
    0 0 z
  EndSpiro
0 309 m 5,0,-1
 500 309 l 1029,1,2
  Spiro
    0 309 {
    500 309 v
    0 0 z
  EndSpiro
  Named: "G1Center"
295 618 m 5,3,-1
 295 -382 l 1029
  Spiro
    295 618 {
    295 -382 v
    0 0 z
  EndSpiro
  Named: "GLR"
205 618 m 5,5,-1
 205 -382 l 1029
  Spiro
    205 618 {
    205 -382 v
    0 0 z
  EndSpiro
  Named: "GRR"
0 118 m 5,0,-1
 500 118 l 1029,1,2
  Spiro
    0 118 {
    500 118 v
    0 0 z
  EndSpiro
  Named: "EMSquareCenter"
EndSplineSet
Fore
SplineSet
441 32 m 2,0,1
 441 0 441 0 418 0 c 256,2,3
 395 0 395 0 395 32 c 2,4,-1
 395 197 l 2,5,6
 395 260 395 260 345 301 c 0,7,8
 303 336 303 336 250 336 c 256,9,10
 198 336 198 336 158 299 c 0,11,12
 105 248 105 248 105 197 c 2,13,-1
 105 32 l 2,14,15
 105 0 105 0 82 0 c 256,16,17
 59 0 59 0 59 32 c 2,18,-1
 59 587 l 2,19,20
 59 618 59 618 82 618 c 256,21,22
 105 618 105 618 105 587 c 2,23,-1
 105 307 l 1,24,25
 159 382 159 382 250 382 c 0,26,27
 336 382 336 382 386 329 c 0,28,29
 441 270 441 270 441 197 c 2,30,-1
 441 32 l 2,0,1
EndSplineSet
EndChar

StartChar: i
Encoding: 329 105 73
Width: 500
VWidth: 852
Flags: MW
LayerCount: 2
Back
SplineSet
368 618 m 1,5,-1
 368 -382 l 1025
  Named: "GCEnd"
132 618 m 1,5,-1
 132 -382 l 1025
  Named: "GCStart"
0 73 m 1,0,-1
 500 73 l 1025,1,2
  Named: "G2Center"
0 -236 m 1,0,-1
 500 -236 l 1025,1,2
  Named: "G1Bottom"
0 386 m 1,0,-1
 500 386 l 1025,1,2
  Named: "G1Top"
59 618 m 1,3,-1
 59 -382 l 1025
  Named: "GLeft"
441 618 m 1,5,-1
 441 -382 l 1025
  Named: "GRight"
250 618 m 1,0,-1
 250 -382 l 1025
0 309 m 5,0,-1
 500 309 l 1025,1,2
  Named: "G1Center"
295 618 m 1,3,-1
 295 -382 l 1025
  Named: "GLR"
205 618 m 1,5,-1
 205 -382 l 1025
  Named: "GRR"
0 118 m 1,0,-1
 500 118 l 1025,1,2
  Named: "EMSquareCenter"
EndSplineSet
Fore
SplineSet
323 503 m 256,0,1
 323 474 323 474 301.5 453 c 128,-1,2
 280 432 280 432 250 432 c 256,3,4
 221 432 221 432 199.5 452.5 c 128,-1,5
 178 473 178 473 178 503 c 256,6,7
 178 532 178 532 199.5 553 c 128,-1,8
 221 574 221 574 250 574 c 256,9,10
 279 574 279 574 301 553 c 128,-1,11
 323 532 323 532 323 503 c 256,0,1
296 46 m 1,12,13
 368 45 368 45 368 23 c 256,14,15
 368 0 368 0 321 0 c 0,16,17
 251 0 251 0 250 60 c 1,18,-1
 250 340 l 1,19,-1
 158 340 l 2,20,21
 131 340 131 340 131 365 c 256,22,23
 131 386 131 386 158 386 c 2,24,-1
 270 386 l 2,25,26
 296 386 296 386 296 365 c 2,27,-1
 296 46 l 1,12,13
EndSplineSet
Validated: 1
EndChar

StartChar: j
Encoding: 330 106 74
Width: 500
VWidth: 852
Flags: MW
LayerCount: 2
Back
SplineSet
0 500 m 5,0,-1
 500 500 l 1029,1,2
  Spiro
    0 500 {
    500 500 v
    0 0 z
  EndSpiro
  Named: "G-500/500"
0 236 m 5,0,-1
 500 236 l 1029,1,2
  Spiro
    0 236 {
    500 236 v
    0 0 z
  EndSpiro
  Named: "G1GoldSplit"
0 309 m 5,0,-1
 500 309 l 1029,1,2
  Spiro
    0 309 {
    500 309 v
    0 0 z
  EndSpiro
  Named: "G1Center"
368 618 m 5,5,-1
 368 -382 l 1029
  Spiro
    368 618 {
    368 -382 v
    0 0 z
  EndSpiro
  Named: "GCEnd"
132 618 m 5,5,-1
 132 -382 l 1029
  Spiro
    132 618 {
    132 -382 v
    0 0 z
  EndSpiro
  Named: "GCStart"
0 73 m 5,0,-1
 500 73 l 1029,1,2
  Spiro
    0 73 {
    500 73 v
    0 0 z
  EndSpiro
  Named: "G2Center"
0 -236 m 5,0,-1
 500 -236 l 1029,1,2
  Spiro
    0 -236 {
    500 -236 v
    0 0 z
  EndSpiro
  Named: "G2Bottom"
0 382 m 5,0,-1
 500 382 l 1029,1,2
  Spiro
    0 382 {
    500 382 v
    0 0 z
  EndSpiro
  Named: "G2Top"
59 618 m 5,3,-1
 59 -382 l 1029
  Spiro
    59 618 {
    59 -382 v
    0 0 z
  EndSpiro
  Named: "GLeft"
441 618 m 5,5,-1
 441 -382 l 1029
  Spiro
    441 618 {
    441 -382 v
    0 0 z
  EndSpiro
  Named: "GRight"
250 618 m 5,0,-1
 250 -382 l 1029
  Spiro
    250 618 {
    250 -382 v
    0 0 z
  EndSpiro
0 309 m 5,0,-1
 500 309 l 1029,1,2
  Spiro
    0 309 {
    500 309 v
    0 0 z
  EndSpiro
  Named: "G1Center"
295 618 m 5,3,-1
 295 -382 l 1029
  Spiro
    295 618 {
    295 -382 v
    0 0 z
  EndSpiro
  Named: "GLR"
205 618 m 5,5,-1
 205 -382 l 1029
  Spiro
    205 618 {
    205 -382 v
    0 0 z
  EndSpiro
  Named: "GRR"
0 118 m 5,0,-1
 500 118 l 1029,1,2
  Spiro
    0 118 {
    500 118 v
    0 0 z
  EndSpiro
  Named: "EMSquareCenter"
EndSplineSet
Fore
SplineSet
441 520 m 256,0,1
 441 491 441 491 419.5 469 c 128,-1,2
 398 447 398 447 367 447 c 256,3,4
 338 447 338 447 316 468 c 128,-1,5
 294 489 294 489 294 520 c 256,6,7
 294 549 294 549 315 571 c 128,-1,8
 336 593 336 593 367 593 c 256,9,10
 396 593 396 593 418.5 571 c 128,-1,11
 441 549 441 549 441 520 c 256,0,1
418 382 m 6,12,13
 441 382 441 382 441 359 c 6,14,-1
 441 23 l 6,15,16
 441 -36 441 -36 434 -75 c 4,17,18
 418 -168 418 -168 338 -213 c 4,19,20
 297 -236 297 -236 251.5 -236 c 132,-1,21
 206 -236 206 -236 166 -217 c 4,22,23
 80 -176 80 -176 62 -73 c 4,24,25
 59 -56 59 -56 59 -23 c 4,26,27
 59 -1 59 -1 82 -1 c 132,-1,28
 105 -1 105 -1 105 -23 c 4,29,30
 105 -102 105 -102 125 -127 c 4,31,32
 174 -190 174 -190 241 -190 c 4,33,34
 282 -190 282 -190 315 -170 c 4,35,36
 378 -131 378 -131 391 -49 c 4,37,38
 395 -24 395 -24 395 23 c 6,39,-1
 395 336 l 5,40,-1
 241 336 l 6,41,42
 205 336 205 336 205 359 c 132,-1,43
 205 382 205 382 241 382 c 6,44,-1
 418 382 l 6,12,13
EndSplineSet
Validated: 1
EndChar

StartChar: k
Encoding: 331 107 75
Width: 500
VWidth: 852
Flags: MW
LayerCount: 2
Back
SplineSet
0 500 m 1,0,-1
 500 500 l 1025,1,2
  Spiro
    0 500 {
    500 500 v
    0 0 z
  EndSpiro
  Named: "G-500/500"
0 236 m 1,0,-1
 500 236 l 1025,1,2
  Spiro
    0 236 {
    500 236 v
    0 0 z
  EndSpiro
  Named: "G1GoldSplit"
0 309 m 1,0,-1
 500 309 l 1025,1,2
  Spiro
    0 309 {
    500 309 v
    0 0 z
  EndSpiro
  Named: "G1Center"
368 618 m 1,5,-1
 368 -382 l 1025
  Spiro
    368 618 {
    368 -382 v
    0 0 z
  EndSpiro
  Named: "GCEnd"
132 618 m 1,5,-1
 132 -382 l 1025
  Spiro
    132 618 {
    132 -382 v
    0 0 z
  EndSpiro
  Named: "GCStart"
0 73 m 1,0,-1
 500 73 l 1025,1,2
  Spiro
    0 73 {
    500 73 v
    0 0 z
  EndSpiro
  Named: "G2Center"
0 -236 m 1,0,-1
 500 -236 l 1025,1,2
  Spiro
    0 -236 {
    500 -236 v
    0 0 z
  EndSpiro
  Named: "G2Bottom"
0 382 m 1,0,-1
 500 382 l 1025,1,2
  Spiro
    0 382 {
    500 382 v
    0 0 z
  EndSpiro
  Named: "G2Top"
59 618 m 1,3,-1
 59 -382 l 1025
  Spiro
    59 618 {
    59 -382 v
    0 0 z
  EndSpiro
  Named: "GLeft"
441 618 m 1,5,-1
 441 -382 l 1025
  Spiro
    441 618 {
    441 -382 v
    0 0 z
  EndSpiro
  Named: "GRight"
250 618 m 1,0,-1
 250 -382 l 1025
  Spiro
    250 618 {
    250 -382 v
    0 0 z
  EndSpiro
0 309 m 1,0,-1
 500 309 l 1025,1,2
  Spiro
    0 309 {
    500 309 v
    0 0 z
  EndSpiro
  Named: "G1Center"
295 618 m 1,3,-1
 295 -382 l 1025
  Spiro
    295 618 {
    295 -382 v
    0 0 z
  EndSpiro
  Named: "GLR"
205 618 m 1,5,-1
 205 -382 l 1025
  Spiro
    205 618 {
    205 -382 v
    0 0 z
  EndSpiro
  Named: "GRR"
0 118 m 1,0,-1
 500 118 l 1025,1,2
  Spiro
    0 118 {
    500 118 v
    0 0 z
  EndSpiro
  Named: "EMSquareCenter"
EndSplineSet
Fore
SplineSet
423 47 m 2,0,1
 441 37 441 37 441 30 c 0,2,3
 441 20 441 20 433.5 10 c 128,-1,4
 426 0 426 0 416 0 c 0,5,6
 413 0 413 0 396 10 c 2,7,-1
 121 168 l 2,8,9
 107 176 107 176 105 186 c 1,10,-1
 105 23 l 2,11,12
 105 1 105 1 82 1 c 256,13,14
 59 1 59 1 59 23 c 2,15,-1
 59 595 l 2,16,17
 59 618 59 618 81 618 c 0,18,19
 105 618 105 618 105 595 c 0,20,21
 105 396 105 396 105 197 c 1,22,23
 107 206 107 206 121 214 c 1,24,-1
 396 376 l 2,25,26
 404 381 404 381 413 381 c 0,27,28
 423 381 423 381 431.5 371.5 c 128,-1,29
 440 362 440 362 440 352 c 0,30,31
 440 346 440 346 419 334 c 2,32,-1
 174 191 l 1,33,-1
 423 47 l 2,0,1
EndSplineSet
Validated: 1
EndChar

StartChar: l
Encoding: 332 108 76
Width: 500
VWidth: 852
Flags: MW
LayerCount: 2
Back
SplineSet
0 500 m 1,0,-1
 500 500 l 1025,1,2
  Spiro
    0 500 {
    500 500 v
    0 0 z
  EndSpiro
  Named: "G-500/500"
0 236 m 1,0,-1
 500 236 l 1025,1,2
  Spiro
    0 236 {
    500 236 v
    0 0 z
  EndSpiro
  Named: "G1GoldSplit"
0 309 m 1,0,-1
 500 309 l 1025,1,2
  Spiro
    0 309 {
    500 309 v
    0 0 z
  EndSpiro
  Named: "G1Center"
368 618 m 1,5,-1
 368 -382 l 1025
  Spiro
    368 618 {
    368 -382 v
    0 0 z
  EndSpiro
  Named: "GCEnd"
132 618 m 1,5,-1
 132 -382 l 1025
  Spiro
    132 618 {
    132 -382 v
    0 0 z
  EndSpiro
  Named: "GCStart"
0 73 m 1,0,-1
 500 73 l 1025,1,2
  Spiro
    0 73 {
    500 73 v
    0 0 z
  EndSpiro
  Named: "G2Center"
0 -236 m 1,0,-1
 500 -236 l 1025,1,2
  Spiro
    0 -236 {
    500 -236 v
    0 0 z
  EndSpiro
  Named: "G2Bottom"
0 382 m 1,0,-1
 500 382 l 1025,1,2
  Spiro
    0 382 {
    500 382 v
    0 0 z
  EndSpiro
  Named: "G2Top"
59 618 m 1,3,-1
 59 -382 l 1025
  Spiro
    59 618 {
    59 -382 v
    0 0 z
  EndSpiro
  Named: "GLeft"
441 618 m 1,5,-1
 441 -382 l 1025
  Spiro
    441 618 {
    441 -382 v
    0 0 z
  EndSpiro
  Named: "GRight"
250 618 m 1,0,-1
 250 -382 l 1025
  Spiro
    250 618 {
    250 -382 v
    0 0 z
  EndSpiro
0 309 m 1,0,-1
 500 309 l 1025,1,2
  Spiro
    0 309 {
    500 309 v
    0 0 z
  EndSpiro
  Named: "G1Center"
295 618 m 1,3,-1
 295 -382 l 1025
  Spiro
    295 618 {
    295 -382 v
    0 0 z
  EndSpiro
  Named: "GLR"
205 618 m 1,5,-1
 205 -382 l 1025
  Spiro
    205 618 {
    205 -382 v
    0 0 z
  EndSpiro
  Named: "GRR"
0 118 m 1,0,-1
 500 118 l 1025,1,2
  Spiro
    0 118 {
    500 118 v
    0 0 z
  EndSpiro
  Named: "EMSquareCenter"
EndSplineSet
Fore
SplineSet
441 218 m 1,0,1
 441 100 441 100 385 50 c 128,-1,2
 329 0 329 0 250 0 c 256,3,4
 171 0 171 0 115 59 c 128,-1,5
 59 118 59 118 59 199 c 2,6,-1
 59 590 l 2,7,8
 59 618 59 618 82 618 c 128,-1,9
 105 618 105 618 105 590 c 2,10,-1
 105 199 l 2,11,12
 105 145 105 145 143.5 95.5 c 128,-1,13
 182 46 182 46 250 46 c 256,14,15
 317 46 317 46 356 85.5 c 128,-1,16
 395 125 395 125 395 217 c 1,17,18
 395 236 395 236 417 236 c 0,19,20
 441 236 441 236 441 218 c 1,0,1
EndSplineSet
Validated: 1
EndChar

StartChar: m
Encoding: 333 109 77
Width: 500
VWidth: 852
Flags: MW
LayerCount: 2
Back
SplineSet
0 500 m 5,0,-1
 500 500 l 1029,1,2
  Spiro
    0 500 {
    500 500 v
    0 0 z
  EndSpiro
  Named: "G-500/500"
0 236 m 5,0,-1
 500 236 l 1029,1,2
  Spiro
    0 236 {
    500 236 v
    0 0 z
  EndSpiro
  Named: "G1GoldSplit"
0 309 m 5,0,-1
 500 309 l 1029,1,2
  Spiro
    0 309 {
    500 309 v
    0 0 z
  EndSpiro
  Named: "G1Center"
368 618 m 5,5,-1
 368 -382 l 1029
  Spiro
    368 618 {
    368 -382 v
    0 0 z
  EndSpiro
  Named: "GCEnd"
132 618 m 5,5,-1
 132 -382 l 1029
  Spiro
    132 618 {
    132 -382 v
    0 0 z
  EndSpiro
  Named: "GCStart"
0 73 m 5,0,-1
 500 73 l 1029,1,2
  Spiro
    0 73 {
    500 73 v
    0 0 z
  EndSpiro
  Named: "G2Center"
0 -236 m 5,0,-1
 500 -236 l 1029,1,2
  Spiro
    0 -236 {
    500 -236 v
    0 0 z
  EndSpiro
  Named: "G2Bottom"
0 382 m 5,0,-1
 500 382 l 1029,1,2
  Spiro
    0 382 {
    500 382 v
    0 0 z
  EndSpiro
  Named: "G2Top"
59 618 m 5,3,-1
 59 -382 l 1029
  Spiro
    59 618 {
    59 -382 v
    0 0 z
  EndSpiro
  Named: "GLeft"
441 618 m 5,5,-1
 441 -382 l 1029
  Spiro
    441 618 {
    441 -382 v
    0 0 z
  EndSpiro
  Named: "GRight"
250 618 m 5,0,-1
 250 -382 l 1029
  Spiro
    250 618 {
    250 -382 v
    0 0 z
  EndSpiro
0 309 m 5,0,-1
 500 309 l 1029,1,2
  Spiro
    0 309 {
    500 309 v
    0 0 z
  EndSpiro
  Named: "G1Center"
295 618 m 5,3,-1
 295 -382 l 1029
  Spiro
    295 618 {
    295 -382 v
    0 0 z
  EndSpiro
  Named: "GLR"
205 618 m 5,5,-1
 205 -382 l 1029
  Spiro
    205 618 {
    205 -382 v
    0 0 z
  EndSpiro
  Named: "GRR"
0 118 m 5,0,-1
 500 118 l 1029,1,2
  Spiro
    0 118 {
    500 118 v
    0 0 z
  EndSpiro
  Named: "EMSquareCenter"
EndSplineSet
Fore
SplineSet
441 28 m 2,0,1
 441 0 441 0 418 0 c 256,2,3
 395 0 395 0 395 28 c 2,4,-1
 395 273 l 2,5,6
 395 306 395 306 379 321 c 128,-1,7
 363 336 363 336 332 336 c 256,8,9
 309 336 309 336 291 320.5 c 128,-1,10
 273 305 273 305 273 273 c 2,11,-1
 273 28 l 2,12,13
 273 0 273 0 250 0 c 256,14,15
 227 0 227 0 227 28 c 2,16,-1
 227 273 l 2,17,18
 227 306 227 306 208.5 321 c 128,-1,19
 190 336 190 336 167 336 c 256,20,21
 139 336 139 336 122 320.5 c 128,-1,22
 105 305 105 305 105 273 c 2,23,-1
 105 28 l 2,24,25
 105 0 105 0 82 0 c 256,26,27
 59 0 59 0 59 28 c 2,28,-1
 59 354 l 2,29,30
 59 382 59 382 82 382 c 0,31,32
 98 382 98 382 105 365 c 1,33,34
 132 381 132 381 167 382 c 0,35,36
 217 382 217 382 250 344 c 1,37,38
 283 381 283 381 332 382 c 0,39,40
 382 382 382 382 414 350 c 0,41,42
 441 322 441 322 441 273 c 2,43,-1
 441 28 l 2,0,1
EndSplineSet
Validated: 1
EndChar

StartChar: n
Encoding: 334 110 78
Width: 500
VWidth: 852
Flags: MW
LayerCount: 2
Back
SplineSet
0 500 m 5,0,-1
 500 500 l 1029,1,2
  Spiro
    0 500 {
    500 500 v
    0 0 z
  EndSpiro
  Named: "G-500/500"
0 236 m 5,0,-1
 500 236 l 1029,1,2
  Spiro
    0 236 {
    500 236 v
    0 0 z
  EndSpiro
  Named: "G1GoldSplit"
0 309 m 5,0,-1
 500 309 l 1029,1,2
  Spiro
    0 309 {
    500 309 v
    0 0 z
  EndSpiro
  Named: "G1Center"
368 618 m 5,5,-1
 368 -382 l 1029
  Spiro
    368 618 {
    368 -382 v
    0 0 z
  EndSpiro
  Named: "GCEnd"
132 618 m 5,5,-1
 132 -382 l 1029
  Spiro
    132 618 {
    132 -382 v
    0 0 z
  EndSpiro
  Named: "GCStart"
0 73 m 5,0,-1
 500 73 l 1029,1,2
  Spiro
    0 73 {
    500 73 v
    0 0 z
  EndSpiro
  Named: "G2Center"
0 -236 m 5,0,-1
 500 -236 l 1029,1,2
  Spiro
    0 -236 {
    500 -236 v
    0 0 z
  EndSpiro
  Named: "G2Bottom"
0 382 m 5,0,-1
 500 382 l 1029,1,2
  Spiro
    0 382 {
    500 382 v
    0 0 z
  EndSpiro
  Named: "G2Top"
59 618 m 5,3,-1
 59 -382 l 1029
  Spiro
    59 618 {
    59 -382 v
    0 0 z
  EndSpiro
  Named: "GLeft"
441 618 m 5,5,-1
 441 -382 l 1029
  Spiro
    441 618 {
    441 -382 v
    0 0 z
  EndSpiro
  Named: "GRight"
250 618 m 5,0,-1
 250 -382 l 1029
  Spiro
    250 618 {
    250 -382 v
    0 0 z
  EndSpiro
0 309 m 5,0,-1
 500 309 l 1029,1,2
  Spiro
    0 309 {
    500 309 v
    0 0 z
  EndSpiro
  Named: "G1Center"
295 618 m 5,3,-1
 295 -382 l 1029
  Spiro
    295 618 {
    295 -382 v
    0 0 z
  EndSpiro
  Named: "GLR"
205 618 m 5,5,-1
 205 -382 l 1029
  Spiro
    205 618 {
    205 -382 v
    0 0 z
  EndSpiro
  Named: "GRR"
0 118 m 5,0,-1
 500 118 l 1029,1,2
  Spiro
    0 118 {
    500 118 v
    0 0 z
  EndSpiro
  Named: "EMSquareCenter"
EndSplineSet
Fore
SplineSet
441 29 m 2,0,1
 441 0 441 0 418 0 c 256,2,3
 395 0 395 0 395 29 c 2,4,-1
 395 210 l 2,5,6
 395 255 395 255 350 302 c 0,7,8
 317 336 317 336 250 336 c 256,9,10
 178 336 178 336 138 300 c 0,11,12
 105 269 105 269 105 210 c 2,13,-1
 105 29 l 2,14,15
 105 0 105 0 82 0 c 256,16,17
 59 0 59 0 59 29 c 2,18,-1
 59 353 l 2,19,20
 59 382 59 382 82 382 c 256,21,22
 105 382 105 382 105 357 c 0,23,-1
 105 338 l 1,24,25
 159 382 159 382 250 382 c 0,26,27
 329 382 329 382 385 331.5 c 128,-1,28
 441 281 441 281 441 210 c 2,29,-1
 441 29 l 2,0,1
EndSplineSet
Validated: 1
EndChar

StartChar: o
Encoding: 335 111 79
Width: 500
VWidth: 852
Flags: MW
LayerCount: 2
Back
SplineSet
0 500 m 5,0,-1
 500 500 l 1029,1,2
  Spiro
    0 500 {
    500 500 v
    0 0 z
  EndSpiro
  Named: "G-500/500"
0 236 m 5,0,-1
 500 236 l 1029,1,2
  Spiro
    0 236 {
    500 236 v
    0 0 z
  EndSpiro
  Named: "G1GoldSplit"
0 309 m 5,0,-1
 500 309 l 1029,1,2
  Spiro
    0 309 {
    500 309 v
    0 0 z
  EndSpiro
  Named: "G1Center"
368 618 m 5,5,-1
 368 -382 l 1029
  Spiro
    368 618 {
    368 -382 v
    0 0 z
  EndSpiro
  Named: "GCEnd"
132 618 m 5,5,-1
 132 -382 l 1029
  Spiro
    132 618 {
    132 -382 v
    0 0 z
  EndSpiro
  Named: "GCStart"
0 73 m 5,0,-1
 500 73 l 1029,1,2
  Spiro
    0 73 {
    500 73 v
    0 0 z
  EndSpiro
  Named: "G2Center"
0 -236 m 5,0,-1
 500 -236 l 1029,1,2
  Spiro
    0 -236 {
    500 -236 v
    0 0 z
  EndSpiro
  Named: "G2Bottom"
0 382 m 5,0,-1
 500 382 l 1029,1,2
  Spiro
    0 382 {
    500 382 v
    0 0 z
  EndSpiro
  Named: "G2Top"
59 618 m 5,3,-1
 59 -382 l 1029
  Spiro
    59 618 {
    59 -382 v
    0 0 z
  EndSpiro
  Named: "GLeft"
441 618 m 5,5,-1
 441 -382 l 1029
  Spiro
    441 618 {
    441 -382 v
    0 0 z
  EndSpiro
  Named: "GRight"
250 618 m 5,0,-1
 250 -382 l 1029
  Spiro
    250 618 {
    250 -382 v
    0 0 z
  EndSpiro
0 309 m 5,0,-1
 500 309 l 1029,1,2
  Spiro
    0 309 {
    500 309 v
    0 0 z
  EndSpiro
  Named: "G1Center"
295 618 m 5,3,-1
 295 -382 l 1029
  Spiro
    295 618 {
    295 -382 v
    0 0 z
  EndSpiro
  Named: "GLR"
205 618 m 5,5,-1
 205 -382 l 1029
  Spiro
    205 618 {
    205 -382 v
    0 0 z
  EndSpiro
  Named: "GRR"
0 118 m 5,0,-1
 500 118 l 1029,1,2
  Spiro
    0 118 {
    500 118 v
    0 0 z
  EndSpiro
  Named: "EMSquareCenter"
EndSplineSet
Fore
SplineSet
441 192 m 256,0,1
 441 113 441 113 385 56.5 c 128,-1,2
 329 0 329 0 250 0 c 256,3,4
 171 0 171 0 115 56 c 128,-1,5
 59 112 59 112 59 192 c 256,6,7
 59 269 59 269 114.5 325.5 c 128,-1,8
 170 382 170 382 250 382 c 256,9,10
 328 382 328 382 384.5 325.5 c 128,-1,11
 441 269 441 269 441 192 c 256,0,1
395 192 m 256,12,13
 395 252 395 252 352 294 c 128,-1,14
 309 336 309 336 250 336 c 256,15,16
 190 336 190 336 147.5 294 c 128,-1,17
 105 252 105 252 105 192 c 256,18,19
 105 132 105 132 147.5 89 c 128,-1,20
 190 46 190 46 250 46 c 256,21,22
 309 46 309 46 352 89 c 128,-1,23
 395 132 395 132 395 192 c 256,12,13
EndSplineSet
Validated: 1
EndChar

StartChar: p
Encoding: 336 112 80
Width: 500
VWidth: 852
Flags: MW
LayerCount: 2
Back
SplineSet
0 236 m 5,0,-1
 500 236 l 1029,1,2
  Named: "G1GoldSplit"
0 309 m 5,0,-1
 500 309 l 1029,1,2
  Named: "G1Center"
368 618 m 5,5,-1
 368 -382 l 1029
  Named: "GCEnd"
132 618 m 5,5,-1
 132 -382 l 1029
  Named: "GCStart"
0 73 m 5,0,-1
 500 73 l 1029,1,2
  Named: "G2Center"
0 -236 m 5,0,-1
 500 -236 l 1029,1,2
  Named: "G2Bottom"
0 382 m 5,0,-1
 500 382 l 1029,1,2
  Named: "G2Top"
59 618 m 5,3,-1
 59 -382 l 1029
  Named: "GLeft"
441 618 m 5,5,-1
 441 -382 l 1029
  Named: "GRight"
250 618 m 5,0,-1
 250 -382 l 1029
0 309 m 5,0,-1
 500 309 l 1029,1,2
  Named: "G1Center"
295 618 m 5,3,-1
 295 -382 l 1029
  Named: "GLR"
205 618 m 5,5,-1
 205 -382 l 1029
  Named: "GRR"
0 118 m 5,0,-1
 500 118 l 1029,1,2
  Named: "EMSquareCenter"
EndSplineSet
Fore
SplineSet
441 192 m 260,0,1
 441 118 441 118 388 63 c 4,2,3
 328 1 328 1 247 0 c 4,4,5
 165 0 165 0 105 54 c 5,6,-1
 105 -208 l 6,7,8
 105 -236 105 -236 82 -236 c 260,9,10
 59 -236 59 -236 59 -208 c 6,11,-1
 59 351 l 6,12,13
 59 382 59 382 82 382 c 132,-1,14
 105 382 105 382 105 360 c 4,15,16
 105 332 105 332 105 327 c 5,17,18
 164 381 164 381 247 382 c 4,19,20
 327 382 327 382 388 320 c 4,21,22
 441 266 441 266 441 192 c 260,0,1
395 192 m 260,23,24
 395 246 395 246 354 289 c 4,25,26
 311 335 311 335 247 336 c 260,27,28
 190 336 190 336 146 289 c 4,29,30
 105 244 105 244 105 192 c 260,31,32
 105 136 105 136 146 92 c 4,33,34
 189 46 189 46 247 46 c 260,35,36
 310 46 310 46 354 92 c 4,37,38
 395 135 395 135 395 192 c 260,23,24
EndSplineSet
Validated: 1
EndChar

StartChar: q
Encoding: 337 113 81
Width: 500
VWidth: 852
Flags: MW
LayerCount: 2
Back
SplineSet
0 236 m 5,0,-1
 500 236 l 1029,1,2
  Named: "G1GoldSplit"
0 309 m 5,0,-1
 500 309 l 1029,1,2
  Named: "G1Center"
368 618 m 5,5,-1
 368 -382 l 1029
  Named: "GCEnd"
132 618 m 5,5,-1
 132 -382 l 1029
  Named: "GCStart"
0 73 m 5,0,-1
 500 73 l 1029,1,2
  Named: "G2Center"
0 -236 m 5,0,-1
 500 -236 l 1029,1,2
  Named: "G2Bottom"
0 382 m 5,0,-1
 500 382 l 1029,1,2
  Named: "G2Top"
59 618 m 5,3,-1
 59 -382 l 1029
  Named: "GLeft"
441 618 m 5,5,-1
 441 -382 l 1029
  Named: "GRight"
250 618 m 5,0,-1
 250 -382 l 1029
0 309 m 5,0,-1
 500 309 l 1029,1,2
  Named: "G1Center"
295 618 m 5,3,-1
 295 -382 l 1029
  Named: "GLR"
205 618 m 5,5,-1
 205 -382 l 1029
  Named: "GRR"
0 118 m 5,0,-1
 500 118 l 1029,1,2
  Named: "EMSquareCenter"
EndSplineSet
Fore
SplineSet
59 192 m 256,0,1
 59 266 59 266 112 320 c 0,2,3
 173 382 173 382 253 382 c 0,4,5
 336 381 336 381 395 327 c 1,6,7
 395 332 395 332 395 360 c 0,8,9
 395 382 395 382 418 382 c 128,-1,10
 441 382 441 382 441 351 c 2,11,-1
 441 -208 l 2,12,13
 441 -236 441 -236 418 -236 c 256,14,15
 395 -236 395 -236 395 -208 c 2,16,-1
 395 54 l 1,17,18
 335 0 335 0 253 0 c 0,19,20
 172 1 172 1 112 63 c 0,21,22
 59 118 59 118 59 192 c 256,0,1
105 192 m 256,23,24
 105 135 105 135 146 92 c 0,25,26
 190 46 190 46 253 46 c 256,27,28
 311 46 311 46 354 92 c 0,29,30
 395 136 395 136 395 192 c 256,31,32
 395 244 395 244 354 289 c 0,33,34
 310 336 310 336 253 336 c 256,35,36
 189 335 189 335 146 289 c 0,37,38
 105 246 105 246 105 192 c 256,23,24
EndSplineSet
Validated: 1
EndChar

StartChar: r
Encoding: 338 114 82
Width: 500
VWidth: 852
Flags: MW
LayerCount: 2
Back
SplineSet
0 500 m 5,0,-1
 500 500 l 1029,1,2
  Spiro
    0 500 {
    500 500 v
    0 0 z
  EndSpiro
  Named: "G-500/500"
0 236 m 5,0,-1
 500 236 l 1029,1,2
  Spiro
    0 236 {
    500 236 v
    0 0 z
  EndSpiro
  Named: "G1GoldSplit"
0 309 m 5,0,-1
 500 309 l 1029,1,2
  Spiro
    0 309 {
    500 309 v
    0 0 z
  EndSpiro
  Named: "G1Center"
368 618 m 5,5,-1
 368 -382 l 1029
  Spiro
    368 618 {
    368 -382 v
    0 0 z
  EndSpiro
  Named: "GCEnd"
132 618 m 5,5,-1
 132 -382 l 1029
  Spiro
    132 618 {
    132 -382 v
    0 0 z
  EndSpiro
  Named: "GCStart"
0 73 m 5,0,-1
 500 73 l 1029,1,2
  Spiro
    0 73 {
    500 73 v
    0 0 z
  EndSpiro
  Named: "G2Center"
0 -236 m 5,0,-1
 500 -236 l 1029,1,2
  Spiro
    0 -236 {
    500 -236 v
    0 0 z
  EndSpiro
  Named: "G2Bottom"
0 382 m 5,0,-1
 500 382 l 1029,1,2
  Spiro
    0 382 {
    500 382 v
    0 0 z
  EndSpiro
  Named: "G2Top"
59 618 m 5,3,-1
 59 -382 l 1029
  Spiro
    59 618 {
    59 -382 v
    0 0 z
  EndSpiro
  Named: "GLeft"
441 618 m 5,5,-1
 441 -382 l 1029
  Spiro
    441 618 {
    441 -382 v
    0 0 z
  EndSpiro
  Named: "GRight"
250 618 m 5,0,-1
 250 -382 l 1029
  Spiro
    250 618 {
    250 -382 v
    0 0 z
  EndSpiro
0 309 m 5,0,-1
 500 309 l 1029,1,2
  Spiro
    0 309 {
    500 309 v
    0 0 z
  EndSpiro
  Named: "G1Center"
295 618 m 5,3,-1
 295 -382 l 1029
  Spiro
    295 618 {
    295 -382 v
    0 0 z
  EndSpiro
  Named: "GLR"
205 618 m 5,5,-1
 205 -382 l 1029
  Spiro
    205 618 {
    205 -382 v
    0 0 z
  EndSpiro
  Named: "GRR"
0 118 m 5,0,-1
 500 118 l 1029,1,2
  Spiro
    0 118 {
    500 118 v
    0 0 z
  EndSpiro
  Named: "EMSquareCenter"
EndSplineSet
Fore
SplineSet
441 293 m 0,0,1
 441 280 441 280 432 274 c 128,-1,3
 423 268 423 268 417 268 c 0,4,5
 408 268 408 268 397 277 c 0,6,7
 332 336 332 336 270 336 c 256,8,9
 184 336 184 336 140 292 c 0,10,11
 106 258 106 258 105 191 c 2,12,-1
 105 28 l 2,13,14
 105 0 105 0 82 0 c 256,15,16
 59 0 59 0 59 28 c 2,17,-1
 59 354 l 2,18,19
 59 382 59 382 82 382 c 0,20,21
 99 382 99 382 105 362 c 0,22,23
 106 358 106 358 106 344 c 0,24,25
 106 335 106 335 105 324 c 1,26,27
 167 381 167 381 270 382 c 0,28,29
 316 382 316 382 362 363 c 0,30,31
 411 343 411 343 434 310 c 0,32,33
 441 300 441 300 441 293 c 0,0,1
EndSplineSet
Validated: 1
EndChar

StartChar: s
Encoding: 339 115 83
Width: 500
VWidth: 852
Flags: MW
LayerCount: 2
Back
SplineSet
0 500 m 1,0,-1
 500 500 l 1025,1,2
  Spiro
    0 500 {
    500 500 v
    0 0 z
  EndSpiro
  Named: "G-500/500"
0 236 m 1,0,-1
 500 236 l 1025,1,2
  Spiro
    0 236 {
    500 236 v
    0 0 z
  EndSpiro
  Named: "G1GoldSplit"
0 309 m 1,0,-1
 500 309 l 1025,1,2
  Spiro
    0 309 {
    500 309 v
    0 0 z
  EndSpiro
  Named: "G1Center"
368 618 m 5,5,-1
 368 -382 l 1025
  Spiro
    368 618 {
    368 -382 v
    0 0 z
  EndSpiro
  Named: "GCEnd"
132 618 m 1,5,-1
 132 -382 l 1025
  Spiro
    132 618 {
    132 -382 v
    0 0 z
  EndSpiro
  Named: "GCStart"
0 73 m 1,0,-1
 500 73 l 1025,1,2
  Spiro
    0 73 {
    500 73 v
    0 0 z
  EndSpiro
  Named: "G2Center"
0 -236 m 1,0,-1
 500 -236 l 1025,1,2
  Spiro
    0 -236 {
    500 -236 v
    0 0 z
  EndSpiro
  Named: "G2Bottom"
0 382 m 1,0,-1
 500 382 l 1025,1,2
  Spiro
    0 382 {
    500 382 v
    0 0 z
  EndSpiro
  Named: "G2Top"
59 618 m 1,3,-1
 59 -382 l 1025
  Spiro
    59 618 {
    59 -382 v
    0 0 z
  EndSpiro
  Named: "GLeft"
441 618 m 1,5,-1
 441 -382 l 1025
  Spiro
    441 618 {
    441 -382 v
    0 0 z
  EndSpiro
  Named: "GRight"
250 618 m 1,0,-1
 250 -382 l 1025
  Spiro
    250 618 {
    250 -382 v
    0 0 z
  EndSpiro
0 309 m 1,0,-1
 500 309 l 1025,1,2
  Spiro
    0 309 {
    500 309 v
    0 0 z
  EndSpiro
  Named: "G1Center"
295 618 m 1,3,-1
 295 -382 l 1025
  Spiro
    295 618 {
    295 -382 v
    0 0 z
  EndSpiro
  Named: "GLR"
205 618 m 1,5,-1
 205 -382 l 1025
  Spiro
    205 618 {
    205 -382 v
    0 0 z
  EndSpiro
  Named: "GRR"
0 118 m 1,0,-1
 500 118 l 1025,1,2
  Spiro
    0 118 {
    500 118 v
    0 0 z
  EndSpiro
  Named: "EMSquareCenter"
EndSplineSet
Fore
SplineSet
224 245 m 0,0,1
 239 240 239 240 295 224 c 0,2,3
 360 204 360 204 399 182 c 0,4,5
 413 174 413 174 426.5 157 c 128,-1,6
 440 140 440 140 441 112 c 0,7,8
 441 78 441 78 422 58 c 0,9,10
 363 0 363 0 258 0 c 0,11,12
 125 0 125 0 65 84 c 0,13,14
 55 98 55 98 64 108 c 0,15,16
 75 121 75 121 83 121 c 0,17,18
 87 121 87 121 90 118 c 8,19,20
 164 44 164 44 260 44 c 0,21,22
 377 44 377 44 391 94 c 0,23,24
 393 101 393 101 393 107 c 0,25,26
 393 128 393 128 370 142 c 0,27,28
 340 161 340 161 277.5 184 c 128,-1,29
 215 207 215 207 193 217 c 128,-1,30
 171 227 171 227 153 246 c 0,31,32
 130 271 130 271 130 299 c 0,33,34
 130 316 130 316 138 333 c 0,35,36
 147 353 147 353 166 365 c 0,37,38
 192 383 192 383 230 383 c 0,39,40
 242 383 242 383 254 381 c 0,41,42
 320 372 320 372 356 331 c 0,43,44
 363 323 363 323 363 316 c 0,45,46
 363 308 363 308 353 299 c 0,47,48
 345 294 345 294 341 294 c 0,49,50
 333 295 333 295 324 302 c 0,51,52
 267 339 267 339 229 339 c 0,53,54
 213 339 213 339 201 332 c 0,55,56
 178 320 178 320 178 288 c 1,57,58
 182 259 182 259 224 245 c 0,0,1
EndSplineSet
Validated: 1
EndChar

StartChar: t
Encoding: 340 116 84
Width: 500
VWidth: 2400
Flags: MW
LayerCount: 2
Back
SplineSet
0 500 m 1,0,-1
 500 500 l 1025,1,2
  Spiro
    0 500 {
    500 500 v
    0 0 z
  EndSpiro
  Named: "G-500/500"
0 236 m 1,0,-1
 500 236 l 1025,1,2
  Spiro
    0 236 {
    500 236 v
    0 0 z
  EndSpiro
  Named: "G1GoldSplit"
0 309 m 1,0,-1
 500 309 l 1025,1,2
  Spiro
    0 309 {
    500 309 v
    0 0 z
  EndSpiro
  Named: "G1Center"
368 618 m 1,5,-1
 368 -382 l 1025
  Spiro
    368 618 {
    368 -382 v
    0 0 z
  EndSpiro
  Named: "GCEnd"
132 618 m 1,5,-1
 132 -382 l 1025
  Spiro
    132 618 {
    132 -382 v
    0 0 z
  EndSpiro
  Named: "GCStart"
0 73 m 1,0,-1
 500 73 l 1025,1,2
  Spiro
    0 73 {
    500 73 v
    0 0 z
  EndSpiro
  Named: "G2Center"
0 -236 m 1,0,-1
 500 -236 l 1025,1,2
  Spiro
    0 -236 {
    500 -236 v
    0 0 z
  EndSpiro
  Named: "G2Bottom"
0 382 m 1,0,-1
 500 382 l 1025,1,2
  Spiro
    0 382 {
    500 382 v
    0 0 z
  EndSpiro
  Named: "G2Top"
59 618 m 1,3,-1
 59 -382 l 1025
  Spiro
    59 618 {
    59 -382 v
    0 0 z
  EndSpiro
  Named: "GLeft"
441 618 m 1,5,-1
 441 -382 l 1025
  Spiro
    441 618 {
    441 -382 v
    0 0 z
  EndSpiro
  Named: "GRight"
250 618 m 1,0,-1
 250 -382 l 1025
  Spiro
    250 618 {
    250 -382 v
    0 0 z
  EndSpiro
0 309 m 1,0,-1
 500 309 l 1025,1,2
  Spiro
    0 309 {
    500 309 v
    0 0 z
  EndSpiro
  Named: "G1Center"
295 618 m 1,3,-1
 295 -382 l 1025
  Spiro
    295 618 {
    295 -382 v
    0 0 z
  EndSpiro
  Named: "GLR"
205 618 m 1,5,-1
 205 -382 l 1025
  Spiro
    205 618 {
    205 -382 v
    0 0 z
  EndSpiro
  Named: "GRR"
0 118 m 1,0,-1
 500 118 l 1025,1,2
  Spiro
    0 118 {
    500 118 v
    0 0 z
  EndSpiro
  Named: "EMSquareCenter"
EndSplineSet
Fore
SplineSet
159 336 m 1,0,-1
 79 336 l 2,1,2
 59 336 59 336 59 359 c 128,-1,3
 59 382 59 382 79 382 c 2,4,-1
 159 382 l 1,5,-1
 159 472 l 2,6,7
 159 500 159 500 182 500 c 128,-1,8
 205 500 205 500 205 472 c 2,9,-1
 205 382 l 1,10,-1
 337 382 l 2,11,12
 367 382 367 382 367 359 c 128,-1,13
 367 336 367 336 337 336 c 2,14,-1
 205 336 l 1,15,16
 205 194 205 194 205 154 c 0,17,18
 205 122 205 122 224 91 c 0,19,20
 252 46 252 46 303 46 c 0,21,22
 328 46 328 46 351 56 c 0,23,24
 358 59 358 59 383 78 c 2,25,-1
 412 100 l 2,26,27
 424 109 424 109 436 93 c 0,28,29
 441 86 441 86 441 82 c 0,30,31
 441 65 441 65 411 37 c 0,32,33
 370 0 370 0 309 0 c 0,34,35
 214 1 214 1 175 77 c 0,36,37
 159 108 159 108 159 174 c 2,38,-1
 159 336 l 1,0,-1
EndSplineSet
Validated: 1
EndChar

StartChar: u
Encoding: 341 117 85
Width: 500
VWidth: 852
Flags: MW
LayerCount: 2
Back
SplineSet
0 -118 m 5,0,-1
 500 -118 l 1029,1,2
  Spiro
    0 -118 {
    500 -118 v
    0 0 z
  EndSpiro
  Named: "GBottom-500-500"
0 500 m 5,0,-1
 500 500 l 1029,1,2
  Spiro
    0 500 {
    500 500 v
    0 0 z
  EndSpiro
  Named: "G-500/500"
0 236 m 5,0,-1
 500 236 l 1029,1,2
  Spiro
    0 236 {
    500 236 v
    0 0 z
  EndSpiro
  Named: "G1GoldSplit"
0 309 m 5,0,-1
 500 309 l 1029,1,2
  Spiro
    0 309 {
    500 309 v
    0 0 z
  EndSpiro
  Named: "G1Center"
368 618 m 5,5,-1
 368 -382 l 1029
  Spiro
    368 618 {
    368 -382 v
    0 0 z
  EndSpiro
  Named: "GCEnd"
132 618 m 5,5,-1
 132 -382 l 1029
  Spiro
    132 618 {
    132 -382 v
    0 0 z
  EndSpiro
  Named: "GCStart"
0 73 m 5,0,-1
 500 73 l 1029,1,2
  Spiro
    0 73 {
    500 73 v
    0 0 z
  EndSpiro
  Named: "G2Center"
0 -236 m 5,0,-1
 500 -236 l 1029,1,2
  Spiro
    0 -236 {
    500 -236 v
    0 0 z
  EndSpiro
  Named: "G2Bottom"
0 382 m 5,0,-1
 500 382 l 1029,1,2
  Spiro
    0 382 {
    500 382 v
    0 0 z
  EndSpiro
  Named: "G2Top"
59 618 m 5,3,-1
 59 -382 l 1029
  Spiro
    59 618 {
    59 -382 v
    0 0 z
  EndSpiro
  Named: "GLeft"
441 618 m 5,5,-1
 441 -382 l 1029
  Spiro
    441 618 {
    441 -382 v
    0 0 z
  EndSpiro
  Named: "GRight"
250 618 m 5,0,-1
 250 -382 l 1029
  Spiro
    250 618 {
    250 -382 v
    0 0 z
  EndSpiro
0 309 m 5,0,-1
 500 309 l 1029,1,2
  Spiro
    0 309 {
    500 309 v
    0 0 z
  EndSpiro
  Named: "G1Center"
295 618 m 5,3,-1
 295 -382 l 1029
  Spiro
    295 618 {
    295 -382 v
    0 0 z
  EndSpiro
  Named: "GLR"
205 618 m 5,5,-1
 205 -382 l 1029
  Spiro
    205 618 {
    205 -382 v
    0 0 z
  EndSpiro
  Named: "GRR"
0 118 m 5,0,-1
 500 118 l 1029,1,2
  Spiro
    0 118 {
    500 118 v
    0 0 z
  EndSpiro
  Named: "EMSquareCenter"
EndSplineSet
Fore
SplineSet
441 146 m 2,0,1
 441 91 441 91 397 46 c 0,2,3
 352 0 352 0 250 0 c 256,4,5
 147 0 147 0 103 46 c 128,-1,6
 59 92 59 92 59 146 c 10,7,-1
 59 354 l 2,8,9
 59 382 59 382 82 382 c 256,10,11
 105 382 105 382 105 354 c 2,12,-1
 105 146 l 2,13,14
 105 94 105 94 153 67 c 0,15,16
 190 46 190 46 250 46 c 256,17,18
 310 46 310 46 347 67 c 0,19,20
 395 94 395 94 395 146 c 10,21,-1
 395 354 l 2,22,23
 395 382 395 382 418 382 c 256,24,25
 441 382 441 382 441 354 c 2,26,-1
 441 146 l 2,0,1
EndSplineSet
Validated: 1
EndChar

StartChar: v
Encoding: 342 118 86
Width: 500
VWidth: 852
Flags: MW
LayerCount: 2
Back
SplineSet
0 500 m 5,0,-1
 500 500 l 1029,1,2
  Spiro
    0 500 {
    500 500 v
    0 0 z
  EndSpiro
  Named: "G-500/500"
0 236 m 5,0,-1
 500 236 l 1029,1,2
  Spiro
    0 236 {
    500 236 v
    0 0 z
  EndSpiro
  Named: "G1GoldSplit"
0 309 m 5,0,-1
 500 309 l 1029,1,2
  Spiro
    0 309 {
    500 309 v
    0 0 z
  EndSpiro
  Named: "G1Center"
368 618 m 5,5,-1
 368 -382 l 1029
  Spiro
    368 618 {
    368 -382 v
    0 0 z
  EndSpiro
  Named: "GCEnd"
132 618 m 5,5,-1
 132 -382 l 1029
  Spiro
    132 618 {
    132 -382 v
    0 0 z
  EndSpiro
  Named: "GCStart"
0 73 m 5,0,-1
 500 73 l 1029,1,2
  Spiro
    0 73 {
    500 73 v
    0 0 z
  EndSpiro
  Named: "G2Center"
0 -236 m 5,0,-1
 500 -236 l 1029,1,2
  Spiro
    0 -236 {
    500 -236 v
    0 0 z
  EndSpiro
  Named: "G2Bottom"
0 382 m 5,0,-1
 500 382 l 1029,1,2
  Spiro
    0 382 {
    500 382 v
    0 0 z
  EndSpiro
  Named: "G2Top"
59 618 m 5,3,-1
 59 -382 l 1029
  Spiro
    59 618 {
    59 -382 v
    0 0 z
  EndSpiro
  Named: "GLeft"
441 618 m 5,5,-1
 441 -382 l 1029
  Spiro
    441 618 {
    441 -382 v
    0 0 z
  EndSpiro
  Named: "GRight"
250 618 m 5,0,-1
 250 -382 l 1029
  Spiro
    250 618 {
    250 -382 v
    0 0 z
  EndSpiro
0 309 m 5,0,-1
 500 309 l 1029,1,2
  Spiro
    0 309 {
    500 309 v
    0 0 z
  EndSpiro
  Named: "G1Center"
295 618 m 5,3,-1
 295 -382 l 1029
  Spiro
    295 618 {
    295 -382 v
    0 0 z
  EndSpiro
  Named: "GLR"
205 618 m 5,5,-1
 205 -382 l 1029
  Spiro
    205 618 {
    205 -382 v
    0 0 z
  EndSpiro
  Named: "GRR"
0 118 m 5,0,-1
 500 118 l 1029,1,2
  Spiro
    0 118 {
    500 118 v
    0 0 z
  EndSpiro
  Named: "EMSquareCenter"
EndSplineSet
Fore
SplineSet
442 377 m 4,0,1
 450 369 450 369 450 358 c 4,2,3
 450 348 450 348 447 342 c 6,4,-1
 279 20 l 6,5,6
 269 -0 269 -0 250 0 c 260,7,8
 232 0 232 0 222 20 c 6,9,-1
 64 339 l 6,10,11
 59 349 59 349 59 356 c 4,12,13
 59 369 59 369 63 373 c 4,14,15
 73 382 73 382 88 382 c 4,16,17
 93 382 93 382 104 360 c 6,18,-1
 250 66 l 5,19,-1
 404 362 l 6,20,21
 414 382 414 382 423 382 c 4,22,23
 435 382 435 382 442 377 c 4,0,1
EndSplineSet
Validated: 1
EndChar

StartChar: w
Encoding: 343 119 87
Width: 500
VWidth: 852
Flags: MW
LayerCount: 2
Back
SplineSet
0 500 m 5,0,-1
 500 500 l 1029,1,2
  Spiro
    0 500 {
    500 500 v
    0 0 z
  EndSpiro
  Named: "G-500/500"
0 236 m 5,0,-1
 500 236 l 1029,1,2
  Spiro
    0 236 {
    500 236 v
    0 0 z
  EndSpiro
  Named: "G1GoldSplit"
0 309 m 5,0,-1
 500 309 l 1029,1,2
  Spiro
    0 309 {
    500 309 v
    0 0 z
  EndSpiro
  Named: "G1Center"
368 618 m 5,5,-1
 368 -382 l 1029
  Spiro
    368 618 {
    368 -382 v
    0 0 z
  EndSpiro
  Named: "GCEnd"
132 618 m 5,5,-1
 132 -382 l 1029
  Spiro
    132 618 {
    132 -382 v
    0 0 z
  EndSpiro
  Named: "GCStart"
0 73 m 5,0,-1
 500 73 l 1029,1,2
  Spiro
    0 73 {
    500 73 v
    0 0 z
  EndSpiro
  Named: "G2Center"
0 -236 m 5,0,-1
 500 -236 l 1029,1,2
  Spiro
    0 -236 {
    500 -236 v
    0 0 z
  EndSpiro
  Named: "G2Bottom"
0 382 m 5,0,-1
 500 382 l 1029,1,2
  Spiro
    0 382 {
    500 382 v
    0 0 z
  EndSpiro
  Named: "G2Top"
59 618 m 5,3,-1
 59 -382 l 1029
  Spiro
    59 618 {
    59 -382 v
    0 0 z
  EndSpiro
  Named: "GLeft"
441 618 m 5,5,-1
 441 -382 l 1029
  Spiro
    441 618 {
    441 -382 v
    0 0 z
  EndSpiro
  Named: "GRight"
250 618 m 5,0,-1
 250 -382 l 1029
  Spiro
    250 618 {
    250 -382 v
    0 0 z
  EndSpiro
0 309 m 5,0,-1
 500 309 l 1029,1,2
  Spiro
    0 309 {
    500 309 v
    0 0 z
  EndSpiro
  Named: "G1Center"
295 618 m 5,3,-1
 295 -382 l 1029
  Spiro
    295 618 {
    295 -382 v
    0 0 z
  EndSpiro
  Named: "GLR"
205 618 m 5,5,-1
 205 -382 l 1029
  Spiro
    205 618 {
    205 -382 v
    0 0 z
  EndSpiro
  Named: "GRR"
0 118 m 5,0,-1
 500 118 l 1029,1,2
  Spiro
    0 118 {
    500 118 v
    0 0 z
  EndSpiro
  Named: "EMSquareCenter"
EndSplineSet
Fore
SplineSet
441 354 m 0,0,1
 441 349 441 349 440 346 c 2,2,-1
 343 23 l 2,3,4
 336 0 336 0 315 0 c 256,5,6
 296 0 296 0 289 23 c 2,7,-1
 250 148 l 1,8,-1
 212 23 l 2,9,10
 205 -0 205 -0 185 0 c 256,11,12
 165 0 165 0 158 23 c 2,13,-1
 61 345 l 2,14,15
 59 352 59 352 59 356 c 0,16,17
 59 382 59 382 78 382 c 128,-1,19
 97 382 97 382 103 361 c 2,20,-1
 184 91 l 1,21,-1
 227 229 l 1,22,23
 190 351 190 351 190 354 c 0,24,25
 190 382 190 382 208 382 c 0,26,27
 228 382 228 382 234 361 c 2,28,-1
 315 96 l 1,29,-1
 397 361 l 2,30,31
 403 382 403 382 422 382 c 0,32,33
 440 382 440 382 441 354 c 0,0,1
EndSplineSet
Validated: 1
EndChar

StartChar: x
Encoding: 344 120 88
Width: 500
VWidth: 852
Flags: MW
LayerCount: 2
Back
SplineSet
0 500 m 5,0,-1
 500 500 l 1029,1,2
  Spiro
    0 500 {
    500 500 v
    0 0 z
  EndSpiro
  Named: "G-500/500"
0 236 m 5,0,-1
 500 236 l 1029,1,2
  Spiro
    0 236 {
    500 236 v
    0 0 z
  EndSpiro
  Named: "G1GoldSplit"
0 309 m 5,0,-1
 500 309 l 1029,1,2
  Spiro
    0 309 {
    500 309 v
    0 0 z
  EndSpiro
  Named: "G1Center"
368 618 m 5,5,-1
 368 -382 l 1029
  Spiro
    368 618 {
    368 -382 v
    0 0 z
  EndSpiro
  Named: "GCEnd"
132 618 m 5,5,-1
 132 -382 l 1029
  Spiro
    132 618 {
    132 -382 v
    0 0 z
  EndSpiro
  Named: "GCStart"
0 73 m 5,0,-1
 500 73 l 1029,1,2
  Spiro
    0 73 {
    500 73 v
    0 0 z
  EndSpiro
  Named: "G2Center"
0 -236 m 5,0,-1
 500 -236 l 1029,1,2
  Spiro
    0 -236 {
    500 -236 v
    0 0 z
  EndSpiro
  Named: "G2Bottom"
0 382 m 5,0,-1
 500 382 l 1029,1,2
  Spiro
    0 382 {
    500 382 v
    0 0 z
  EndSpiro
  Named: "G2Top"
59 618 m 5,3,-1
 59 -382 l 1029
  Spiro
    59 618 {
    59 -382 v
    0 0 z
  EndSpiro
  Named: "GLeft"
441 618 m 5,5,-1
 441 -382 l 1029
  Spiro
    441 618 {
    441 -382 v
    0 0 z
  EndSpiro
  Named: "GRight"
250 618 m 5,0,-1
 250 -382 l 1029
  Spiro
    250 618 {
    250 -382 v
    0 0 z
  EndSpiro
0 309 m 5,0,-1
 500 309 l 1029,1,2
  Spiro
    0 309 {
    500 309 v
    0 0 z
  EndSpiro
  Named: "G1Center"
295 618 m 5,3,-1
 295 -382 l 1029
  Spiro
    295 618 {
    295 -382 v
    0 0 z
  EndSpiro
  Named: "GLR"
205 618 m 5,5,-1
 205 -382 l 1029
  Spiro
    205 618 {
    205 -382 v
    0 0 z
  EndSpiro
  Named: "GRR"
0 118 m 5,0,-1
 500 118 l 1029,1,2
  Spiro
    0 118 {
    500 118 v
    0 0 z
  EndSpiro
  Named: "EMSquareCenter"
EndSplineSet
Fore
SplineSet
430 45 m 2,0,1
 441 34 441 34 441 23 c 0,2,3
 441 14 441 14 434 8 c 0,4,5
 427 0 427 0 419 0 c 0,6,7
 409 0 409 0 397 12 c 2,8,-1
 250 159 l 1,9,-1
 98 7 l 2,10,11
 91 0 91 0 84 0 c 128,-1,12
 77 0 77 0 68 9 c 128,-1,13
 59 18 59 18 59 26 c 0,14,15
 59 32 59 32 66 39 c 2,16,-1
 218 191 l 1,17,-1
 66 343 l 2,18,19
 59 350 59 350 59 357 c 128,-1,20
 59 364 59 364 68 373 c 128,-1,21
 77 382 77 382 85 382 c 0,22,23
 91 382 91 382 98 375 c 2,24,-1
 250 224 l 1,25,-1
 396 371 l 2,26,27
 407 382 407 382 418 382 c 0,28,29
 425 382 425 382 433 375 c 128,-1,31
 441 368 441 368 441 360 c 0,32,33
 441 350 441 350 429 338 c 2,34,-1
 283 191 l 1,35,-1
 430 45 l 2,0,1
EndSplineSet
Validated: 1
EndChar

StartChar: y
Encoding: 345 121 89
Width: 500
VWidth: 852
Flags: MW
LayerCount: 2
Back
SplineSet
0 500 m 1,0,-1
 500 500 l 1025,1,2
  Spiro
    0 500 {
    500 500 v
    0 0 z
  EndSpiro
  Named: "G-500/500"
0 236 m 1,0,-1
 500 236 l 1025,1,2
  Spiro
    0 236 {
    500 236 v
    0 0 z
  EndSpiro
  Named: "G1GoldSplit"
0 309 m 1,0,-1
 500 309 l 1025,1,2
  Spiro
    0 309 {
    500 309 v
    0 0 z
  EndSpiro
  Named: "G1Center"
368 618 m 1,5,-1
 368 -382 l 1025
  Spiro
    368 618 {
    368 -382 v
    0 0 z
  EndSpiro
  Named: "GCEnd"
132 618 m 1,5,-1
 132 -382 l 1025
  Spiro
    132 618 {
    132 -382 v
    0 0 z
  EndSpiro
  Named: "GCStart"
0 73 m 1,0,-1
 500 73 l 1025,1,2
  Spiro
    0 73 {
    500 73 v
    0 0 z
  EndSpiro
  Named: "G2Center"
0 -236 m 5,0,-1
 500 -236 l 1025,1,2
  Spiro
    0 -236 {
    500 -236 v
    0 0 z
  EndSpiro
  Named: "G2Bottom"
0 382 m 1,0,-1
 500 382 l 1025,1,2
  Spiro
    0 382 {
    500 382 v
    0 0 z
  EndSpiro
  Named: "G2Top"
59 618 m 1,3,-1
 59 -382 l 1025
  Spiro
    59 618 {
    59 -382 v
    0 0 z
  EndSpiro
  Named: "GLeft"
441 618 m 1,5,-1
 441 -382 l 1025
  Spiro
    441 618 {
    441 -382 v
    0 0 z
  EndSpiro
  Named: "GRight"
250 618 m 1,0,-1
 250 -382 l 1025
  Spiro
    250 618 {
    250 -382 v
    0 0 z
  EndSpiro
0 309 m 1,0,-1
 500 309 l 1025,1,2
  Spiro
    0 309 {
    500 309 v
    0 0 z
  EndSpiro
  Named: "G1Center"
295 618 m 1,3,-1
 295 -382 l 1025
  Spiro
    295 618 {
    295 -382 v
    0 0 z
  EndSpiro
  Named: "GLR"
205 618 m 1,5,-1
 205 -382 l 1025
  Spiro
    205 618 {
    205 -382 v
    0 0 z
  EndSpiro
  Named: "GRR"
0 118 m 1,0,-1
 500 118 l 1025,1,2
  Spiro
    0 118 {
    500 118 v
    0 0 z
  EndSpiro
  Named: "EMSquareCenter"
EndSplineSet
Fore
SplineSet
441 364 m 2,0,-1
 441 -64 l 2,1,2
 441 -136 441 -136 385 -186 c 128,-1,3
 329 -236 329 -236 250 -236 c 0,4,5
 200 -236 200 -236 151 -211 c 0,6,7
 105 -188 105 -188 85 -151 c 0,8,9
 80 -142 80 -142 80 -134 c 0,10,11
 80 -124 80 -124 89 -116 c 0,12,13
 95 -111 95 -111 102 -111 c 0,14,15
 113 -111 113 -111 124 -125 c 0,16,17
 179 -190 179 -190 250 -190 c 0,18,19
 324 -190 324 -190 359 -151 c 0,20,21
 395 -112 395 -112 395 -64 c 2,22,-1
 395 56 l 1,23,24
 327 0 327 0 250 0 c 0,25,26
 162 0 162 0 112 44 c 0,27,28
 59 92 59 92 59 161 c 0,29,30
 59 162 59 162 59 164 c 2,31,-1
 59 364 l 2,32,33
 59 393 59 393 82 393 c 256,34,35
 104 393 104 393 105 364 c 1,36,-1
 105 164 l 2,37,38
 105 110 105 110 141 76 c 0,39,40
 173 46 173 46 250 46 c 256,41,42
 319 46 319 46 359 83 c 0,43,44
 395 116 395 116 395 164 c 2,45,-1
 395 364 l 2,46,47
 395 393 395 393 418 393 c 256,48,49
 441 393 441 393 441 364 c 2,0,-1
EndSplineSet
Validated: 1
EndChar

StartChar: z
Encoding: 346 122 90
Width: 500
VWidth: 852
Flags: MW
LayerCount: 2
Back
SplineSet
0 500 m 5,0,-1
 500 500 l 1029,1,2
  Spiro
    0 500 {
    500 500 v
    0 0 z
  EndSpiro
  Named: "G-500/500"
0 236 m 5,0,-1
 500 236 l 1029,1,2
  Spiro
    0 236 {
    500 236 v
    0 0 z
  EndSpiro
  Named: "G1GoldSplit"
0 309 m 5,0,-1
 500 309 l 1029,1,2
  Spiro
    0 309 {
    500 309 v
    0 0 z
  EndSpiro
  Named: "G1Center"
368 618 m 5,5,-1
 368 -382 l 1029
  Spiro
    368 618 {
    368 -382 v
    0 0 z
  EndSpiro
  Named: "GCEnd"
132 618 m 5,5,-1
 132 -382 l 1029
  Spiro
    132 618 {
    132 -382 v
    0 0 z
  EndSpiro
  Named: "GCStart"
0 73 m 5,0,-1
 500 73 l 1029,1,2
  Spiro
    0 73 {
    500 73 v
    0 0 z
  EndSpiro
  Named: "G2Center"
0 -236 m 5,0,-1
 500 -236 l 1029,1,2
  Spiro
    0 -236 {
    500 -236 v
    0 0 z
  EndSpiro
  Named: "G2Bottom"
0 382 m 5,0,-1
 500 382 l 1029,1,2
  Spiro
    0 382 {
    500 382 v
    0 0 z
  EndSpiro
  Named: "G2Top"
59 618 m 5,3,-1
 59 -382 l 1029
  Spiro
    59 618 {
    59 -382 v
    0 0 z
  EndSpiro
  Named: "GLeft"
441 618 m 5,5,-1
 441 -382 l 1029
  Spiro
    441 618 {
    441 -382 v
    0 0 z
  EndSpiro
  Named: "GRight"
250 618 m 5,0,-1
 250 -382 l 1029
  Spiro
    250 618 {
    250 -382 v
    0 0 z
  EndSpiro
0 309 m 5,0,-1
 500 309 l 1029,1,2
  Spiro
    0 309 {
    500 309 v
    0 0 z
  EndSpiro
  Named: "G1Center"
295 618 m 5,3,-1
 295 -382 l 1029
  Spiro
    295 618 {
    295 -382 v
    0 0 z
  EndSpiro
  Named: "GLR"
205 618 m 5,5,-1
 205 -382 l 1029
  Spiro
    205 618 {
    205 -382 v
    0 0 z
  EndSpiro
  Named: "GRR"
0 118 m 5,0,-1
 500 118 l 1029,1,2
  Spiro
    0 118 {
    500 118 v
    0 0 z
  EndSpiro
  Named: "EMSquareCenter"
EndSplineSet
Fore
SplineSet
441 359 m 0,0,1
 441 348 441 348 429 336 c 2,2,-1
 131 46 l 1,3,-1
 413 46 l 2,4,5
 441 46 441 46 441 23 c 128,-1,6
 441 0 441 0 413 0 c 2,7,-1
 89 0 l 2,8,9
 59 0 59 0 59 23 c 0,10,11
 59 40 59 40 71 52 c 2,12,-1
 364 336 l 1,13,-1
 88 336 l 2,14,15
 60 336 60 336 60 359 c 128,-1,16
 60 382 60 382 88 382 c 2,17,-1
 412 382 l 2,18,19
 441 382 441 382 441 359 c 0,0,1
EndSplineSet
Validated: 1
EndChar

StartChar: braceleft
Encoding: 347 123 91
Width: 500
VWidth: 852
Flags: MW
LayerCount: 2
Back
SplineSet
368 618 m 1,5,-1
 368 -382 l 1025
  Named: "GCEnd"
132 618 m 1,5,-1
 132 -382 l 1025
  Named: "GCStart"
0 73 m 1,0,-1
 500 73 l 1025,1,2
  Named: "G2Center"
0 -236 m 1,0,-1
 500 -236 l 1025,1,2
  Named: "G2Bottom"
0 382 m 1,0,-1
 500 382 l 1025,1,2
  Named: "G2Top"
59 618 m 1,3,-1
 59 -382 l 1025
  Named: "GLeft"
441 618 m 1,5,-1
 441 -382 l 1025
  Named: "GRight"
250 618 m 1,0,-1
 250 -382 l 1025
0 309 m 1,0,-1
 500 309 l 1025,1,2
  Named: "G1Center"
295 618 m 1,3,-1
 295 -382 l 1025
  Named: "GLR"
205 618 m 1,5,-1
 205 -382 l 1025
  Named: "GRR"
0 118 m 1,0,-1
 500 118 l 1025,1,2
  Named: "EMSquareCenter"
EndSplineSet
Fore
SplineSet
205 286 m 2,0,1
 205 337 205 337 95 337 c 0,2,3
 59 337 59 337 59 360 c 256,4,5
 59 382 59 382 95 382 c 0,6,7
 205 382 205 382 205 425 c 2,8,-1
 205 525 l 2,9,10
 205 571 205 571 250 591 c 0,11,12
 310 618 310 618 391 618 c 0,13,14
 441 618 441 618 441 594 c 256,15,16
 441 573 441 573 395 573 c 0,17,18
 332 573 332 573 281 550 c 0,19,20
 250 536 250 536 250 504 c 2,21,-1
 250 407 l 2,22,23
 250 383 250 383 205 360 c 1,24,25
 250 338 250 338 250 282 c 2,26,-1
 250 101 l 2,27,28
 250 83 250 83 281 68 c 0,29,30
 328 45 328 45 395 45 c 0,31,32
 441 45 441 45 441 23 c 256,33,34
 441 0 441 0 391 0 c 0,35,36
 308 -0 308 -0 250.5 27 c 0,37,38
 205 48 205 48 205 92 c 2,39,-1
 205 286 l 2,0,1
EndSplineSet
Validated: 1
EndChar

StartChar: bar
Encoding: 348 124 92
Width: 500
VWidth: 852
Flags: MW
LayerCount: 2
Back
SplineSet
368 618 m 5,5,-1
 368 -382 l 1029
  Named: "GCEnd"
132 618 m 5,5,-1
 132 -382 l 1029
  Named: "GCStart"
0 73 m 5,0,-1
 500 73 l 1029,1,2
  Named: "G2Center"
0 -236 m 5,0,-1
 500 -236 l 1029,1,2
  Named: "G2Bottom"
0 382 m 5,0,-1
 500 382 l 1029,1,2
  Named: "G2Top"
59 618 m 5,3,-1
 59 -382 l 1029
  Named: "GLeft"
441 618 m 5,5,-1
 441 -382 l 1029
  Named: "GRight"
250 618 m 5,0,-1
 250 -382 l 1029
0 309 m 5,0,-1
 500 309 l 1029,1,2
  Named: "G1Center"
295 618 m 5,3,-1
 295 -382 l 1029
  Named: "GLR"
205 618 m 5,5,-1
 205 -382 l 1029
  Named: "GRR"
0 118 m 5,0,-1
 500 118 l 1029,1,2
  Named: "EMSquareCenter"
EndSplineSet
Fore
SplineSet
273 -352 m 6,0,1
 273 -382 273 -382 250 -382 c 132,-1,2
 227 -382 227 -382 227 -352 c 6,3,-1
 227 598 l 6,4,5
 227 618 227 618 250 618 c 260,6,7
 273 618 273 618 273 598 c 6,8,-1
 273 -352 l 6,0,1
EndSplineSet
Validated: 1
EndChar

StartChar: braceright
Encoding: 349 125 93
Width: 500
VWidth: 852
Flags: MW
LayerCount: 2
Back
SplineSet
368 618 m 1,5,-1
 368 -382 l 1025
  Named: "GCEnd"
132 618 m 1,5,-1
 132 -382 l 1025
  Named: "GCStart"
0 73 m 1,0,-1
 500 73 l 1025,1,2
  Named: "G2Center"
0 -236 m 1,0,-1
 500 -236 l 1025,1,2
  Named: "G2Bottom"
0 382 m 1,0,-1
 500 382 l 1025,1,2
  Named: "G2Top"
59 618 m 1,3,-1
 59 -382 l 1025
  Named: "GLeft"
441 618 m 1,5,-1
 441 -382 l 1025
  Named: "GRight"
250 618 m 1,0,-1
 250 -382 l 1025
0 309 m 1,0,-1
 500 309 l 1025,1,2
  Named: "G1Center"
295 618 m 1,3,-1
 295 -382 l 1025
  Named: "GLR"
205 618 m 1,5,-1
 205 -382 l 1025
  Named: "GRR"
0 118 m 1,0,-1
 500 118 l 1025,1,2
  Named: "EMSquareCenter"
EndSplineSet
Fore
SplineSet
295 96 m 2,0,1
 295 45 295 45 405 45 c 0,2,3
 441 45 441 45 441 22 c 256,4,5
 441 0 441 0 405 0 c 0,6,7
 295 0 295 0 295 -43 c 2,8,-1
 295 -143 l 2,9,10
 295 -189 295 -189 250 -209 c 0,11,12
 190 -236 190 -236 109 -236 c 0,13,14
 59 -236 59 -236 59 -212 c 256,15,16
 59 -191 59 -191 105 -191 c 0,17,18
 168 -191 168 -191 219 -168 c 0,19,20
 250 -154 250 -154 250 -122 c 2,21,-1
 250 -25 l 2,22,23
 250 -1 250 -1 295 22 c 1,24,25
 250 44 250 44 250 100 c 2,26,-1
 250 281 l 2,27,28
 250 299 250 299 219 314 c 0,29,30
 172 337 172 337 105 337 c 0,31,32
 59 337 59 337 59 359 c 256,33,34
 59 382 59 382 109 382 c 0,35,36
 192 382 192 382 250 355 c 0,37,38
 295 334 295 334 295 290 c 2,39,-1
 295 96 l 2,0,1
EndSplineSet
Validated: 1
EndChar

StartChar: asciitilde
Encoding: 350 126 94
Width: 500
VWidth: 1170
Flags: MW
LayerCount: 2
Back
SplineSet
0 236 m 1,0,-1
 500 236 l 1025,1,2
  Spiro
    0 236 {
    500 236 v
    0 0 z
  EndSpiro
  Named: "G1GoldSplit"
0 309 m 1,0,-1
 500 309 l 1025,1,2
  Spiro
    0 309 {
    500 309 v
    0 0 z
  EndSpiro
  Named: "G1Center"
368 618 m 1,5,-1
 368 -382 l 1025
  Spiro
    368 618 {
    368 -382 v
    0 0 z
  EndSpiro
  Named: "GCEnd"
132 618 m 1,5,-1
 132 -382 l 1025
  Spiro
    132 618 {
    132 -382 v
    0 0 z
  EndSpiro
  Named: "GCStart"
0 73 m 1,0,-1
 500 73 l 1025,1,2
  Spiro
    0 73 {
    500 73 v
    0 0 z
  EndSpiro
  Named: "G2Center"
0 -236 m 1,0,-1
 500 -236 l 1025,1,2
  Spiro
    0 -236 {
    500 -236 v
    0 0 z
  EndSpiro
  Named: "G2Bottom"
0 382 m 1,0,-1
 500 382 l 1025,1,2
  Spiro
    0 382 {
    500 382 v
    0 0 z
  EndSpiro
  Named: "G2Top"
59 618 m 1,3,-1
 59 -382 l 1025
  Spiro
    59 618 {
    59 -382 v
    0 0 z
  EndSpiro
  Named: "GLeft"
441 618 m 1,5,-1
 441 -382 l 1025
  Spiro
    441 618 {
    441 -382 v
    0 0 z
  EndSpiro
  Named: "GRight"
250 618 m 1,0,-1
 250 -382 l 1025
  Spiro
    250 618 {
    250 -382 v
    0 0 z
  EndSpiro
0 309 m 1,0,-1
 500 309 l 1025,1,2
  Spiro
    0 309 {
    500 309 v
    0 0 z
  EndSpiro
  Named: "G1Center"
295 618 m 1,3,-1
 295 -382 l 1025
  Spiro
    295 618 {
    295 -382 v
    0 0 z
  EndSpiro
  Named: "GLR"
205 618 m 1,5,-1
 205 -382 l 1025
  Spiro
    205 618 {
    205 -382 v
    0 0 z
  EndSpiro
  Named: "GRR"
0 118 m 1,0,-1
 500 118 l 1025,1,2
  Spiro
    0 118 {
    500 118 v
    0 0 z
  EndSpiro
  Named: "EMSquareCenter"
EndSplineSet
Fore
SplineSet
279 254 m 0,0,1
 270 260 270 260 232.5 300.5 c 128,-1,2
 195 341 195 341 163 341 c 0,3,4
 108 341 108 341 103 295 c 1,5,-1
 103 288 l 2,6,7
 103 283 103 283 105.5 272.5 c 128,-1,8
 108 262 108 262 99 256 c 128,-1,9
 90 250 90 250 83 250 c 0,10,11
 65 250 65 250 60 282 c 0,12,13
 59 289 59 289 59 294 c 0,14,15
 59 330 59 330 82 352 c 0,16,17
 117 386 117 386 155 386 c 0,18,19
 194 386 194 386 222 363 c 0,20,21
 229 357 229 357 261 323 c 0,22,23
 304 276 304 276 343 276 c 0,24,25
 365 276 365 276 381.5 290 c 128,-1,26
 398 304 398 304 398 316 c 128,-1,27
 398 328 398 328 394.5 342 c 128,-1,28
 391 356 391 356 400 362 c 128,-1,29
 409 368 409 368 417.5 368 c 128,-1,30
 426 368 426 368 433.5 354.5 c 128,-1,31
 441 341 441 341 441 328 c 0,32,33
 441 287 441 287 418 265 c 0,34,35
 383 232 383 232 347.5 232 c 128,-1,36
 312 232 312 232 279 254 c 0,0,1
EndSplineSet
Validated: 1
EndChar
